<svg width="139" height="66" viewBox="0 0 139 66" fill="none" xmlns="http://www.w3.org/2000/svg">
<path d="M137 41.7326C137 19.7888 130.243 2 121.907 2C113.572 2 106.815 19.7888 106.815 41.7326C106.815 54.0305 109.675 64 113.204 64C116.732 64 119.593 54.0305 119.593 41.7326C119.593 19.7888 112.835 2 104.5 2C96.1646 2 89.4072 19.7888 89.4072 41.7326C89.4072 54.0305 92.2677 64 95.7963 64C99.3248 64 102.185 54.0305 102.185 41.7326C102.185 19.7888 95.3865 2 87 2C78.6136 2 71.8147 19.7888 71.8147 41.7326C71.8147 54.0305 74.6752 64 78.2038 64C81.7324 64 84.5924 54.0305 84.5924 41.7326C84.5924 19.7888 77.8355 2 69.5 2C61.1645 2 54.4076 19.7888 54.4076 41.7326C54.4076 54.0305 57.2676 64 60.7962 64C64.3248 64 67.1853 54.0305 67.1853 41.7326C67.1853 19.7888 60.4279 2 52.0924 2C43.757 2 37.0001 19.7888 37.0001 41.7326C37.0001 54.0305 39.8606 64 43.3887 64C46.9173 64 49.7778 54.0305 49.7778 41.7326C49.7778 19.7888 43.0203 2 34.6854 2C26.35 2 19.5925 19.7888 19.5925 41.7326C19.5925 54.0305 22.453 64 25.9816 64C29.5097 64 32.3702 54.0305 32.3702 41.7326C32.3702 19.7888 25.5719 2 17.1854 1.99999C8.7989 1.99999 2 19.7888 2 41.7326" stroke="#20E8C4" stroke-width="3" stroke-linecap="round"/>
</svg>
