<svg width="197" height="66" viewBox="0 0 197 66" fill="none" xmlns="http://www.w3.org/2000/svg">
<path d="M17.9951 26C17.9951 23.7909 19.786 22 21.9951 22H175C187.15 22 197 31.8497 197 44C197 56.1503 187.15 66 175 66H57.9951C35.9037 66 17.9951 48.0914 17.9951 26Z" fill="#FF4BD8"/>
<path d="M0 0L8.76807 20L10.1525 11L18.4591 9.5L0 0Z" fill="#FF4BD8"/>
<path d="M169.872 51.3045C168.521 51.3045 167.412 51.0105 166.544 50.4225C165.683 49.8275 165.154 48.998 164.958 47.934L166.869 47.6295C167.023 48.2455 167.377 48.7355 167.93 49.0995C168.483 49.4565 169.169 49.635 169.988 49.635C170.765 49.635 171.374 49.474 171.815 49.152C172.256 48.83 172.477 48.3925 172.477 47.8395C172.477 47.5175 172.403 47.2585 172.256 47.0625C172.109 46.8595 171.804 46.6705 171.342 46.4955C170.887 46.3205 170.198 46.1105 169.274 45.8655C168.273 45.5995 167.485 45.323 166.911 45.036C166.337 44.749 165.928 44.4165 165.683 44.0385C165.438 43.6605 165.315 43.202 165.315 42.663C165.315 41.998 165.498 41.417 165.862 40.92C166.226 40.416 166.733 40.0275 167.384 39.7545C168.042 39.4815 168.805 39.345 169.673 39.345C170.534 39.345 171.304 39.4815 171.983 39.7545C172.662 40.0275 173.208 40.416 173.621 40.92C174.041 41.417 174.29 41.998 174.367 42.663L172.455 43.0095C172.364 42.4005 172.071 41.921 171.574 41.571C171.084 41.221 170.45 41.0355 169.673 41.0145C168.938 40.9865 168.34 41.116 167.878 41.403C167.423 41.69 167.195 42.0785 167.195 42.5685C167.195 42.8415 167.279 43.076 167.447 43.272C167.622 43.468 167.94 43.6535 168.402 43.8285C168.871 44.0035 169.55 44.203 170.439 44.427C171.44 44.679 172.228 44.9555 172.802 45.2565C173.383 45.5505 173.796 45.9005 174.041 46.3065C174.286 46.7055 174.409 47.199 174.409 47.787C174.409 48.879 174.006 49.74 173.201 50.37C172.396 50.993 171.286 51.3045 169.872 51.3045Z" fill="white"/>
<path d="M163.916 51C163.244 51.133 162.579 51.1855 161.921 51.1575C161.27 51.1365 160.689 51.007 160.178 50.769C159.667 50.524 159.279 50.146 159.013 49.635C158.789 49.187 158.666 48.7355 158.645 48.2805C158.631 47.8185 158.624 47.297 158.624 46.716V36.51H160.493V46.632C160.493 47.094 160.497 47.4895 160.504 47.8185C160.518 48.1475 160.591 48.431 160.724 48.669C160.976 49.117 161.375 49.3795 161.921 49.4565C162.474 49.5335 163.139 49.5125 163.916 49.3935V51ZM156.325 41.2035V39.66H163.916V41.2035H156.325Z" fill="white"/>
<path d="M153.595 51V45.3195C153.595 44.7805 153.546 44.2625 153.448 43.7655C153.357 43.2685 153.192 42.824 152.954 42.432C152.723 42.033 152.408 41.718 152.009 41.487C151.617 41.256 151.12 41.1405 150.518 41.1405C150.049 41.1405 149.622 41.221 149.237 41.382C148.859 41.536 148.534 41.774 148.261 42.096C147.988 42.418 147.774 42.824 147.62 43.314C147.473 43.797 147.4 44.3675 147.4 45.0255L146.171 44.6475C146.171 43.5485 146.367 42.607 146.759 41.823C147.158 41.032 147.715 40.4265 148.429 40.0065C149.15 39.5795 149.997 39.366 150.97 39.366C151.705 39.366 152.331 39.4815 152.849 39.7125C153.367 39.9435 153.798 40.2515 154.141 40.6365C154.484 41.0145 154.753 41.4415 154.949 41.9175C155.145 42.3865 155.282 42.866 155.359 43.356C155.443 43.839 155.485 44.2975 155.485 44.7315V51H153.595ZM145.51 51V39.66H147.19V42.6945H147.4V51H145.51Z" fill="white"/>
<path d="M138.965 51.315C137.852 51.315 136.879 51.07 136.046 50.58C135.22 50.083 134.576 49.3935 134.114 48.5115C133.652 47.6225 133.421 46.5865 133.421 45.4035C133.421 44.1645 133.648 43.0935 134.103 42.1905C134.558 41.2805 135.192 40.5805 136.004 40.0905C136.823 39.5935 137.782 39.345 138.881 39.345C140.022 39.345 140.991 39.6075 141.789 40.1325C142.594 40.6575 143.196 41.4065 143.595 42.3795C144.001 43.3525 144.176 44.511 144.12 45.855H142.23V45.183C142.209 43.79 141.926 42.7505 141.38 42.0645C140.834 41.3715 140.022 41.025 138.944 41.025C137.789 41.025 136.91 41.396 136.308 42.138C135.706 42.88 135.405 43.944 135.405 45.33C135.405 46.667 135.706 47.703 136.308 48.438C136.91 49.173 137.768 49.5405 138.881 49.5405C139.63 49.5405 140.281 49.369 140.834 49.026C141.387 48.683 141.821 48.1895 142.136 47.5455L143.931 48.165C143.49 49.166 142.825 49.943 141.936 50.496C141.054 51.042 140.064 51.315 138.965 51.315ZM134.775 45.855V44.3535H143.154V45.855H134.775Z" fill="white"/>
<path d="M129.661 37.6545V35.7225H131.53V37.6545H129.661ZM129.661 51V39.66H131.53V51H129.661Z" fill="white"/>
<path d="M125.062 51V35.565H126.931V51H125.062Z" fill="white"/>
<path d="M116.522 51.315C115.017 51.315 113.739 50.9825 112.689 50.3175C111.639 49.6525 110.838 48.7285 110.285 47.5455C109.739 46.3625 109.466 44.994 109.466 43.44C109.466 41.886 109.739 40.5175 110.285 39.3345C110.838 38.1515 111.639 37.2275 112.689 36.5625C113.739 35.8975 115.017 35.565 116.522 35.565C118.272 35.565 119.71 36.0095 120.837 36.8985C121.971 37.7875 122.752 38.9845 123.179 40.4895L121.278 40.9935C120.97 39.8665 120.421 38.9775 119.63 38.3265C118.839 37.6755 117.803 37.35 116.522 37.35C115.395 37.35 114.457 37.6055 113.708 38.1165C112.959 38.6275 112.395 39.3415 112.017 40.2585C111.639 41.1685 111.447 42.229 111.44 43.44C111.433 44.644 111.618 45.7045 111.996 46.6215C112.374 47.5315 112.941 48.2455 113.697 48.7635C114.453 49.2745 115.395 49.53 116.522 49.53C117.803 49.53 118.839 49.2045 119.63 48.5535C120.421 47.8955 120.97 47.0065 121.278 45.8865L123.179 46.3905C122.752 47.8885 121.971 49.0855 120.837 49.9815C119.71 50.8705 118.272 51.315 116.522 51.315Z" fill="white"/>
<path d="M99.0838 48.2175V44.2065H95.0728V42.663H99.0838V38.6625H100.627V42.663H104.628V44.2065H100.627V48.2175H99.0838Z" fill="white"/>
<path d="M91.2984 51L91.3089 43.7445C91.3089 42.8975 91.0814 42.236 90.6264 41.76C90.1784 41.277 89.5939 41.0355 88.8729 41.0355C88.4529 41.0355 88.0539 41.1335 87.6759 41.3295C87.2979 41.5185 86.9899 41.8195 86.7519 42.2325C86.5139 42.6385 86.3949 43.16 86.3949 43.797L85.4079 43.398C85.3939 42.593 85.5584 41.8895 85.9014 41.2875C86.2514 40.6785 86.7274 40.206 87.3294 39.87C87.9314 39.534 88.6104 39.366 89.3664 39.366C90.5494 39.366 91.4804 39.7265 92.1594 40.4475C92.8384 41.1615 93.1779 42.124 93.1779 43.335L93.1674 51H91.2984ZM77.7324 51V39.66H79.4019V42.6945H79.6119V51H77.7324ZM84.5259 51L84.5364 43.818C84.5364 42.95 84.3124 42.271 83.8644 41.781C83.4164 41.284 82.8214 41.0355 82.0794 41.0355C81.3444 41.0355 80.7494 41.2875 80.2944 41.7915C79.8394 42.2955 79.6119 42.964 79.6119 43.797L78.6249 43.209C78.6249 42.474 78.7999 41.816 79.1499 41.235C79.4999 40.654 79.9759 40.199 80.5779 39.87C81.1799 39.534 81.8624 39.366 82.6254 39.366C83.3884 39.366 84.0534 39.527 84.6204 39.849C85.1874 40.171 85.6249 40.633 85.9329 41.235C86.2409 41.83 86.3949 42.5405 86.3949 43.3665L86.3844 51H84.5259Z" fill="white"/>
<path d="M70.7077 51.294C69.9587 51.294 69.2622 51.1575 68.6182 50.8845C67.9742 50.6045 67.4177 50.2125 66.9487 49.7085C66.4867 49.1975 66.1472 48.592 65.9302 47.892L67.7257 47.3775C67.9567 48.0775 68.3417 48.6095 68.8807 48.9735C69.4197 49.3375 70.0252 49.516 70.6972 49.509C71.3132 49.495 71.8452 49.355 72.2932 49.089C72.7482 48.816 73.0982 48.445 73.3432 47.976C73.5952 47.507 73.7212 46.9645 73.7212 46.3485C73.7212 45.4105 73.4412 44.651 72.8812 44.07C72.3212 43.482 71.5862 43.188 70.6762 43.188C70.4242 43.188 70.1582 43.223 69.8782 43.293C69.6052 43.363 69.3497 43.461 69.1117 43.587L68.2087 42.1065L73.8157 37.035L74.0572 37.665H66.5287V35.88H75.4432V37.6755L70.6657 42.2535L70.6447 41.592C71.6457 41.522 72.5207 41.6865 73.2697 42.0855C74.0187 42.4845 74.5997 43.055 75.0127 43.797C75.4327 44.539 75.6427 45.3895 75.6427 46.3485C75.6427 47.3145 75.4257 48.1685 74.9917 48.9105C74.5577 49.6525 73.9697 50.237 73.2277 50.664C72.4857 51.084 71.6457 51.294 70.7077 51.294Z" fill="white"/>
<path d="M61.8662 51V48.942H63.9242V51H61.8662Z" fill="white"/>
<path d="M57.1053 51V37.9485L54.2598 39.6705V37.581L57.1053 35.88H59.0058V51H57.1053Z" fill="white"/>
</svg>
