<svg width="265" height="66" viewBox="0 0 265 66" fill="none" xmlns="http://www.w3.org/2000/svg">
<path d="M19 26C19 23.7909 20.7909 22 23 22H243C255.15 22 265 31.8497 265 44C265 56.1503 255.15 66 243 66H59C36.9086 66 19 48.0914 19 26Z" fill="#00D9B2"/>
<path d="M0 0L9.25765 20L10.7194 11L19.4898 9.5L0 0Z" fill="#00D9B2"/>
<path d="M245.666 50V38.12H247.415V40.991L247.129 40.617C247.268 40.2503 247.448 39.913 247.668 39.605C247.895 39.297 248.148 39.044 248.427 38.846C248.735 38.5966 249.083 38.406 249.472 38.274C249.861 38.142 250.257 38.065 250.66 38.043C251.063 38.0136 251.441 38.0393 251.793 38.12V39.957C251.382 39.847 250.931 39.8177 250.44 39.869C249.949 39.9203 249.494 40.1 249.076 40.408C248.695 40.6793 248.398 41.0093 248.185 41.398C247.98 41.7866 247.837 42.2083 247.756 42.663C247.675 43.1103 247.635 43.5687 247.635 44.038V50H245.666Z" fill="white"/>
<path d="M238.036 50.33C236.87 50.33 235.851 50.0734 234.978 49.56C234.113 49.0394 233.438 48.317 232.954 47.393C232.47 46.4617 232.228 45.3764 232.228 44.137C232.228 42.839 232.466 41.717 232.943 40.771C233.42 39.8177 234.083 39.0844 234.934 38.571C235.792 38.0504 236.797 37.79 237.948 37.79C239.143 37.79 240.159 38.065 240.995 38.615C241.838 39.165 242.469 39.9497 242.887 40.969C243.312 41.9884 243.496 43.202 243.437 44.61H241.457V43.906C241.435 42.4467 241.138 41.3577 240.566 40.639C239.994 39.913 239.143 39.55 238.014 39.55C236.804 39.55 235.884 39.9387 235.253 40.716C234.622 41.4934 234.307 42.608 234.307 44.06C234.307 45.4607 234.622 46.546 235.253 47.316C235.884 48.086 236.782 48.471 237.948 48.471C238.733 48.471 239.415 48.2914 239.994 47.932C240.573 47.5727 241.028 47.0557 241.358 46.381L243.239 47.03C242.777 48.0787 242.08 48.8927 241.149 49.472C240.225 50.044 239.187 50.33 238.036 50.33ZM233.647 44.61V43.037H242.425V44.61H233.647Z" fill="white"/>
<path d="M231.19 50.0001C230.486 50.1394 229.79 50.1944 229.1 50.1651C228.418 50.1431 227.81 50.0074 227.274 49.7581C226.739 49.5014 226.332 49.1054 226.053 48.5701C225.819 48.1007 225.69 47.6277 225.668 47.1511C225.654 46.6671 225.646 46.1207 225.646 45.5121V34.8201H227.604V45.4241C227.604 45.9081 227.608 46.3224 227.615 46.6671C227.63 47.0117 227.707 47.3087 227.846 47.5581C228.11 48.0274 228.528 48.3024 229.1 48.3831C229.68 48.4637 230.376 48.4417 231.19 48.3171V50.0001ZM223.237 39.7371V38.1201H231.19V39.7371H223.237Z" fill="white"/>
<path d="M217.599 50.319C216.184 50.319 215.022 50.011 214.112 49.395C213.21 48.7717 212.657 47.9027 212.451 46.788L214.453 46.469C214.615 47.1144 214.985 47.6277 215.564 48.009C216.143 48.383 216.862 48.57 217.72 48.57C218.534 48.57 219.172 48.4014 219.634 48.064C220.096 47.7267 220.327 47.2684 220.327 46.689C220.327 46.3517 220.25 46.0804 220.096 45.875C219.942 45.6624 219.623 45.4644 219.139 45.281C218.662 45.0977 217.94 44.8777 216.972 44.621C215.924 44.3424 215.098 44.0527 214.497 43.752C213.896 43.4514 213.467 43.103 213.21 42.707C212.954 42.311 212.825 41.8307 212.825 41.266C212.825 40.5694 213.016 39.9607 213.397 39.44C213.779 38.912 214.31 38.505 214.992 38.219C215.682 37.933 216.481 37.79 217.39 37.79C218.292 37.79 219.099 37.933 219.81 38.219C220.521 38.505 221.094 38.912 221.526 39.44C221.966 39.9607 222.227 40.5694 222.307 41.266L220.305 41.629C220.21 40.991 219.902 40.4887 219.381 40.122C218.868 39.7554 218.204 39.561 217.39 39.539C216.62 39.5097 215.993 39.6454 215.509 39.946C215.033 40.2467 214.794 40.6537 214.794 41.167C214.794 41.453 214.882 41.6987 215.058 41.904C215.241 42.1094 215.575 42.3037 216.059 42.487C216.551 42.6704 217.262 42.8794 218.193 43.114C219.242 43.378 220.067 43.6677 220.668 43.983C221.277 44.291 221.71 44.6577 221.966 45.083C222.223 45.501 222.351 46.018 222.351 46.634C222.351 47.778 221.929 48.68 221.086 49.34C220.243 49.9927 219.081 50.319 217.599 50.319Z" fill="white"/>
<path d="M204.333 50.33C203.446 50.33 202.701 50.1687 202.1 49.846C201.506 49.516 201.055 49.0834 200.747 48.548C200.446 48.0127 200.296 47.426 200.296 46.788C200.296 46.1647 200.413 45.6257 200.648 45.171C200.89 44.709 201.227 44.3277 201.66 44.027C202.093 43.719 202.61 43.477 203.211 43.301C203.776 43.147 204.406 43.015 205.103 42.905C205.807 42.7877 206.518 42.6814 207.237 42.586C207.956 42.4907 208.627 42.399 209.25 42.311L208.546 42.718C208.568 41.662 208.355 40.881 207.908 40.375C207.468 39.869 206.705 39.616 205.62 39.616C204.901 39.616 204.271 39.781 203.728 40.111C203.193 40.4337 202.815 40.9617 202.595 41.695L200.736 41.134C201.022 40.0927 201.576 39.275 202.397 38.681C203.218 38.087 204.3 37.79 205.642 37.79C206.72 37.79 207.644 37.9844 208.414 38.373C209.191 38.7544 209.749 39.3337 210.086 40.111C210.255 40.4777 210.361 40.8774 210.405 41.31C210.449 41.7354 210.471 42.1827 210.471 42.652V50H208.733V47.151L209.14 47.415C208.693 48.3757 208.066 49.1017 207.259 49.593C206.46 50.0844 205.484 50.33 204.333 50.33ZM204.63 48.691C205.334 48.691 205.943 48.5664 206.456 48.317C206.977 48.0604 207.395 47.7267 207.71 47.316C208.025 46.898 208.231 46.4434 208.326 45.952C208.436 45.5854 208.495 45.1784 208.502 44.731C208.517 44.2764 208.524 43.928 208.524 43.686L209.206 43.983C208.568 44.071 207.941 44.1554 207.325 44.236C206.709 44.3167 206.126 44.4047 205.576 44.5C205.026 44.588 204.531 44.6944 204.091 44.819C203.768 44.9217 203.464 45.0537 203.178 45.215C202.899 45.3764 202.672 45.5854 202.496 45.842C202.327 46.0914 202.243 46.403 202.243 46.777C202.243 47.0997 202.324 47.4077 202.485 47.701C202.654 47.9944 202.91 48.2327 203.255 48.416C203.607 48.5994 204.065 48.691 204.63 48.691Z" fill="white"/>
<path d="M182.571 50.0002V34.1602H184.353L190.337 46.7772L196.288 34.1602H198.092V49.9892H196.233V38.4612L190.854 50.0002H189.809L184.43 38.4612V50.0002H182.571Z" fill="white"/>
<path d="M169.608 50.33C168.721 50.33 167.977 50.1687 167.375 49.846C166.781 49.516 166.33 49.0834 166.022 48.548C165.722 48.0127 165.571 47.426 165.571 46.788C165.571 46.1647 165.689 45.6257 165.923 45.171C166.165 44.709 166.503 44.3277 166.935 44.027C167.368 43.719 167.885 43.477 168.486 43.301C169.051 43.147 169.682 43.015 170.378 42.905C171.082 42.7877 171.794 42.6814 172.512 42.586C173.231 42.4907 173.902 42.399 174.525 42.311L173.821 42.718C173.843 41.662 173.631 40.881 173.183 40.375C172.743 39.869 171.981 39.616 170.895 39.616C170.177 39.616 169.546 39.781 169.003 40.111C168.468 40.4337 168.09 40.9617 167.87 41.695L166.011 41.134C166.297 40.0927 166.851 39.275 167.672 38.681C168.494 38.087 169.575 37.79 170.917 37.79C171.995 37.79 172.919 37.9844 173.689 38.373C174.467 38.7544 175.024 39.3337 175.361 40.111C175.53 40.4777 175.636 40.8774 175.68 41.31C175.724 41.7354 175.746 42.1827 175.746 42.652V50H174.008V47.151L174.415 47.415C173.968 48.3757 173.341 49.1017 172.534 49.593C171.735 50.0844 170.76 50.33 169.608 50.33ZM169.905 48.691C170.609 48.691 171.218 48.5664 171.731 48.317C172.252 48.0604 172.67 47.7267 172.985 47.316C173.301 46.898 173.506 46.4434 173.601 45.952C173.711 45.5854 173.77 45.1784 173.777 44.731C173.792 44.2764 173.799 43.928 173.799 43.686L174.481 43.983C173.843 44.071 173.216 44.1554 172.6 44.236C171.984 44.3167 171.401 44.4047 170.851 44.5C170.301 44.588 169.806 44.6944 169.366 44.819C169.044 44.9217 168.739 45.0537 168.453 45.215C168.175 45.3764 167.947 45.5854 167.771 45.842C167.603 46.0914 167.518 46.403 167.518 46.777C167.518 47.0997 167.599 47.4077 167.76 47.701C167.929 47.9944 168.186 48.2327 168.53 48.416C168.882 48.5994 169.341 48.691 169.905 48.691Z" fill="white"/>
<path d="M161.193 36.0191V33.9951H163.151V36.0191H161.193ZM161.193 50.0001V38.1201H163.151V50.0001H161.193Z" fill="white"/>
<path d="M152.644 50.3302C151.536 50.3302 150.587 50.0552 149.795 49.5052C149.003 48.9478 148.39 48.1962 147.958 47.2502C147.532 46.3042 147.32 45.2372 147.32 44.0492C147.32 42.8612 147.532 41.7942 147.958 40.8482C148.39 39.9022 149.003 39.1578 149.795 38.6152C150.587 38.0652 151.533 37.7902 152.633 37.7902C153.755 37.7902 154.697 38.0615 155.46 38.6042C156.222 39.1468 156.798 39.8912 157.187 40.8372C157.583 41.7832 157.781 42.8538 157.781 44.0492C157.781 45.2298 157.583 46.2968 157.187 47.2502C156.798 48.1962 156.222 48.9478 155.46 49.5052C154.697 50.0552 153.758 50.3302 152.644 50.3302ZM152.886 48.5372C153.685 48.5372 154.341 48.3465 154.855 47.9652C155.368 47.5765 155.746 47.0448 155.988 46.3702C156.237 45.6882 156.362 44.9145 156.362 44.0492C156.362 43.1692 156.237 42.3955 155.988 41.7282C155.746 41.0535 155.372 40.5292 154.866 40.1552C154.36 39.7738 153.718 39.5832 152.941 39.5832C152.134 39.5832 151.467 39.7812 150.939 40.1772C150.418 40.5732 150.029 41.1085 149.773 41.7832C149.523 42.4578 149.399 43.2132 149.399 44.0492C149.399 44.8925 149.527 45.6552 149.784 46.3372C150.04 47.0118 150.425 47.5472 150.939 47.9432C151.459 48.3392 152.108 48.5372 152.886 48.5372ZM156.362 50.0002V41.2552H156.142V34.1602H158.111V50.0002H156.362Z" fill="white"/>
<path d="M140.35 50.33C139.184 50.33 138.165 50.0734 137.292 49.56C136.427 49.0394 135.752 48.317 135.268 47.393C134.784 46.4617 134.542 45.3764 134.542 44.137C134.542 42.839 134.78 41.717 135.257 40.771C135.734 39.8177 136.397 39.0844 137.248 38.571C138.106 38.0504 139.111 37.79 140.262 37.79C141.457 37.79 142.473 38.065 143.309 38.615C144.152 39.165 144.783 39.9497 145.201 40.969C145.626 41.9884 145.81 43.202 145.751 44.61H143.771V43.906C143.749 42.4467 143.452 41.3577 142.88 40.639C142.308 39.913 141.457 39.55 140.328 39.55C139.118 39.55 138.198 39.9387 137.567 40.716C136.936 41.4934 136.621 42.608 136.621 44.06C136.621 45.4607 136.936 46.546 137.567 47.316C138.198 48.086 139.096 48.471 140.262 48.471C141.047 48.471 141.729 48.2914 142.308 47.932C142.887 47.5727 143.342 47.0557 143.672 46.381L145.553 47.03C145.091 48.0787 144.394 48.8927 143.463 49.472C142.539 50.044 141.501 50.33 140.35 50.33ZM135.961 44.61V43.037H144.739V44.61H135.961Z" fill="white"/>
<path d="M116.816 50.0002V34.1602H118.598L124.582 46.7772L130.533 34.1602H132.337V49.9892H130.478V38.4612L125.099 50.0002H124.054L118.675 38.4612V50.0002H116.816Z" fill="white"/>
<path d="M107.594 50.0001V33.8301H109.552V50.0001H107.594Z" fill="white"/>
<path d="M98.5956 50.33C97.7083 50.33 96.9639 50.1687 96.3626 49.846C95.7686 49.516 95.3176 49.0834 95.0096 48.548C94.7089 48.0127 94.5586 47.426 94.5586 46.788C94.5586 46.1647 94.6759 45.6257 94.9106 45.171C95.1526 44.709 95.4899 44.3277 95.9226 44.027C96.3553 43.719 96.8723 43.477 97.4736 43.301C98.0383 43.147 98.6689 43.015 99.3656 42.905C100.07 42.7877 100.781 42.6814 101.5 42.586C102.218 42.4907 102.889 42.399 103.513 42.311L102.809 42.718C102.831 41.662 102.618 40.881 102.171 40.375C101.731 39.869 100.968 39.616 99.8826 39.616C99.1639 39.616 98.5333 39.781 97.9906 40.111C97.4553 40.4337 97.0776 40.9617 96.8576 41.695L94.9986 41.134C95.2846 40.0927 95.8383 39.275 96.6596 38.681C97.4809 38.087 98.5626 37.79 99.9046 37.79C100.983 37.79 101.907 37.9844 102.677 38.373C103.454 38.7544 104.011 39.3337 104.349 40.111C104.517 40.4777 104.624 40.8774 104.668 41.31C104.712 41.7354 104.734 42.1827 104.734 42.652V50H102.996V47.151L103.403 47.415C102.955 48.3757 102.328 49.1017 101.522 49.593C100.722 50.0844 99.7469 50.33 98.5956 50.33ZM98.8926 48.691C99.5966 48.691 100.205 48.5664 100.719 48.317C101.239 48.0604 101.657 47.7267 101.973 47.316C102.288 46.898 102.493 46.4434 102.589 45.952C102.699 45.5854 102.757 45.1784 102.765 44.731C102.779 44.2764 102.787 43.928 102.787 43.686L103.469 43.983C102.831 44.071 102.204 44.1554 101.588 44.236C100.972 44.3167 100.389 44.4047 99.8386 44.5C99.2886 44.588 98.7936 44.6944 98.3536 44.819C98.0309 44.9217 97.7266 45.0537 97.4406 45.215C97.1619 45.3764 96.9346 45.5854 96.7586 45.842C96.5899 46.0914 96.5056 46.403 96.5056 46.777C96.5056 47.0997 96.5863 47.4077 96.7476 47.701C96.9163 47.9944 97.1729 48.2327 97.5176 48.416C97.8696 48.5994 98.3279 48.691 98.8926 48.691Z" fill="white"/>
<path d="M90.1802 36.0191V33.9951H92.1382V36.0191H90.1802ZM90.1802 50.0001V38.1201H92.1382V50.0001H90.1802Z" fill="white"/>
<path d="M83.1753 50.33C81.9726 50.33 80.9496 50.0624 80.1063 49.527C79.2703 48.9844 78.6323 48.24 78.1923 47.294C77.7523 46.348 77.5249 45.27 77.5103 44.06C77.5249 42.8207 77.7559 41.7317 78.2033 40.793C78.6579 39.847 79.3069 39.11 80.1503 38.582C80.9936 38.054 82.0093 37.79 83.1973 37.79C84.4513 37.79 85.5293 38.098 86.4313 38.714C87.3406 39.33 87.9493 40.1734 88.2573 41.244L86.3213 41.827C86.0719 41.1377 85.6649 40.6024 85.1003 40.221C84.5429 39.8397 83.9013 39.649 83.1753 39.649C82.3613 39.649 81.6903 39.8397 81.1623 40.221C80.6343 40.595 80.2419 41.1157 79.9853 41.783C79.7286 42.443 79.5966 43.202 79.5893 44.06C79.6039 45.38 79.9083 46.447 80.5023 47.261C81.1036 48.0677 81.9946 48.471 83.1753 48.471C83.9526 48.471 84.5979 48.295 85.1113 47.943C85.6246 47.5837 86.0133 47.0667 86.2773 46.392L88.2573 46.909C87.8466 48.0164 87.2049 48.8634 86.3323 49.45C85.4596 50.0367 84.4073 50.33 83.1753 50.33Z" fill="white"/>
<path d="M70.2376 50.33C69.0569 50.33 68.0376 50.0624 67.1796 49.527C66.3289 48.9917 65.6726 48.251 65.2106 47.305C64.7486 46.359 64.5176 45.2737 64.5176 44.049C64.5176 42.8024 64.7522 41.7097 65.2216 40.771C65.6909 39.8324 66.3546 39.1027 67.2126 38.582C68.0706 38.054 69.0789 37.79 70.2376 37.79C71.4256 37.79 72.4486 38.0577 73.3066 38.593C74.1646 39.121 74.8209 39.858 75.2756 40.804C75.7376 41.7427 75.9686 42.8244 75.9686 44.049C75.9686 45.2884 75.7376 46.381 75.2756 47.327C74.8136 48.2657 74.1536 49.0027 73.2956 49.538C72.4376 50.066 71.4182 50.33 70.2376 50.33ZM70.2376 48.471C71.4696 48.471 72.3862 48.0604 72.9876 47.239C73.5889 46.4177 73.8896 45.3544 73.8896 44.049C73.8896 42.707 73.5852 41.64 72.9766 40.848C72.3679 40.0487 71.4549 39.649 70.2376 39.649C69.4089 39.649 68.7269 39.836 68.1916 40.21C67.6562 40.584 67.2566 41.101 66.9926 41.761C66.7286 42.421 66.5966 43.1837 66.5966 44.049C66.5966 45.3837 66.9046 46.4544 67.5206 47.261C68.1366 48.0677 69.0422 48.471 70.2376 48.471Z" fill="white"/>
<path d="M57.161 50.33C56.039 50.33 55.027 50.1394 54.125 49.758C53.2304 49.3767 52.4897 48.834 51.903 48.13C51.3237 47.4187 50.946 46.579 50.77 45.611L52.794 45.292C53.0507 46.2894 53.5824 47.0704 54.389 47.635C55.203 48.1924 56.16 48.471 57.26 48.471C57.9714 48.471 58.613 48.361 59.185 48.141C59.7644 47.9137 60.2227 47.591 60.56 47.173C60.8974 46.755 61.066 46.26 61.066 45.688C61.066 45.336 61.0037 45.0354 60.879 44.786C60.7617 44.5294 60.5967 44.313 60.384 44.137C60.1787 43.9537 59.944 43.7997 59.68 43.675C59.416 43.5504 59.141 43.4477 58.855 43.367L54.818 42.168C54.378 42.036 53.9527 41.871 53.542 41.673C53.1314 41.4677 52.7647 41.2147 52.442 40.914C52.1194 40.606 51.8627 40.2394 51.672 39.814C51.4814 39.3814 51.386 38.8717 51.386 38.285C51.386 37.3464 51.628 36.547 52.112 35.887C52.6034 35.2197 53.267 34.71 54.103 34.358C54.939 34.006 55.8814 33.8337 56.93 33.841C57.9934 33.8484 58.943 34.039 59.779 34.413C60.6224 34.7797 61.319 35.3077 61.869 35.997C62.4264 36.6864 62.8004 37.5114 62.991 38.472L60.912 38.835C60.802 38.1897 60.5564 37.636 60.175 37.174C59.801 36.7047 59.3317 36.3454 58.767 36.096C58.2024 35.8394 57.5827 35.7074 56.908 35.7C56.2627 35.6927 55.6797 35.7954 55.159 36.008C54.6384 36.2207 54.224 36.5177 53.916 36.899C53.608 37.273 53.454 37.7057 53.454 38.197C53.454 38.681 53.5934 39.0734 53.872 39.374C54.1507 39.6674 54.4917 39.902 54.895 40.078C55.3057 40.2467 55.7054 40.386 56.094 40.496L59.108 41.365C59.4527 41.4604 59.8487 41.5924 60.296 41.761C60.7507 41.9297 61.1907 42.168 61.616 42.476C62.0414 42.7767 62.3934 43.18 62.672 43.686C62.9507 44.1847 63.09 44.8154 63.09 45.578C63.09 46.3407 62.936 47.019 62.628 47.613C62.3274 48.207 61.9057 48.7057 61.363 49.109C60.8204 49.505 60.1897 49.8057 59.471 50.011C58.7524 50.2237 57.9824 50.33 57.161 50.33Z" fill="white"/>
</svg>
