<svg width="106" height="100" viewBox="0 0 106 100" fill="none" xmlns="http://www.w3.org/2000/svg">
<path fill-rule="evenodd" clip-rule="evenodd" d="M36.6309 46.4314L29.0964 49.7999C31.4642 48.2662 33.9869 47.1633 36.6309 46.4314ZM51.1118 35.2179C48.3447 36.8109 45.561 38.3021 42.9666 40.1555C45.2986 37.7756 48.1778 36.4117 51.1118 35.2179ZM50.8843 46.6754C51.6125 47.474 50.9248 47.9012 50.3149 48.317C48.2535 49.7242 46.1949 49.3177 44.2331 48.9097C42.8032 48.6125 41.3794 48.1198 40.3856 47.0263C40.0065 46.6096 39.8384 46.1605 40.7298 45.9094C43.1636 45.2239 45.5819 44.868 47.951 45.3173C49.0797 45.5314 50.1053 45.9537 50.8843 46.6754ZM43.8228 41.1047C45.2741 39.705 47.0435 38.7883 48.7728 37.8312C56.2452 33.6961 64.0748 31.9497 72.1206 31.4403C77.4952 31.1002 82.7815 31.2677 88.0471 31.6216C88.5276 31.6535 89.0096 31.705 89.4954 31.4845C90.0411 31.2366 90.3177 30.9384 89.6737 30.6171C89.5154 30.5375 89.218 30.5953 89.422 30.2873C90.1253 29.2244 89.3563 28.8582 88.7204 28.4689C87.5275 27.7378 86.0613 27.6264 84.6774 27.3847C80.8003 26.7073 76.8735 26.1783 72.8403 26.1745C69.0961 26.1713 65.3206 26.7065 61.5485 27.3444C59.1473 27.7504 56.7062 28.1957 54.4975 29.3727C53.0302 30.1545 51.4798 30.373 50.0376 31.1238C47.2728 32.5634 44.5308 34.0244 42.061 36.0031C40.0285 37.6319 38.4857 39.5972 37.5393 41.9437C37.2275 42.7174 36.7192 43.2016 35.9713 43.499C33.9557 44.3012 31.9517 45.1666 29.9725 46.05C26.7521 47.4865 23.7119 49.393 20.7509 51.3936C16.0283 54.5844 11.6341 58.1589 8.04749 62.637C5.93951 65.2689 4.01826 67.9768 3.60679 71.2784C3.49841 72.1476 3.55693 72.9495 4.15035 73.5742C4.40575 73.8438 4.69224 73.9654 5.10655 73.8065C5.59605 73.6181 5.42673 73.3614 5.41212 73.0028C5.31112 70.5435 7.00015 68.7164 8.48217 66.8413C12.5662 61.6736 17.7524 57.8021 23.2242 54.2773C27.4116 51.5801 31.7738 49.279 36.3386 47.4511C36.7011 47.3059 37.0737 46.9616 37.2462 47.619C37.847 49.9096 39.4077 51.4152 41.4516 52.4163C44.6063 53.9618 47.9856 54.4883 51.6573 52.5847C53.6303 51.562 54.3019 50.1512 54.1863 48.1111C53.8927 42.9136 49.6519 40.7863 45.1535 41.2452C44.7506 41.2868 44.348 41.3281 43.9461 41.3694C43.9047 41.2811 43.8639 41.1927 43.8228 41.1047Z" fill="white"/>
<path fill-rule="evenodd" clip-rule="evenodd" d="M93.6037 34.7532C95.9537 33.6023 98.3679 32.7701 100.875 32.4062C98.4512 33.1885 96.0275 33.9706 93.6037 34.7532ZM91.3754 24.3577C92.9703 26.0724 94.8739 27.4479 96.7078 28.9005C96.9819 29.1176 97.4407 29.2129 97.2691 29.7659C97.1042 30.2971 96.634 30.3191 96.2703 30.3935C94.2878 30.801 92.4609 31.7471 90.5702 32.4952C89.3757 32.9674 88.1104 33.2313 86.8933 33.7516C85.0196 34.5533 83.1008 35.2245 81.1901 35.9041C80.2219 36.2487 79.4002 37.0066 78.2951 37.0089C77.211 37.0113 76.6931 37.7572 76.7331 39.3146C76.7533 40.1095 77.134 40.8565 78.1687 40.713C79.0195 40.5949 79.8846 40.4107 80.7165 40.1336C86.2215 38.2994 91.7171 36.4232 97.2207 34.5831C98.456 34.1699 99.7101 33.8353 100.958 33.4788C103.226 32.8309 103.72 32.0296 103.325 29.8654C103.019 28.1855 102.116 27.0578 100.64 26.2846C97.7987 24.796 95.0116 23.2212 92.5694 21.1814C92.0801 20.7725 91.6595 20.288 91.1884 19.8575C90.6435 19.3584 90.2238 19.479 89.9693 20.2811C89.4044 22.0587 89.5169 22.3899 91.3754 24.3577Z" fill="white"/>
</svg>
