<svg width="770" height="654" viewBox="0 0 770 654" fill="none" xmlns="http://www.w3.org/2000/svg">
<path d="M741.873 639.055L741.872 639.054L739.6 638.178C739.599 638.178 739.599 638.178 739.599 638.178C739.12 637.992 738.872 637.442 739.067 636.938L739.067 636.938L739.07 636.928C739.155 636.702 739.351 636.506 739.605 636.403L741.872 635.528L741.873 635.528C746.586 633.705 750.301 629.989 752.125 625.276L752.125 625.275L753.002 623.003C753.002 623.003 753.002 623.003 753.002 623.003C753.187 622.523 753.738 622.275 754.242 622.47L754.242 622.47L754.252 622.474C754.478 622.559 754.674 622.755 754.777 623.008L755.651 625.275L755.651 625.276C757.475 629.989 761.19 633.705 765.903 635.528L765.904 635.528L768.177 636.405C768.177 636.405 768.177 636.405 768.177 636.405C768.656 636.591 768.904 637.141 768.709 637.645L768.709 637.645L768.706 637.655C768.621 637.881 768.425 638.077 768.171 638.18L765.904 639.054L765.903 639.055C761.19 640.878 757.475 644.594 755.651 649.306L755.651 649.307L754.774 651.58C754.589 652.06 754.039 652.308 753.534 652.113L753.534 652.113L753.525 652.109C753.298 652.024 753.102 651.828 752.999 651.574L752.125 649.307L752.125 649.306C750.301 644.594 746.586 640.878 741.873 639.055Z" stroke="#F5E900" stroke-width="2"/>
<path d="M16.0439 14.1553C15.4022 14.1553 14.8979 13.6511 14.8979 13.0093V1.54932C14.8979 0.90756 15.4022 0.40332 16.0439 0.40332C16.6857 0.40332 17.1899 0.90756 17.1899 1.54932V13.0093C17.1899 13.6511 16.6857 14.1553 16.0439 14.1553Z" fill="white"/>
<path d="M16.0439 31.5745C15.4022 31.5745 14.8979 31.0703 14.8979 30.4285V18.9685C14.8979 18.3267 15.4022 17.8225 16.0439 17.8225C16.6857 17.8225 17.1899 18.3267 17.1899 18.9685V30.4285C17.1899 31.0703 16.6857 31.5745 16.0439 31.5745Z" fill="white"/>
<path d="M12.606 16.6765H1.146C0.50424 16.6765 0 16.1723 0 15.5305C0 14.8888 0.50424 14.3845 1.146 14.3845H12.606C13.2478 14.3845 13.752 14.8888 13.752 15.5305C13.752 16.1723 13.2478 16.6765 12.606 16.6765Z" fill="white"/>
<path d="M30.9419 16.6765H19.4819C18.8402 16.6765 18.3359 16.1723 18.3359 15.5305C18.3359 14.8888 18.8402 14.3845 19.4819 14.3845H30.9419C31.5837 14.3845 32.0879 14.8888 32.0879 15.5305C32.0879 16.1723 31.5837 16.6765 30.9419 16.6765Z" fill="white"/>
</svg>
