<svg width="89" height="88" viewBox="0 0 89 88" fill="none" xmlns="http://www.w3.org/2000/svg">
<path d="M44.6574 87.6787C56.2844 87.6787 67.4353 83.0599 75.6568 74.8383C83.8784 66.6168 88.4972 55.466 88.4972 43.8389C88.4972 32.2119 83.8784 21.0611 75.6568 12.8395C67.4353 4.61797 56.2845 -0.000854145 44.6574 -0.000856408L44.6574 43.8389L44.6574 87.6787Z" fill="#F2E03D"/>
<path d="M0.884071 87.6783C12.5229 87.6783 23.685 83.0712 31.9148 74.8704C40.1447 66.6696 44.7682 55.5469 44.7682 43.9493C44.7682 32.3516 40.1447 21.2289 31.9148 13.0282C23.685 4.82737 12.5229 0.220215 0.884083 0.220213L0.884073 43.9493L0.884071 87.6783Z" fill="#FF7035"/>
</svg>
