<svg width="164" height="66" viewBox="0 0 164 66" fill="none" xmlns="http://www.w3.org/2000/svg">
<path d="M19 26C19 23.7909 20.7909 22 23 22H142C154.15 22 164 31.8497 164 44C164 56.1503 154.15 66 142 66H59C36.9086 66 19 48.0914 19 26Z" fill="#FF4BD8"/>
<path d="M0 0L9.25765 20L10.7194 11L19.4898 9.5L0 0Z" fill="#FF4BD8"/>
<path d="M131.345 50.0002V34.1602H133.303V50.0002H131.345Z" fill="white"/>
<path d="M116.044 50.0002L121.346 34.1602H124.074L129.376 50.0002H127.341L122.38 35.3042H122.996L118.079 50.0002H116.044ZM118.596 46.2932V44.4562H126.824V46.2932H118.596Z" fill="white"/>
<path d="M110.767 49.9998C110.063 50.1392 109.367 50.1942 108.677 50.1648C107.995 50.1428 107.387 50.0072 106.851 49.7578C106.316 49.5012 105.909 49.1052 105.63 48.5698C105.396 48.1005 105.267 47.6275 105.245 47.1508C105.231 46.6668 105.223 46.1205 105.223 45.5118V34.8198H107.181V45.4238C107.181 45.9078 107.185 46.3222 107.192 46.6668C107.207 47.0115 107.284 47.3085 107.423 47.5578C107.687 48.0272 108.105 48.3022 108.677 48.3828C109.257 48.4635 109.953 48.4415 110.767 48.3168V49.9998ZM102.814 39.7368V38.1198H110.767V39.7368H102.814Z" fill="white"/>
<path d="M96.1475 50V38.12H97.8965V40.991L97.6105 40.617C97.7498 40.2503 97.9295 39.913 98.1495 39.605C98.3768 39.297 98.6298 39.044 98.9085 38.846C99.2165 38.5966 99.5648 38.406 99.9535 38.274C100.342 38.142 100.738 38.065 101.141 38.043C101.545 38.0136 101.922 38.0393 102.274 38.12V39.957C101.864 39.847 101.413 39.8177 100.921 39.869C100.43 39.9203 99.9755 40.1 99.5575 40.408C99.1761 40.6793 98.8791 41.0093 98.6665 41.398C98.4611 41.7866 98.3181 42.2083 98.2375 42.663C98.1568 43.1103 98.1165 43.5687 98.1165 44.038V50H96.1475Z" fill="white"/>
<path d="M87.3695 50.33C86.4822 50.33 85.7379 50.1687 85.1365 49.846C84.5425 49.516 84.0915 49.0834 83.7835 48.548C83.4829 48.0127 83.3325 47.426 83.3325 46.788C83.3325 46.1647 83.4499 45.6257 83.6845 45.171C83.9265 44.709 84.2639 44.3277 84.6965 44.027C85.1292 43.719 85.6462 43.477 86.2475 43.301C86.8122 43.147 87.4429 43.015 88.1395 42.905C88.8435 42.7877 89.5549 42.6814 90.2735 42.586C90.9922 42.4907 91.6632 42.399 92.2865 42.311L91.5825 42.718C91.6045 41.662 91.3919 40.881 90.9445 40.375C90.5045 39.869 89.7419 39.616 88.6565 39.616C87.9379 39.616 87.3072 39.781 86.7645 40.111C86.2292 40.4337 85.8515 40.9617 85.6315 41.695L83.7725 41.134C84.0585 40.0927 84.6122 39.275 85.4335 38.681C86.2549 38.087 87.3365 37.79 88.6785 37.79C89.7565 37.79 90.6805 37.9844 91.4505 38.373C92.2279 38.7544 92.7852 39.3337 93.1225 40.111C93.2912 40.4777 93.3975 40.8774 93.4415 41.31C93.4855 41.7354 93.5075 42.1827 93.5075 42.652V50H91.7695V47.151L92.1765 47.415C91.7292 48.3757 91.1022 49.1017 90.2955 49.593C89.4962 50.0844 88.5209 50.33 87.3695 50.33ZM87.6665 48.691C88.3705 48.691 88.9792 48.5664 89.4925 48.317C90.0132 48.0604 90.4312 47.7267 90.7465 47.316C91.0619 46.898 91.2672 46.4434 91.3625 45.952C91.4725 45.5854 91.5312 45.1784 91.5385 44.731C91.5532 44.2764 91.5605 43.928 91.5605 43.686L92.2425 43.983C91.6045 44.071 90.9775 44.1554 90.3615 44.236C89.7455 44.3167 89.1625 44.4047 88.6125 44.5C88.0625 44.588 87.5675 44.6944 87.1275 44.819C86.8049 44.9217 86.5005 45.0537 86.2145 45.215C85.9359 45.3764 85.7085 45.5854 85.5325 45.842C85.3639 46.0914 85.2795 46.403 85.2795 46.777C85.2795 47.0997 85.3602 47.4077 85.5215 47.701C85.6902 47.9944 85.9469 48.2327 86.2915 48.416C86.6435 48.5994 87.1019 48.691 87.6665 48.691Z" fill="white"/>
<path d="M79.3785 50L79.3895 42.399C79.3895 41.5117 79.1512 40.8187 78.6745 40.32C78.2052 39.814 77.5928 39.561 76.8375 39.561C76.3975 39.561 75.9795 39.6637 75.5835 39.869C75.1875 40.067 74.8648 40.3823 74.6155 40.815C74.3662 41.2403 74.2415 41.7867 74.2415 42.454L73.2075 42.036C73.1928 41.1927 73.3652 40.4557 73.7245 39.825C74.0912 39.187 74.5898 38.692 75.2205 38.34C75.8512 37.988 76.5625 37.812 77.3545 37.812C78.5938 37.812 79.5692 38.1897 80.2805 38.945C80.9918 39.693 81.3475 40.7013 81.3475 41.97L81.3365 50H79.3785ZM65.1665 50V38.12H66.9155V41.299H67.1355V50H65.1665ZM72.2835 50L72.2945 42.476C72.2945 41.5667 72.0598 40.8553 71.5905 40.342C71.1212 39.8213 70.4978 39.561 69.7205 39.561C68.9505 39.561 68.3272 39.825 67.8505 40.353C67.3738 40.881 67.1355 41.5813 67.1355 42.454L66.1015 41.838C66.1015 41.068 66.2848 40.3787 66.6515 39.77C67.0182 39.1613 67.5168 38.6847 68.1475 38.34C68.7782 37.988 69.4932 37.812 70.2925 37.812C71.0918 37.812 71.7885 37.9807 72.3825 38.318C72.9765 38.6553 73.4348 39.1393 73.7575 39.77C74.0802 40.3933 74.2415 41.1377 74.2415 42.003L74.2305 50H72.2835Z" fill="white"/>
<path d="M57.161 50.33C56.039 50.33 55.027 50.1394 54.125 49.758C53.2304 49.3767 52.4897 48.834 51.903 48.13C51.3237 47.4187 50.946 46.579 50.77 45.611L52.794 45.292C53.0507 46.2894 53.5824 47.0704 54.389 47.635C55.203 48.1924 56.16 48.471 57.26 48.471C57.9714 48.471 58.613 48.361 59.185 48.141C59.7644 47.9137 60.2227 47.591 60.56 47.173C60.8974 46.755 61.066 46.26 61.066 45.688C61.066 45.336 61.0037 45.0354 60.879 44.786C60.7617 44.5294 60.5967 44.313 60.384 44.137C60.1787 43.9537 59.944 43.7997 59.68 43.675C59.416 43.5504 59.141 43.4477 58.855 43.367L54.818 42.168C54.378 42.036 53.9527 41.871 53.542 41.673C53.1314 41.4677 52.7647 41.2147 52.442 40.914C52.1194 40.606 51.8627 40.2394 51.672 39.814C51.4814 39.3814 51.386 38.8717 51.386 38.285C51.386 37.3464 51.628 36.547 52.112 35.887C52.6034 35.2197 53.267 34.71 54.103 34.358C54.939 34.006 55.8814 33.8337 56.93 33.841C57.9934 33.8484 58.943 34.039 59.779 34.413C60.6224 34.7797 61.319 35.3077 61.869 35.997C62.4264 36.6864 62.8004 37.5114 62.991 38.472L60.912 38.835C60.802 38.1897 60.5564 37.636 60.175 37.174C59.801 36.7047 59.3317 36.3454 58.767 36.096C58.2024 35.8394 57.5827 35.7074 56.908 35.7C56.2627 35.6927 55.6797 35.7954 55.159 36.008C54.6384 36.2207 54.224 36.5177 53.916 36.899C53.608 37.273 53.454 37.7057 53.454 38.197C53.454 38.681 53.5934 39.0734 53.872 39.374C54.1507 39.6674 54.4917 39.902 54.895 40.078C55.3057 40.2467 55.7054 40.386 56.094 40.496L59.108 41.365C59.4527 41.4604 59.8487 41.5924 60.296 41.761C60.7507 41.9297 61.1907 42.168 61.616 42.476C62.0414 42.7767 62.3934 43.18 62.672 43.686C62.9507 44.1847 63.09 44.8154 63.09 45.578C63.09 46.3407 62.936 47.019 62.628 47.613C62.3274 48.207 61.9057 48.7057 61.363 49.109C60.8204 49.505 60.1897 49.8057 59.471 50.011C58.7524 50.2237 57.9824 50.33 57.161 50.33Z" fill="white"/>
</svg>
