<svg width="158" height="282" viewBox="0 0 158 282" fill="none" xmlns="http://www.w3.org/2000/svg">
<path d="M148.299 260.86L132.311 264.869C131.974 264.96 131.666 265.137 131.418 265.383C131.171 265.629 130.992 265.936 130.9 266.273C130.807 266.61 130.805 266.965 130.892 267.303C130.98 267.641 131.155 267.95 131.399 268.2L143.377 280.178C143.627 280.422 143.936 280.597 144.274 280.685C144.612 280.772 144.967 280.77 145.304 280.677C145.641 280.585 145.948 280.406 146.194 280.159C146.44 279.911 146.617 279.603 146.708 279.266L150.717 263.278C150.799 262.944 150.793 262.595 150.701 262.264C150.608 261.933 150.432 261.631 150.189 261.388C149.946 261.145 149.644 260.969 149.313 260.876C148.982 260.784 148.633 260.778 148.299 260.86Z" fill="#FFCE52"/>
<path d="M31.5065 24.5024V10.4995C31.5058 9.88564 31.3438 9.28271 31.0366 8.75122C30.7293 8.21972 30.2878 7.77837 29.7561 7.47142L17.5036 0.469984C16.9714 0.162732 16.3677 0.000976562 15.7532 0.000976562C15.1387 0.000976562 14.535 0.162732 14.0029 0.469984L1.75036 7.47142C1.21871 7.77837 0.777125 8.21972 0.469904 8.75122C0.162683 9.28271 0.000629678 9.88564 0 10.4995V24.5024C0.000629678 25.1163 0.162683 25.7192 0.469904 26.2507C0.777125 26.7822 1.21871 27.2236 1.75036 27.5305L14.0029 34.532C14.535 34.8392 15.1387 35.001 15.7532 35.001C16.3677 35.001 16.9714 34.8392 17.5036 34.532L29.7561 27.5305C30.2878 27.2236 30.7293 26.7822 31.0366 26.2507C31.3438 25.7192 31.5058 25.1163 31.5065 24.5024Z" fill="#9441FF"/>
</svg>
