<svg width="106" height="224" viewBox="0 0 106 224" fill="none" xmlns="http://www.w3.org/2000/svg">
<path d="M67.6483 1C30.8393 1 1 12.1118 1 25.8189C1 39.526 30.8393 50.6379 67.6483 50.6379C88.277 50.6379 105 45.9341 105 40.1317C105 34.3293 88.277 29.6255 67.6483 29.6255C30.8393 29.6255 1 40.7373 1 54.4444C1 68.1516 30.8393 79.2637 67.6483 79.2637C88.277 79.2637 105 74.5598 105 68.7572C105 62.9548 88.277 58.251 67.6483 58.251C30.8393 58.251 1 69.4311 1 83.2222C1 97.0133 30.8393 108.194 67.6483 108.194C88.277 108.194 105 103.49 105 97.6871C105 91.8845 88.277 87.1814 67.6483 87.1814C30.8393 87.1814 1 98.2928 1 112C1 125.707 30.8393 136.819 67.6483 136.819C88.277 136.819 105 132.115 105 126.313C105 120.51 88.277 115.806 67.6483 115.806C30.8393 115.806 1 126.919 1 140.626C1 154.333 30.8393 165.444 67.6483 165.444C88.277 165.444 105 160.74 105 154.939C105 149.136 88.277 144.432 67.6483 144.432C30.8393 144.432 1 155.544 1 169.251C1 182.958 30.8393 194.07 67.6483 194.07C88.277 194.07 105 189.366 105 183.564C105 177.762 88.277 173.058 67.6483 173.058C30.8393 173.058 1 184.237 1 198.028C1 211.82 30.8393 223 67.6483 223" stroke="black" stroke-width="1.5" stroke-linecap="round"/>
</svg>
