<svg width="511" height="285" viewBox="0 0 511 285" fill="none" xmlns="http://www.w3.org/2000/svg">
<path d="M252.26 2.75696C254.128 1.16771 256.872 1.16771 258.74 2.75696L294.305 33.0183C295.669 34.1785 297.549 34.5211 299.234 33.9164L354.421 14.114C357.132 13.1412 360.102 14.6544 360.909 17.4195L370.291 49.5685C370.958 51.855 373.146 53.3534 375.519 53.1495L436.712 47.8929C440.554 47.5629 443.308 51.5227 441.661 55.0097L429.186 81.4253C427.757 84.4518 429.647 88.0007 432.956 88.5037L486.084 96.5786C490.553 97.2579 491.898 103.049 488.185 105.628L458.881 125.987C455.698 128.199 456.133 133.036 459.661 134.644L497.272 151.779C501.5 153.705 501.045 159.852 496.579 161.135L450.796 174.282C447.241 175.303 445.987 179.697 448.467 182.441L469.529 205.741C472.386 208.901 470.236 213.957 465.978 214.091L407.36 215.944C404.493 216.035 402.29 218.514 402.536 221.372L405.099 251.069C405.388 254.412 402.367 257.085 399.084 256.391L338.969 243.684C337.004 243.269 334.981 244.07 333.833 245.717L311.199 278.189C309.734 280.29 306.919 280.944 304.677 279.705L257.92 253.848C256.414 253.015 254.586 253.015 253.08 253.848L206.323 279.705C204.081 280.944 201.266 280.29 199.801 278.189L177.167 245.717C176.019 244.07 173.996 243.269 172.031 243.684L111.916 256.391C108.633 257.085 105.612 254.412 105.9 251.069L108.464 221.372C108.71 218.514 106.507 216.035 103.64 215.944L45.0219 214.091C40.7645 213.957 38.6143 208.9 41.4707 205.741L62.5327 182.441C65.0131 179.697 63.7588 175.303 60.2037 174.282L14.4205 161.135C9.9553 159.852 9.50004 153.705 13.7277 151.779L51.3386 134.644C54.8666 133.036 55.3024 128.199 52.1186 125.987L22.8149 105.628C19.1023 103.049 20.4471 97.2579 24.9165 96.5786L78.0437 88.5037C81.3527 88.0007 83.2428 84.4518 81.8135 81.4253L69.3388 55.0097C67.692 51.5227 70.4457 47.5629 74.2879 47.8929L135.481 53.1495C137.854 53.3534 140.042 51.855 140.709 49.5685L150.091 17.4195C150.898 14.6544 153.868 13.1412 156.579 14.114L211.766 33.9164C213.451 34.5211 215.331 34.1785 216.695 33.0183L252.26 2.75696Z" fill="black"/>
<path d="M253.914 4.53708C254.836 3.78001 256.164 3.78003 257.086 4.53707L258.673 2.60487L257.086 4.53708L292.76 33.8256C294.776 35.481 297.508 35.9697 299.973 35.1162L355.323 15.952C356.665 15.4875 358.123 16.2319 358.534 17.5907L367.875 48.4771C368.899 51.8625 372.149 54.0725 375.674 53.7804L436.806 48.7133C438.739 48.553 440.111 50.5609 439.258 52.3037L427.085 77.1747C424.852 81.7382 427.706 87.1551 432.733 87.8923L485.305 95.6025C487.568 95.9344 488.234 98.8791 486.335 100.153L457.833 119.26C452.919 122.554 453.575 129.975 458.991 132.355L495.746 148.513C497.899 149.459 497.674 152.583 495.408 153.211L450.388 165.686C444.955 167.192 443.063 173.928 446.917 178.042L467.377 199.881C468.848 201.451 467.779 204.023 465.628 204.089L407.306 205.868C402.993 205.999 399.68 209.734 400.065 214.032L402.591 242.276C402.74 243.943 401.241 245.283 399.601 244.949L339.389 232.668C336.501 232.079 333.536 233.236 331.811 235.625L309.151 266.993C308.419 268.007 307.05 268.323 305.947 267.735L259.031 242.7C256.824 241.523 254.176 241.523 251.969 242.7L205.053 267.735C203.95 268.323 202.581 268.007 201.849 266.993L179.189 235.625C177.464 233.236 174.499 232.079 171.611 232.668L111.399 244.949C109.759 245.283 108.26 243.943 108.409 242.276L110.935 214.032C111.32 209.734 108.007 205.999 103.694 205.868L45.3715 204.089C43.2205 204.023 42.152 201.451 43.6233 199.881L64.0829 178.042C67.937 173.928 66.0449 167.192 60.6124 165.686L15.5921 153.211C13.3264 152.583 13.1013 149.459 15.2536 148.513L52.0091 132.355C57.4248 129.975 58.081 122.554 53.1672 119.26L24.6654 100.153C22.7658 98.8791 23.4319 95.9344 25.6948 95.6025L78.2667 87.8923C83.2936 87.1551 86.1483 81.7382 83.9148 77.1747L71.7424 52.3037C70.8895 50.5609 72.2607 48.553 74.1944 48.7133L135.326 53.7804C138.851 54.0725 142.101 51.8625 143.125 48.4771L152.466 17.5907C152.877 16.2319 154.335 15.4875 155.677 15.952L211.027 35.1162C213.492 35.9697 216.224 35.481 218.24 33.8256L253.914 4.53708Z" fill="#FFCF25" stroke="black" stroke-width="5"/>
</svg>
