<svg width="229" height="66" viewBox="0 0 229 66" fill="none" xmlns="http://www.w3.org/2000/svg">
<path d="M19 26C19 23.7909 20.7909 22 23 22H207C219.15 22 229 31.8497 229 44C229 56.1503 219.15 66 207 66H59C36.9086 66 19 48.0914 19 26Z" fill="#FFCE20"/>
<path d="M0 0L9.25765 20L10.7194 11L19.4898 9.5L0 0Z" fill="#FFCE20"/>
<path d="M207.232 50V44.049C207.232 43.4843 207.18 42.9417 207.078 42.421C206.982 41.9003 206.81 41.4347 206.561 41.024C206.319 40.606 205.989 40.276 205.571 40.034C205.16 39.792 204.639 39.671 204.009 39.671C203.517 39.671 203.07 39.7553 202.667 39.924C202.271 40.0853 201.93 40.3347 201.644 40.672C201.358 41.0093 201.134 41.4347 200.973 41.948C200.819 42.454 200.742 43.0517 200.742 43.741L199.455 43.345C199.455 42.1937 199.66 41.2073 200.071 40.386C200.489 39.5573 201.072 38.923 201.82 38.483C202.575 38.0357 203.462 37.812 204.482 37.812C205.252 37.812 205.908 37.933 206.451 38.175C206.993 38.417 207.444 38.7397 207.804 39.143C208.163 39.539 208.445 39.9863 208.651 40.485C208.856 40.9763 208.999 41.4787 209.08 41.992C209.168 42.498 209.212 42.9783 209.212 43.433V50H207.232ZM198.762 50V38.12H200.522V41.299H200.742V50H198.762Z" fill="white"/>
<path d="M190.839 50.33C189.658 50.33 188.639 50.0624 187.781 49.527C186.93 48.9917 186.274 48.251 185.812 47.305C185.35 46.359 185.119 45.2737 185.119 44.049C185.119 42.8024 185.354 41.7097 185.823 40.771C186.292 39.8324 186.956 39.1027 187.814 38.582C188.672 38.054 189.68 37.79 190.839 37.79C192.027 37.79 193.05 38.0577 193.908 38.593C194.766 39.121 195.422 39.858 195.877 40.804C196.339 41.7427 196.57 42.8244 196.57 44.049C196.57 45.2884 196.339 46.381 195.877 47.327C195.415 48.2657 194.755 49.0027 193.897 49.538C193.039 50.066 192.02 50.33 190.839 50.33ZM190.839 48.471C192.071 48.471 192.988 48.0604 193.589 47.239C194.19 46.4177 194.491 45.3544 194.491 44.049C194.491 42.707 194.187 41.64 193.578 40.848C192.969 40.0487 192.056 39.649 190.839 39.649C190.01 39.649 189.328 39.836 188.793 40.21C188.258 40.584 187.858 41.101 187.594 41.761C187.33 42.421 187.198 43.1837 187.198 44.049C187.198 45.3837 187.506 46.4544 188.122 47.261C188.738 48.0677 189.644 48.471 190.839 48.471Z" fill="white"/>
<path d="M180.74 36.0191V33.9951H182.698V36.0191H180.74ZM180.74 50.0001V38.1201H182.698V50.0001H180.74Z" fill="white"/>
<path d="M178.328 49.9998C177.624 50.1392 176.927 50.1942 176.238 50.1648C175.556 50.1428 174.947 50.0072 174.412 49.7578C173.877 49.5012 173.47 49.1052 173.191 48.5698C172.956 48.1005 172.828 47.6275 172.806 47.1508C172.791 46.6668 172.784 46.1205 172.784 45.5118V34.8198H174.742V45.4238C174.742 45.9078 174.746 46.3222 174.753 46.6668C174.768 47.0115 174.845 47.3085 174.984 47.5578C175.248 48.0272 175.666 48.3022 176.238 48.3828C176.817 48.4635 177.514 48.4415 178.328 48.3168V49.9998ZM170.375 39.7368V38.1198H178.328V39.7368H170.375Z" fill="white"/>
<path d="M164.738 50.319C163.323 50.319 162.16 50.011 161.251 49.395C160.349 48.7717 159.795 47.9027 159.59 46.788L161.592 46.469C161.753 47.1144 162.124 47.6277 162.703 48.009C163.282 48.383 164.001 48.57 164.859 48.57C165.673 48.57 166.311 48.4014 166.773 48.064C167.235 47.7267 167.466 47.2684 167.466 46.689C167.466 46.3517 167.389 46.0804 167.235 45.875C167.081 45.6624 166.762 45.4644 166.278 45.281C165.801 45.0977 165.079 44.8777 164.111 44.621C163.062 44.3424 162.237 44.0527 161.636 43.752C161.035 43.4514 160.606 43.103 160.349 42.707C160.092 42.311 159.964 41.8307 159.964 41.266C159.964 40.5694 160.155 39.9607 160.536 39.44C160.917 38.912 161.449 38.505 162.131 38.219C162.82 37.933 163.62 37.79 164.529 37.79C165.431 37.79 166.238 37.933 166.949 38.219C167.66 38.505 168.232 38.912 168.665 39.44C169.105 39.9607 169.365 40.5694 169.446 41.266L167.444 41.629C167.349 40.991 167.041 40.4887 166.52 40.122C166.007 39.7554 165.343 39.561 164.529 39.539C163.759 39.5097 163.132 39.6454 162.648 39.946C162.171 40.2467 161.933 40.6537 161.933 41.167C161.933 41.453 162.021 41.6987 162.197 41.904C162.38 42.1094 162.714 42.3037 163.198 42.487C163.689 42.6704 164.401 42.8794 165.332 43.114C166.381 43.378 167.206 43.6677 167.807 43.983C168.416 44.291 168.848 44.6577 169.105 45.083C169.362 45.501 169.49 46.018 169.49 46.634C169.49 47.778 169.068 48.68 168.225 49.34C167.382 49.9927 166.219 50.319 164.738 50.319Z" fill="white"/>
<path d="M152.621 50.33C151.455 50.33 150.435 50.0734 149.562 49.56C148.697 49.0394 148.023 48.317 147.539 47.393C147.055 46.4617 146.812 45.3764 146.812 44.137C146.812 42.839 147.051 41.717 147.528 40.771C148.004 39.8177 148.668 39.0844 149.519 38.571C150.377 38.0504 151.381 37.79 152.533 37.79C153.728 37.79 154.744 38.065 155.58 38.615C156.423 39.165 157.054 39.9497 157.472 40.969C157.897 41.9884 158.08 43.202 158.022 44.61H156.042V43.906C156.02 42.4467 155.723 41.3577 155.151 40.639C154.579 39.913 153.728 39.55 152.599 39.55C151.389 39.55 150.468 39.9387 149.838 40.716C149.207 41.4934 148.892 42.608 148.892 44.06C148.892 45.4607 149.207 46.546 149.838 47.316C150.468 48.086 151.367 48.471 152.533 48.471C153.317 48.471 153.999 48.2914 154.579 47.932C155.158 47.5727 155.613 47.0557 155.943 46.381L157.824 47.03C157.362 48.0787 156.665 48.8927 155.734 49.472C154.81 50.044 153.772 50.33 152.621 50.33ZM148.232 44.61V43.037H157.01V44.61H148.232Z" fill="white"/>
<path d="M139.307 55.61C138.684 55.61 138.075 55.5147 137.481 55.324C136.887 55.1334 136.341 54.8437 135.842 54.455C135.351 54.0737 134.94 53.5897 134.61 53.003L136.403 52.057C136.696 52.6364 137.111 53.058 137.646 53.322C138.189 53.586 138.746 53.718 139.318 53.718C140.073 53.718 140.7 53.5787 141.199 53.3C141.698 53.0287 142.064 52.6217 142.299 52.079C142.541 51.5364 142.658 50.8617 142.651 50.055V46.81H142.882V38.12H144.62V50.077C144.62 50.3997 144.609 50.7114 144.587 51.012C144.572 51.3127 144.536 51.6097 144.477 51.903C144.323 52.7464 144.019 53.4394 143.564 53.982C143.109 54.532 142.523 54.939 141.804 55.203C141.085 55.4744 140.253 55.61 139.307 55.61ZM139.164 50.33C138.057 50.33 137.107 50.055 136.315 49.505C135.523 48.9477 134.911 48.196 134.478 47.25C134.053 46.304 133.84 45.237 133.84 44.049C133.84 42.861 134.053 41.794 134.478 40.848C134.911 39.902 135.523 39.1577 136.315 38.615C137.107 38.065 138.053 37.79 139.153 37.79C140.275 37.79 141.217 38.0614 141.98 38.604C142.743 39.1467 143.318 39.891 143.707 40.837C144.103 41.783 144.301 42.8537 144.301 44.049C144.301 45.2297 144.103 46.2967 143.707 47.25C143.318 48.196 142.743 48.9477 141.98 49.505C141.217 50.055 140.279 50.33 139.164 50.33ZM139.406 48.537C140.205 48.537 140.862 48.3464 141.375 47.965C141.888 47.5764 142.266 47.0447 142.508 46.37C142.757 45.688 142.882 44.9144 142.882 44.049C142.882 43.169 142.757 42.3954 142.508 41.728C142.266 41.0534 141.892 40.529 141.386 40.155C140.88 39.7737 140.238 39.583 139.461 39.583C138.654 39.583 137.987 39.781 137.459 40.177C136.938 40.573 136.55 41.1084 136.293 41.783C136.044 42.4577 135.919 43.213 135.919 44.049C135.919 44.8924 136.047 45.655 136.304 46.337C136.561 47.0117 136.946 47.547 137.459 47.943C137.98 48.339 138.629 48.537 139.406 48.537Z" fill="white"/>
<path d="M126.336 55.61C125.713 55.61 125.104 55.5147 124.51 55.324C123.916 55.1334 123.37 54.8437 122.871 54.455C122.38 54.0737 121.969 53.5897 121.639 53.003L123.432 52.057C123.725 52.6364 124.14 53.058 124.675 53.322C125.218 53.586 125.775 53.718 126.347 53.718C127.102 53.718 127.729 53.5787 128.228 53.3C128.727 53.0287 129.093 52.6217 129.328 52.079C129.57 51.5364 129.687 50.8617 129.68 50.055V46.81H129.911V38.12H131.649V50.077C131.649 50.3997 131.638 50.7114 131.616 51.012C131.601 51.3127 131.565 51.6097 131.506 51.903C131.352 52.7464 131.048 53.4394 130.593 53.982C130.138 54.532 129.552 54.939 128.833 55.203C128.114 55.4744 127.282 55.61 126.336 55.61ZM126.193 50.33C125.086 50.33 124.136 50.055 123.344 49.505C122.552 48.9477 121.94 48.196 121.507 47.25C121.082 46.304 120.869 45.237 120.869 44.049C120.869 42.861 121.082 41.794 121.507 40.848C121.94 39.902 122.552 39.1577 123.344 38.615C124.136 38.065 125.082 37.79 126.182 37.79C127.304 37.79 128.246 38.0614 129.009 38.604C129.772 39.1467 130.347 39.891 130.736 40.837C131.132 41.783 131.33 42.8537 131.33 44.049C131.33 45.2297 131.132 46.2967 130.736 47.25C130.347 48.196 129.772 48.9477 129.009 49.505C128.246 50.055 127.308 50.33 126.193 50.33ZM126.435 48.537C127.234 48.537 127.891 48.3464 128.404 47.965C128.917 47.5764 129.295 47.0447 129.537 46.37C129.786 45.688 129.911 44.9144 129.911 44.049C129.911 43.169 129.786 42.3954 129.537 41.728C129.295 41.0534 128.921 40.529 128.415 40.155C127.909 39.7737 127.267 39.583 126.49 39.583C125.683 39.583 125.016 39.781 124.488 40.177C123.967 40.573 123.579 41.1084 123.322 41.783C123.073 42.4577 122.948 43.213 122.948 44.049C122.948 44.8924 123.076 45.655 123.333 46.337C123.59 47.0117 123.975 47.547 124.488 47.943C125.009 48.339 125.658 48.537 126.435 48.537Z" fill="white"/>
<path d="M112.96 50.3081C112.198 50.3081 111.541 50.1871 110.991 49.9451C110.449 49.7031 109.998 49.3805 109.638 48.9771C109.279 48.5738 108.997 48.1265 108.791 47.6351C108.586 47.1438 108.439 46.6415 108.351 46.1281C108.271 45.6148 108.23 45.1345 108.23 44.6871V38.1201H110.21V44.0711C110.21 44.6285 110.262 45.1675 110.364 45.6881C110.467 46.2088 110.639 46.6781 110.881 47.0961C111.131 47.5141 111.461 47.8441 111.871 48.0861C112.289 48.3281 112.81 48.4491 113.433 48.4491C113.925 48.4491 114.372 48.3648 114.775 48.1961C115.179 48.0275 115.523 47.7781 115.809 47.4481C116.095 47.1108 116.315 46.6855 116.469 46.1721C116.623 45.6588 116.7 45.0611 116.7 44.3791L117.987 44.7751C117.987 45.9191 117.778 46.9055 117.36 47.7341C116.95 48.5628 116.367 49.2008 115.611 49.6481C114.863 50.0881 113.98 50.3081 112.96 50.3081ZM116.92 50.0001V46.8211H116.7V38.1201H118.669V50.0001H116.92Z" fill="white"/>
<path d="M100.434 50.33C99.312 50.33 98.3 50.1394 97.398 49.758C96.5033 49.3767 95.7626 48.834 95.176 48.13C94.5966 47.4187 94.219 46.579 94.043 45.611L96.067 45.292C96.3236 46.2894 96.8553 47.0704 97.662 47.635C98.476 48.1924 99.433 48.471 100.533 48.471C101.244 48.471 101.886 48.361 102.458 48.141C103.037 47.9137 103.496 47.591 103.833 47.173C104.17 46.755 104.339 46.26 104.339 45.688C104.339 45.336 104.277 45.0354 104.152 44.786C104.035 44.5294 103.87 44.313 103.657 44.137C103.452 43.9537 103.217 43.7997 102.953 43.675C102.689 43.5504 102.414 43.4477 102.128 43.367L98.091 42.168C97.651 42.036 97.2256 41.871 96.815 41.673C96.4043 41.4677 96.0376 41.2147 95.715 40.914C95.3923 40.606 95.1356 40.2394 94.945 39.814C94.7543 39.3814 94.659 38.8717 94.659 38.285C94.659 37.3464 94.901 36.547 95.385 35.887C95.8763 35.2197 96.54 34.71 97.376 34.358C98.212 34.006 99.1543 33.8337 100.203 33.841C101.266 33.8484 102.216 34.039 103.052 34.413C103.895 34.7797 104.592 35.3077 105.142 35.997C105.699 36.6864 106.073 37.5114 106.264 38.472L104.185 38.835C104.075 38.1897 103.829 37.636 103.448 37.174C103.074 36.7047 102.605 36.3454 102.04 36.096C101.475 35.8394 100.856 35.7074 100.181 35.7C99.5356 35.6927 98.9526 35.7954 98.432 36.008C97.9113 36.2207 97.497 36.5177 97.189 36.899C96.881 37.273 96.727 37.7057 96.727 38.197C96.727 38.681 96.8663 39.0734 97.145 39.374C97.4236 39.6674 97.7646 39.902 98.168 40.078C98.5786 40.2467 98.9783 40.386 99.367 40.496L102.381 41.365C102.726 41.4604 103.122 41.5924 103.569 41.761C104.024 41.9297 104.464 42.168 104.889 42.476C105.314 42.7767 105.666 43.18 105.945 43.686C106.224 44.1847 106.363 44.8154 106.363 45.578C106.363 46.3407 106.209 47.019 105.901 47.613C105.6 48.207 105.179 48.7057 104.636 49.109C104.093 49.505 103.463 49.8057 102.744 50.011C102.025 50.2237 101.255 50.33 100.434 50.33Z" fill="white"/>
<path d="M88.4354 49.9998C87.7314 50.1392 87.0348 50.1942 86.3454 50.1648C85.6634 50.1428 85.0548 50.0072 84.5194 49.7578C83.9841 49.5012 83.5771 49.1052 83.2984 48.5698C83.0638 48.1005 82.9354 47.6275 82.9134 47.1508C82.8988 46.6668 82.8914 46.1205 82.8914 45.5118V34.8198H84.8494V45.4238C84.8494 45.9078 84.8531 46.3222 84.8604 46.6668C84.8751 47.0115 84.9521 47.3085 85.0914 47.5578C85.3554 48.0272 85.7734 48.3022 86.3454 48.3828C86.9248 48.4635 87.6214 48.4415 88.4354 48.3168V49.9998ZM80.4824 39.7368V38.1198H88.4354V39.7368H80.4824Z" fill="white"/>
<path d="M74.1732 50.33C73.0072 50.33 71.9879 50.0734 71.1152 49.56C70.2499 49.0394 69.5752 48.317 69.0912 47.393C68.6072 46.4617 68.3652 45.3764 68.3652 44.137C68.3652 42.839 68.6036 41.717 69.0802 40.771C69.5569 39.8177 70.2206 39.0844 71.0712 38.571C71.9292 38.0504 72.9339 37.79 74.0852 37.79C75.2806 37.79 76.2962 38.065 77.1322 38.615C77.9756 39.165 78.6062 39.9497 79.0242 40.969C79.4496 41.9884 79.6329 43.202 79.5742 44.61H77.5942V43.906C77.5722 42.4467 77.2752 41.3577 76.7032 40.639C76.1312 39.913 75.2806 39.55 74.1512 39.55C72.9412 39.55 72.0209 39.9387 71.3902 40.716C70.7596 41.4934 70.4442 42.608 70.4442 44.06C70.4442 45.4607 70.7596 46.546 71.3902 47.316C72.0209 48.086 72.9192 48.471 74.0852 48.471C74.8699 48.471 75.5519 48.2914 76.1312 47.932C76.7106 47.5727 77.1652 47.0557 77.4952 46.381L79.3762 47.03C78.9142 48.0787 78.2176 48.8927 77.2862 49.472C76.3622 50.044 75.3246 50.33 74.1732 50.33ZM69.7842 44.61V43.037H78.5622V44.61H69.7842Z" fill="white"/>
<path d="M59.9532 50.3298C58.8678 50.3298 57.8778 50.1392 56.9832 49.7578C56.0885 49.3765 55.3185 48.8302 54.6732 48.1188C54.0278 47.4002 53.5292 46.5348 53.1772 45.5228C52.8325 44.5035 52.6602 43.3558 52.6602 42.0798C52.6602 40.3932 52.9608 38.9338 53.5622 37.7018C54.1635 36.4698 55.0105 35.5202 56.1032 34.8528C57.1958 34.1782 58.4792 33.8408 59.9532 33.8408C61.7278 33.8408 63.1578 34.2552 64.2432 35.0838C65.3285 35.9052 66.0765 37.0308 66.4872 38.4608L64.5072 38.8678C64.1772 37.9072 63.6345 37.1408 62.8792 36.5688C62.1238 35.9968 61.1815 35.7108 60.0522 35.7108C58.8715 35.7035 57.8888 35.9675 57.1042 36.5028C56.3268 37.0308 55.7402 37.7752 55.3442 38.7358C54.9482 39.6965 54.7465 40.8112 54.7392 42.0798C54.7318 43.3412 54.9262 44.4485 55.3222 45.4018C55.7182 46.3552 56.3085 47.1032 57.0932 47.6458C57.8852 48.1812 58.8715 48.4525 60.0522 48.4598C61.0715 48.4672 61.9295 48.2728 62.6262 47.8768C63.3228 47.4808 63.8618 46.9088 64.2432 46.1608C64.6245 45.4128 64.8555 44.5145 64.9362 43.4658H61.5702V41.8488H67.0042C67.0262 41.9955 67.0372 42.1715 67.0372 42.3768C67.0445 42.5748 67.0482 42.7105 67.0482 42.7838C67.0482 44.2285 66.7768 45.5228 66.2342 46.6668C65.6988 47.8035 64.9032 48.6982 63.8472 49.3508C62.7985 50.0035 61.5005 50.3298 59.9532 50.3298Z" fill="white"/>
</svg>
