<svg width="222" height="137" viewBox="0 0 222 137" fill="none" xmlns="http://www.w3.org/2000/svg">
<path d="M198.733 1C176.789 1 159 7.75718 159 16.0926C159 24.428 176.789 31.1852 198.733 31.1852C211.031 31.1852 221 28.3248 221 24.7963C221 21.2678 211.031 18.4074 198.733 18.4074C176.789 18.4074 159 25.1646 159 33.5C159 41.8354 176.789 48.5928 198.733 48.5928C211.031 48.5928 221 45.7323 221 42.2037C221 38.6752 211.031 35.8148 198.733 35.8148C176.789 35.8148 159 42.6135 159 51C159 59.3864 176.789 66.1853 198.733 66.1853C211.031 66.1853 221 63.3248 221 59.7962C221 56.2676 211.031 53.4076 198.733 53.4076C176.789 53.4076 159 60.1645 159 68.5C159 76.8355 176.789 83.5924 198.733 83.5924C211.031 83.5924 221 80.7324 221 77.2038C221 73.6752 211.031 70.8147 198.733 70.8147C176.789 70.8147 159 77.5721 159 85.9076C159 94.243 176.789 101 198.733 101C211.031 101 221 98.1394 221 94.6113C221 91.0827 211.031 88.2222 198.733 88.2222C176.789 88.2222 159 94.9797 159 103.315C159 111.65 176.789 118.407 198.733 118.407C211.031 118.407 221 115.547 221 112.018C221 108.49 211.031 105.63 198.733 105.63C176.789 105.63 159 112.428 159 120.815C159 129.201 176.789 136 198.733 136" stroke="black" stroke-width="1.5" stroke-linecap="round"/>
<path d="M0.692736 106.437C0.689119 106.435 0.687081 106.435 0.687084 106.435C0.687086 106.435 0.68889 106.435 0.692877 106.436L0.692736 106.437ZM0.692736 106.437L0.685287 106.5L0.604507 105.819L7.36619 105.017C16.0974 103.981 22.9812 97.0974 24.0172 88.3662L0.692736 106.437ZM43.5454 105.762L49.7654 106.5L43.5454 107.238C34.4701 108.315 27.3149 115.47 26.238 124.545L25.5 130.765L24.762 124.545C23.6851 115.47 16.5299 108.315 7.45456 107.238L1.23451 106.5L7.45456 105.762C16.5299 104.685 23.6851 97.5299 24.762 88.4546L25.5 82.2345L26.238 88.4546C27.3149 97.5299 34.4701 104.685 43.5454 105.762Z" stroke="black" stroke-width="1.5"/>
</svg>
