<svg width="116" height="116" viewBox="0 0 116 116" fill="none" xmlns="http://www.w3.org/2000/svg">
<path d="M57.1969 1.4634C57.3099 0.512199 58.6901 0.512199 58.8031 1.4634L60.6279 16.8428C63.0251 37.0462 78.9539 52.9749 99.157 55.3721L114.536 57.1969C115.488 57.3099 115.488 58.6901 114.536 58.8031L99.157 60.6279C78.9539 63.0251 63.0251 78.9539 60.6279 99.157L58.8031 114.536C58.6901 115.488 57.3099 115.488 57.1969 114.536L55.3721 99.157C52.9749 78.9539 37.0462 63.0251 16.8428 60.6279L1.4634 58.8031C0.512199 58.6901 0.512199 57.3099 1.4634 57.1969L16.8428 55.3721C37.0462 52.9749 52.9749 37.0462 55.3721 16.8428L57.1969 1.4634Z" stroke="white" stroke-width="1.5"/>
</svg>
