<svg width="158" height="283" viewBox="0 0 158 283" fill="none" xmlns="http://www.w3.org/2000/svg">
<path d="M148.299 261.86L132.311 265.869C131.974 265.96 131.666 266.137 131.418 266.383C131.171 266.629 130.992 266.936 130.9 267.273C130.807 267.61 130.805 267.965 130.892 268.303C130.98 268.641 131.155 268.95 131.399 269.2L143.377 281.178C143.627 281.422 143.936 281.597 144.274 281.685C144.612 281.772 144.967 281.77 145.304 281.677C145.641 281.585 145.948 281.406 146.194 281.159C146.44 280.911 146.617 280.603 146.708 280.266L150.717 264.278C150.799 263.944 150.793 263.595 150.701 263.264C150.608 262.933 150.432 262.631 150.189 262.388C149.946 262.145 149.644 261.969 149.313 261.876C148.982 261.784 148.633 261.778 148.299 261.86Z" fill="#00D9B2"/>
<path d="M31.5065 24.5014V10.4986C31.5058 9.88467 31.3438 9.28173 31.0366 8.75024C30.7293 8.21875 30.2878 7.77739 29.7561 7.47044L17.5036 0.469007C16.9714 0.161755 16.3677 0 15.7532 0C15.1387 0 14.535 0.161755 14.0029 0.469007L1.75036 7.47044C1.21871 7.77739 0.777125 8.21875 0.469904 8.75024C0.162683 9.28173 0.000629678 9.88467 0 10.4986V24.5014C0.000629678 25.1153 0.162683 25.7183 0.469904 26.2498C0.777125 26.7812 1.21871 27.2226 1.75036 27.5296L14.0029 34.531C14.535 34.8382 15.1387 35 15.7532 35C16.3677 35 16.9714 34.8382 17.5036 34.531L29.7561 27.5296C30.2878 27.2226 30.7293 26.7812 31.0366 26.2498C31.3438 25.7183 31.5058 25.1153 31.5065 24.5014Z" fill="#FFCE52"/>
</svg>
