<svg width="193" height="66" viewBox="0 0 193 66" fill="none" xmlns="http://www.w3.org/2000/svg">
<path d="M19 26C19 23.7909 20.7909 22 23 22H171C183.15 22 193 31.8497 193 44C193 56.1503 183.15 66 171 66H59C36.9086 66 19 48.0914 19 26Z" fill="#00D9B2"/>
<path d="M0 0L9.25765 20L10.7194 11L19.4898 9.5L0 0Z" fill="#00D9B2"/>
<path d="M177.489 50V38.12H179.238V40.991L178.952 40.617C179.092 40.2503 179.271 39.913 179.491 39.605C179.719 39.297 179.972 39.044 180.25 38.846C180.558 38.5966 180.907 38.406 181.295 38.274C181.684 38.142 182.08 38.065 182.483 38.043C182.887 38.0136 183.264 38.0393 183.616 38.12V39.957C183.206 39.847 182.755 39.8177 182.263 39.869C181.772 39.9203 181.317 40.1 180.899 40.408C180.518 40.6793 180.221 41.0093 180.008 41.398C179.803 41.7866 179.66 42.2083 179.579 42.663C179.499 43.1103 179.458 43.5687 179.458 44.038V50H177.489Z" fill="white"/>
<path d="M169.859 50.33C168.693 50.33 167.674 50.0734 166.801 49.56C165.936 49.0394 165.261 48.317 164.777 47.393C164.293 46.4617 164.051 45.3764 164.051 44.137C164.051 42.839 164.29 41.717 164.766 40.771C165.243 39.8177 165.907 39.0844 166.757 38.571C167.615 38.0504 168.62 37.79 169.771 37.79C170.967 37.79 171.982 38.065 172.818 38.615C173.662 39.165 174.292 39.9497 174.71 40.969C175.136 41.9884 175.319 43.202 175.26 44.61H173.28V43.906C173.258 42.4467 172.961 41.3577 172.389 40.639C171.817 39.913 170.967 39.55 169.837 39.55C168.627 39.55 167.707 39.9387 167.076 40.716C166.446 41.4934 166.13 42.608 166.13 44.06C166.13 45.4607 166.446 46.546 167.076 47.316C167.707 48.086 168.605 48.471 169.771 48.471C170.556 48.471 171.238 48.2914 171.817 47.932C172.397 47.5727 172.851 47.0557 173.181 46.381L175.062 47.03C174.6 48.0787 173.904 48.8927 172.972 49.472C172.048 50.044 171.011 50.33 169.859 50.33ZM165.47 44.61V43.037H174.248V44.61H165.47Z" fill="white"/>
<path d="M159.673 50.0001V33.8301H161.631V50.0001H159.673Z" fill="white"/>
<path d="M150.884 50.3081C150.121 50.3081 149.465 50.1871 148.915 49.9451C148.372 49.7031 147.921 49.3805 147.562 48.9771C147.202 48.5738 146.92 48.1265 146.715 47.6351C146.509 47.1438 146.363 46.6415 146.275 46.1281C146.194 45.6148 146.154 45.1345 146.154 44.6871V38.1201H148.134V44.0711C148.134 44.6285 148.185 45.1675 148.288 45.6881C148.39 46.2088 148.563 46.6781 148.805 47.0961C149.054 47.5141 149.384 47.8441 149.795 48.0861C150.213 48.3281 150.733 48.4491 151.357 48.4491C151.848 48.4491 152.295 48.3648 152.699 48.1961C153.102 48.0275 153.447 47.7781 153.733 47.4481C154.019 47.1108 154.239 46.6855 154.393 46.1721C154.547 45.6588 154.624 45.0611 154.624 44.3791L155.911 44.7751C155.911 45.9191 155.702 46.9055 155.284 47.7341C154.873 48.5628 154.29 49.2008 153.535 49.6481C152.787 50.0881 151.903 50.3081 150.884 50.3081ZM154.844 50.0001V46.8211H154.624V38.1201H156.593V50.0001H154.844Z" fill="white"/>
<path d="M138.859 50.33C137.744 50.33 136.805 50.055 136.043 49.505C135.28 48.9477 134.701 48.196 134.305 47.25C133.916 46.2967 133.722 45.2297 133.722 44.049C133.722 42.8537 133.916 41.783 134.305 40.837C134.701 39.891 135.28 39.1467 136.043 38.604C136.813 38.0614 137.755 37.79 138.87 37.79C139.97 37.79 140.916 38.065 141.708 38.615C142.507 39.1577 143.119 39.902 143.545 40.848C143.97 41.794 144.183 42.861 144.183 44.049C144.183 45.237 143.97 46.304 143.545 47.25C143.119 48.196 142.507 48.9477 141.708 49.505C140.916 50.055 139.966 50.33 138.859 50.33ZM133.392 55.28V38.12H135.141V46.865H135.361V55.28H133.392ZM138.617 48.537C139.401 48.537 140.05 48.339 140.564 47.943C141.077 47.547 141.462 47.0117 141.719 46.337C141.975 45.655 142.104 44.8924 142.104 44.049C142.104 43.213 141.975 42.4577 141.719 41.783C141.469 41.1084 141.081 40.573 140.553 40.177C140.032 39.781 139.368 39.583 138.562 39.583C137.792 39.583 137.154 39.7737 136.648 40.155C136.142 40.529 135.764 41.0534 135.515 41.728C135.265 42.3954 135.141 43.169 135.141 44.049C135.141 44.9144 135.262 45.688 135.504 46.37C135.753 47.0447 136.134 47.5764 136.648 47.965C137.161 48.3464 137.817 48.537 138.617 48.537Z" fill="white"/>
<path d="M125.47 50.33C124.289 50.33 123.27 50.0624 122.412 49.527C121.561 48.9917 120.905 48.251 120.443 47.305C119.981 46.359 119.75 45.2737 119.75 44.049C119.75 42.8024 119.984 41.7097 120.454 40.771C120.923 39.8324 121.587 39.1027 122.445 38.582C123.303 38.054 124.311 37.79 125.47 37.79C126.658 37.79 127.681 38.0577 128.539 38.593C129.397 39.121 130.053 39.858 130.508 40.804C130.97 41.7427 131.201 42.8244 131.201 44.049C131.201 45.2884 130.97 46.381 130.508 47.327C130.046 48.2657 129.386 49.0027 128.528 49.538C127.67 50.066 126.65 50.33 125.47 50.33ZM125.47 48.471C126.702 48.471 127.618 48.0604 128.22 47.239C128.821 46.4177 129.122 45.3544 129.122 44.049C129.122 42.707 128.817 41.64 128.209 40.848C127.6 40.0487 126.687 39.649 125.47 39.649C124.641 39.649 123.959 39.836 123.424 40.21C122.888 40.584 122.489 41.101 122.225 41.761C121.961 42.421 121.829 43.1837 121.829 44.049C121.829 45.3837 122.137 46.4544 122.753 47.261C123.369 48.0677 124.274 48.471 125.47 48.471Z" fill="white"/>
<path d="M107.202 50.0002V34.1602H113.461C113.615 34.1602 113.798 34.1675 114.011 34.1822C114.223 34.1895 114.429 34.2115 114.627 34.2482C115.485 34.3802 116.203 34.6735 116.783 35.1282C117.369 35.5828 117.809 36.1585 118.103 36.8552C118.396 37.5445 118.543 38.3108 118.543 39.1542C118.543 39.9902 118.392 40.7565 118.092 41.4532C117.798 42.1425 117.358 42.7182 116.772 43.1802C116.192 43.6348 115.477 43.9282 114.627 44.0602C114.429 44.0895 114.223 44.1115 114.011 44.1262C113.798 44.1408 113.615 44.1482 113.461 44.1482H109.16V50.0002H107.202ZM109.16 42.2892H113.395C113.534 42.2892 113.692 42.2818 113.868 42.2672C114.051 42.2525 114.223 42.2268 114.385 42.1902C114.891 42.0728 115.301 41.8602 115.617 41.5522C115.939 41.2368 116.174 40.8702 116.321 40.4522C116.467 40.0268 116.541 39.5942 116.541 39.1542C116.541 38.7142 116.467 38.2852 116.321 37.8672C116.174 37.4418 115.939 37.0715 115.617 36.7562C115.301 36.4408 114.891 36.2282 114.385 36.1182C114.223 36.0742 114.051 36.0485 113.868 36.0412C113.692 36.0265 113.534 36.0192 113.395 36.0192H109.16V42.2892Z" fill="white"/>
<path d="M100.826 50.0001C100.122 50.1394 99.4249 50.1944 98.7356 50.1651C98.0536 50.1431 97.4449 50.0074 96.9096 49.7581C96.3742 49.5014 95.9672 49.1054 95.6886 48.5701C95.4539 48.1007 95.3256 47.6277 95.3036 47.1511C95.2889 46.6671 95.2816 46.1207 95.2816 45.5121V34.8201H97.2396V45.4241C97.2396 45.9081 97.2432 46.3224 97.2506 46.6671C97.2652 47.0117 97.3422 47.3087 97.4816 47.5581C97.7456 48.0274 98.1636 48.3024 98.7356 48.3831C99.3149 48.4637 100.012 48.4417 100.826 48.3171V50.0001ZM92.8726 39.7371V38.1201H100.826V39.7371H92.8726Z" fill="white"/>
<path d="M87.2344 50.319C85.8191 50.319 84.6568 50.011 83.7474 49.395C82.8454 48.7717 82.2918 47.9027 82.0864 46.788L84.0884 46.469C84.2498 47.1144 84.6201 47.6277 85.1994 48.009C85.7788 48.383 86.4974 48.57 87.3554 48.57C88.1694 48.57 88.8074 48.4014 89.2694 48.064C89.7314 47.7267 89.9624 47.2684 89.9624 46.689C89.9624 46.3517 89.8854 46.0804 89.7314 45.875C89.5774 45.6624 89.2584 45.4644 88.7744 45.281C88.2978 45.0977 87.5754 44.8777 86.6074 44.621C85.5588 44.3424 84.7338 44.0527 84.1324 43.752C83.5311 43.4514 83.1021 43.103 82.8454 42.707C82.5888 42.311 82.4604 41.8307 82.4604 41.266C82.4604 40.5694 82.6511 39.9607 83.0324 39.44C83.4138 38.912 83.9454 38.505 84.6274 38.219C85.3168 37.933 86.1161 37.79 87.0254 37.79C87.9274 37.79 88.7341 37.933 89.4454 38.219C90.1568 38.505 90.7288 38.912 91.1614 39.44C91.6014 39.9607 91.8618 40.5694 91.9424 41.266L89.9404 41.629C89.8451 40.991 89.5371 40.4887 89.0164 40.122C88.5031 39.7554 87.8394 39.561 87.0254 39.539C86.2554 39.5097 85.6284 39.6454 85.1444 39.946C84.6678 40.2467 84.4294 40.6537 84.4294 41.167C84.4294 41.453 84.5174 41.6987 84.6934 41.904C84.8768 42.1094 85.2104 42.3037 85.6944 42.487C86.1858 42.6704 86.8971 42.8794 87.8284 43.114C88.8771 43.378 89.7021 43.6677 90.3034 43.983C90.9121 44.291 91.3448 44.6577 91.6014 45.083C91.8581 45.501 91.9864 46.018 91.9864 46.634C91.9864 47.778 91.5648 48.68 90.7214 49.34C89.8781 49.9927 88.7158 50.319 87.2344 50.319Z" fill="white"/>
<path d="M74.9856 50.33C73.805 50.33 72.7856 50.0624 71.9276 49.527C71.077 48.9917 70.4206 48.251 69.9586 47.305C69.4966 46.359 69.2656 45.2737 69.2656 44.049C69.2656 42.8024 69.5003 41.7097 69.9696 40.771C70.439 39.8324 71.1026 39.1027 71.9606 38.582C72.8186 38.054 73.827 37.79 74.9856 37.79C76.1736 37.79 77.1966 38.0577 78.0546 38.593C78.9126 39.121 79.569 39.858 80.0236 40.804C80.4856 41.7427 80.7166 42.8244 80.7166 44.049C80.7166 45.2884 80.4856 46.381 80.0236 47.327C79.5616 48.2657 78.9016 49.0027 78.0436 49.538C77.1856 50.066 76.1663 50.33 74.9856 50.33ZM74.9856 48.471C76.2176 48.471 77.1343 48.0604 77.7356 47.239C78.337 46.4177 78.6376 45.3544 78.6376 44.049C78.6376 42.707 78.3333 41.64 77.7246 40.848C77.116 40.0487 76.203 39.649 74.9856 39.649C74.157 39.649 73.475 39.836 72.9396 40.21C72.4043 40.584 72.0046 41.101 71.7406 41.761C71.4766 42.421 71.3446 43.1837 71.3446 44.049C71.3446 45.3837 71.6526 46.4544 72.2686 47.261C72.8846 48.0677 73.7903 48.471 74.9856 48.471Z" fill="white"/>
<path d="M51.54 50.0002V34.1602H53.322L59.306 46.7772L65.257 34.1602H67.061V49.9892H65.202V38.4612L59.823 50.0002H58.778L53.399 38.4612V50.0002H51.54Z" fill="white"/>
</svg>
