<svg width="67" height="67" viewBox="0 0 67 67" fill="none" xmlns="http://www.w3.org/2000/svg">
<path d="M33.5 0L33.5065 33.467L46.32 2.55003L33.5186 33.4722L57.188 9.81193L33.5278 33.4814L64.45 20.68L33.533 33.4935L67 33.5L33.533 33.5065L64.45 46.32L33.5278 33.5186L57.188 57.188L33.5186 33.5278L46.32 64.45L33.5065 33.533L33.5 67L33.4935 33.533L20.68 64.45L33.4814 33.5278L9.81193 57.188L33.4722 33.5186L2.55003 46.32L33.467 33.5065L0 33.5L33.467 33.4935L2.55003 20.68L33.4722 33.4814L9.81193 9.81193L33.4814 33.4722L20.68 2.55003L33.4935 33.467L33.5 0Z" fill="#F0C3D2" stroke="#FFC736" stroke-width="2"/>
</svg>
