<svg width="91" height="193" viewBox="0 0 91 193" fill="none" xmlns="http://www.w3.org/2000/svg">
<path d="M58.0355 1C26.5355 1 1 10.5602 1 22.3532C1 34.1462 26.5355 43.7065 58.0355 43.7065C75.689 43.7065 90 39.6595 90 34.6674C90 29.6752 75.689 25.6282 58.0355 25.6282C26.5355 25.6282 1 35.1884 1 46.9814C1 58.7746 26.5355 68.335 58.0355 68.335C75.689 68.335 90 64.2879 90 59.2956C90 54.3034 75.689 50.2565 58.0355 50.2565C26.5355 50.2565 1 59.8754 1 71.7407C1 83.606 26.5355 93.2252 58.0355 93.2252C75.689 93.2252 90 89.1781 90 84.1858C90 79.1934 75.689 75.1471 58.0355 75.1471C26.5355 75.1471 1 84.7069 1 96.5C1 108.293 26.5355 117.853 58.0355 117.853C75.689 117.853 90 113.807 90 108.814C90 103.822 75.689 99.7748 58.0355 99.7748C26.5355 99.7748 1 109.335 1 121.128C1 132.922 26.5355 142.481 58.0355 142.481C75.689 142.481 90 138.434 90 133.443C90 128.45 75.689 124.403 58.0355 124.403C26.5355 124.403 1 133.964 1 145.756C1 157.549 26.5355 167.11 58.0355 167.11C75.689 167.11 90 163.063 90 158.07C90 153.079 75.689 149.032 58.0355 149.032C26.5355 149.032 1 158.65 1 170.516C1 182.381 26.5355 192 58.0355 192" stroke="white" stroke-width="1.5" stroke-linecap="round"/>
</svg>
