<svg width="123" height="70" viewBox="0 0 123 70" fill="none" xmlns="http://www.w3.org/2000/svg">
<path d="M2.88323 18.5531C2.88323 17.3166 1.8844 16.3141 0.652344 16.3141V0.392578C10.6458 0.392578 18.7471 8.52332 18.7471 18.5531V51.6399C18.7471 52.8764 19.7459 53.8789 20.978 53.8789C22.2101 53.8789 23.2089 52.8764 23.2089 51.6399V18.5531C23.2089 8.52332 31.3102 0.392578 41.3038 0.392578C51.2971 0.392578 59.3983 8.52332 59.3983 18.5531V51.6399C59.3983 52.8764 60.3974 53.8789 61.6293 53.8789C62.8612 53.8789 63.8602 52.8764 63.8602 51.6399V18.5531C63.8602 8.52332 71.9614 0.392578 81.9548 0.392578C91.9486 0.392578 100.05 8.52332 100.05 18.5531V51.6399C100.05 52.8764 101.048 53.8789 102.281 53.8789C103.513 53.8789 104.512 52.8764 104.512 51.6399V18.5531C104.512 8.52332 112.613 0.392578 122.606 0.392578V16.3141C121.374 16.3141 120.375 17.3166 120.375 18.5531V51.6399C120.375 61.6696 112.274 69.8004 102.281 69.8004C92.2869 69.8004 84.1857 61.6696 84.1857 51.6399V18.5531C84.1857 17.3166 83.1871 16.3141 81.9548 16.3141C80.7228 16.3141 79.7238 17.3166 79.7238 18.5531V51.6399C79.7238 61.6696 71.6226 69.8004 61.6293 69.8004C51.6359 69.8004 43.5347 61.6696 43.5347 51.6399V18.5531C43.5347 17.3166 42.5357 16.3141 41.3038 16.3141C40.0714 16.3141 39.0729 17.3166 39.0729 18.5531V51.6399C39.0729 61.6696 30.9714 69.8004 20.978 69.8004C10.9845 69.8004 2.88323 61.6696 2.88323 51.6399V18.5531Z" fill="#EC2FA1"/>
</svg>
