<svg width="222" height="85" viewBox="0 0 222 85" fill="none" xmlns="http://www.w3.org/2000/svg">
<path d="M1.90695 22.8812C2.4076 21.5417 4.43536 21.0674 5.58248 20.5504C11.7473 17.7722 17.9845 15.3516 24.5117 13.5346C52.6159 5.71091 72.3704 2.50423 103.271 3.61538C120.796 4.24558 143.704 10.2558 159.079 18.3735C167.374 22.7535 178.677 34.1715 181.159 43.5912C184.954 57.9936 176.003 74.7355 162.003 79.7432C149.649 84.162 135.68 79.8272 135.03 65.0221C137.257 47.3227 159.353 49.2713 168.469 52.6012C185.384 57.3656 199.209 66.3371 212.062 77.4385C212.626 77.9259 218.811 84.7256 217.734 82.363" stroke="black" stroke-width="2" stroke-linecap="round"/>
<path d="M197.402 82.7342L218.617 83.4971L218.341 65.4773" stroke="black" stroke-width="2" stroke-linecap="round"/>
</svg>
