<svg width="113" height="66" viewBox="0 0 113 66" fill="none" xmlns="http://www.w3.org/2000/svg">
<path d="M53.3247 41.8917H53.7748C54.0005 42.9244 54.5841 43.8445 55.4226 44.4896C55.7888 44.7334 56.1016 45.0838 56.3838 45.2514C56.5196 45.3821 56.6398 45.5278 56.7424 45.6857C56.8654 45.8282 56.9634 45.9905 57.0323 46.1657C58.0698 45.7695 58.1156 46.0438 58.4283 46.3638C58.5405 46.5511 58.7166 46.6918 58.9242 46.7599C59.1006 46.7361 59.2704 46.6774 59.4236 46.5871C59.5769 46.4968 59.7106 46.3768 59.8168 46.2342V46.4476C60.4527 46.2 61.0258 45.815 61.4951 45.32C61.9839 44.711 62.3539 44.0159 62.586 43.2706C63.093 41.5031 63.093 39.629 62.586 37.8614C62.3298 37.0292 61.9684 36.2329 61.5103 35.4921C60.9893 34.7596 60.3908 34.0853 59.7252 33.4808C58.2152 32.1519 56.5222 31.0461 54.6979 30.1972L54.614 30.4715C51.2582 29.3821 47.7955 28.6542 44.2847 28.3002C40.6678 27.8192 37.0243 27.5647 33.3756 27.5383C26.2733 27.4926 19.2549 28.9554 14.2276 32.9703C13.2129 33.4884 13.3274 32.5589 12.3433 32.9703C12.0458 33.3208 11.3058 34.0369 11.5804 34.2655C12.3433 33.7779 12.206 34.3341 12.5111 34.2198C11.466 35.1645 10.8023 36.9015 9.80291 37.7776C9.84105 37.3891 9.92497 37.0158 9.986 36.6349C9.75517 36.8338 9.56369 37.0741 9.42147 37.3434C9.27653 37.6329 9.17735 37.9376 9.07818 38.1052C9.36807 38.0443 9.51302 38.8671 9.78766 38.5471C8.64335 39.469 8.65861 40.0708 8.64335 40.5813C8.77107 41.2586 8.65772 41.9593 8.32294 42.5621C7.81181 42.6688 7.23203 43.3773 6.68276 44.3601C6.44627 44.8477 6.20216 45.4038 5.98093 45.96C5.75969 46.5161 5.63763 47.1027 5.49268 47.6132C5.58423 47.956 5.74444 48.2912 5.8665 48.6188C5.76733 47.9408 5.94279 47.9332 6.10299 47.857C6.26319 47.7808 6.4005 47.7275 6.36999 46.897C6.65224 48.2531 6.51494 49.5407 7.0108 50.7063C6.72855 50.5387 6.41576 50.7063 6.48442 51.2244C6.93452 51.9177 7.3541 51.8186 7.7813 52.5576C7.72878 52.2634 7.70325 51.9651 7.70501 51.6663C8.2085 52.0548 8.04831 52.6338 8.26954 53.1214C8.4984 53.0833 8.74252 53.35 9.03241 53.5023C9.3223 53.6547 9.57405 53.7537 9.68085 53.5023C9.90209 54.6908 10.4437 54.6756 11.1227 55.7117C9.89446 55.247 11.0464 56.344 10.7794 56.5116C10.4043 56.1778 10.0549 55.8162 9.73425 55.4298C11.4583 56.6031 9.2689 54.9194 9.8792 54.5765C9.48251 54.3251 9.44436 54.7746 9.47488 55.0946C9.50539 55.4146 9.47487 55.6965 8.95612 55.0413C10.192 56.6793 10.6573 56.7707 12.3585 58.2487C11.1913 57.5478 12.3585 58.7515 11.6414 58.622C13.2358 59.3838 12.1373 58.622 12.801 58.4315C13.6707 58.8125 14.1055 58.5534 14.7921 59.2848C16.3178 59.4829 14.7082 58.7363 15.555 58.6677C15.3414 58.3782 14.3039 58.2487 13.4799 57.9058C12.6561 57.563 12.0381 57.144 12.5569 56.565C11.9586 55.9941 11.4027 55.3805 10.8938 54.7289C11.5651 55.1555 12.7934 55.3079 13.5333 56.0393L13.2282 56.8012C13.9911 57.144 13.9377 57.7611 14.5709 57.883C14.342 57.5402 14.9981 57.4259 15.6618 57.6544C15.4329 57.723 15.1659 57.6544 15.204 57.7839C16.4628 58.1725 16.5162 58.7896 18.1716 59.201C16.7603 59.201 16.4323 59.4067 15.0591 59.4219C15.2574 60.0848 15.9517 59.7495 16.7069 59.9628C16.6077 59.8638 16.4475 59.8105 16.7069 59.7419C16.9586 59.9019 17.2256 60.0238 17.4698 60.1609C19.2854 60.1609 17.3706 59.3077 18.8506 59.201C19.8881 58.8201 20.2008 59.6048 21.0095 59.3686C20.96 59.4186 20.9064 59.4645 20.8493 59.5057C20.9813 59.516 21.114 59.516 21.246 59.5057C21.2417 59.5207 21.2417 59.5365 21.246 59.5515C22.1996 59.6734 23.2447 59.6276 23.5346 60.0695C23.6338 59.8714 24.3966 60.1228 24.7247 60.2524C25.2739 60.42 26.6319 60.8923 27.4405 60.1533H27.3795C28.6382 60.0238 29.6147 59.7648 29.3324 59.5362L31.354 59.2772L31.1175 58.721C32.9713 58.7972 32.8035 59.14 34.1004 59.681C35.5973 59.3952 37.1349 59.3952 38.6318 59.681C38.8852 59.6509 39.1413 59.6509 39.3947 59.681L38.6318 59.9324C40.0813 59.8486 39.9134 60.1609 40.867 60.1228C40.6687 60.1838 40.6458 60.2219 41.1722 60.1228L41.7215 60.0619C41.6681 60.0009 41.4545 60.0162 41.2408 60.0619L41.4087 59.8714C42.5454 59.2162 43.2014 60.1457 44.422 59.8714C44.2758 59.8468 44.1278 59.834 43.9796 59.8333C44.6661 59.6581 45.635 58.8048 45.9401 59.2924C46.1649 59.2519 46.3967 59.2982 46.5886 59.4219L47.0997 59.3153L46.5962 59.4219C46.9242 59.5743 47.2294 59.7648 47.2675 59.6429L49.0374 59.4753C49.422 59.3917 49.82 59.3917 50.2046 59.4753L50.5021 59.2239C51.1505 59.2239 51.1429 59.0943 51.0666 59.0334C53.279 58.1192 54.5606 59.3153 56.956 58.5077C57.4366 58.8886 56.4372 59.102 56.3686 59.3229C57.1736 59.6402 58.0097 59.8726 58.8632 60.0162C59.9236 59.4219 63.2192 58.8124 62.6775 58.043C64.6763 57.9058 62.0749 58.5534 63.0895 58.8048H63.3183C62.7308 58.8966 62.1795 59.1468 61.7239 59.5286C61.5866 59.9629 63.3565 60.0162 63.8981 59.8714L63.4938 59.2848C65.3476 59.4219 65.0195 60.3438 66.1715 60.9076C67.6286 60.6104 66.7589 60.0924 67.0488 59.5438L68.5745 59.6276V59.1781C69.5815 59.2543 69.8333 59.6733 71.2141 59.4372C70.1918 59.0486 73.2738 58.9343 71.8701 58.4087C72.633 58.2334 72.8924 59.102 73.2586 58.4772C73.8155 58.942 72.5796 58.7515 72.1905 58.9191C71.9083 59.6276 73.8994 59.1858 74.8301 59.3305C74.8987 58.9648 74.1969 58.9267 75.2802 58.6448C75.4936 58.8163 75.7551 58.9172 76.0284 58.9336C76.3018 58.95 76.5735 58.881 76.8059 58.7363C76.8059 59.1934 78.0418 58.782 78.6597 58.7363C77.9655 58.8505 76.9737 59.2239 77.4467 59.5972C78.1765 59.8001 78.9413 59.8442 79.6896 59.7267L78.8504 59.9705C79.9566 60.5952 80.6126 59.4143 82.085 59.5743C81.5637 59.429 81.0537 59.2456 80.5592 59.0258C81.2535 59.2086 82.5809 59.4905 83.6718 59.6657L84.8771 58.9496C85.0449 59.2772 86.2655 58.8658 86.2884 59.3229C87.8142 58.9572 85.0297 58.8201 84.8618 58.4925C86.7766 58.1192 86.4334 59.1934 88.2566 58.4239L87.6311 58.0277C88.2414 57.9668 89.4848 58.1649 89.5535 57.9516C89.5535 58.1039 89.2483 58.0506 88.8669 58.0658C89.2789 58.9648 91.7353 58.5915 91.5446 59.5438L90.6978 59.6353C92.0023 59.7648 92.9864 60.3971 93.9476 59.9933C94.7105 59.6657 93.3831 59.3838 92.9178 59.1553C94.146 59.0486 93.9553 60.1457 95.42 60.0009C94.6571 60.1838 94.8097 60.5114 95.2827 60.7628C94.4359 60.8542 92.6736 61.1056 92.994 60.7019L93.2992 60.5952C93.2077 60.359 92.7423 60.2828 92.5363 60.1686C91.3768 60.2143 92.0099 60.618 91.7735 60.8085C89.851 61.0371 91.5827 59.879 89.8205 59.9781L89.5916 60.1686C88.7372 59.9552 87.4251 59.9781 87.1657 59.4067C86.4028 60.0467 85.1594 59.2467 84.3278 59.6429C84.221 60.9761 87.3259 59.4296 88.3558 60.1228C87.4403 60.4276 88.9127 60.7399 89.3094 61.0218L86.3647 60.5647C86.1358 60.7552 85.3119 61.4561 84.7627 60.9914L84.9839 60.9456C83.8243 60.8466 84.1142 60.2828 83.1149 60.5038C82.9699 60.6333 83.2827 60.8314 83.3666 60.9228C82.4435 61.0828 82.6037 60.6485 81.9553 60.5495C81.0399 60.7095 82.4435 61.0828 81.673 61.258C80.5821 60.7856 79.9871 61.4485 79.0564 61.4485C79.4226 60.6866 75.3183 60.5647 77.3018 59.8181L75.0132 59.3915C74.3342 59.8105 76.5847 60.3895 75.9973 61.0523L77.7671 60.9533C77.5154 61.9056 74.0291 60.4885 72.8924 61.5856C72.0382 61.582 71.1913 61.7424 70.3978 62.0579L70.5504 61.2504C69.6273 61.4789 69.3374 61.9513 69.3069 62.1037C68.7973 62.0812 68.2867 62.1041 67.7811 62.1722C67.9704 62.3237 68.2026 62.4117 68.4448 62.4236C67.7659 62.9188 67.5523 62.7512 67.3005 62.5151C66.8077 62.3594 66.2854 62.3202 65.7748 62.4008L66.3164 62.6903C65.9579 62.637 65.5154 62.5608 65.4696 62.4084C65.2372 62.4205 65.0042 62.4052 64.7754 62.3627C65.124 61.9352 65.591 61.6199 66.1181 61.4561C63.9744 61.8675 62.3037 61.7532 60.45 62.5227C60.5262 62.7589 61.312 63.0331 61.0831 63.0712C60.1601 63.2312 59.1378 62.8503 59.2141 62.477H58.6953C58.6066 62.6157 58.4879 62.7328 58.348 62.8198C58.2081 62.9068 58.0505 62.9614 57.8867 62.9798C57.7155 63.0971 57.5144 63.1632 57.3069 63.1703C56.9713 62.5151 55.209 62.9189 54.8123 62.637C55.2904 62.5513 55.7765 62.5181 56.2618 62.5379C55.4989 62.1189 54.8123 61.6389 54.2554 62.0199C55.6515 62.3855 52.806 62.7817 54.8962 62.8731C53.4697 63.7797 54.1334 62.2941 52.6076 62.6598L51.6235 63.0331C51.7914 63.5131 53.2484 63.2084 53.0272 63.3988H52.3254C53.0348 63.734 55.6515 63.3988 57.284 63.8712L54.0571 64.2749C49.9528 63.8559 44.9026 64.7168 41.3782 63.7874H41.4087C41.3476 63.7417 41.3171 63.6578 41.2561 63.475L41.1035 63.6045L40.4093 63.2617C39.6464 63.7493 38.1894 63.894 36.9611 64.3054C37.724 63.9702 37.724 63.9702 37.7927 63.6045C37.6172 63.1245 37.4875 62.9265 36.3432 63.1474C36.3432 63.4979 37.0527 63.4598 36.2135 63.7645C36.6484 63.5817 36.2135 63.3531 35.7329 63.3302C35.0921 63.574 34.0088 63.6655 34.0088 64.0159C34.268 64.063 34.5354 64.0256 34.7717 63.9093C35.0768 63.9854 33.5587 64.2673 34.4665 64.5187L33.2841 64.4654C32.6051 64.7778 33.7571 64.8997 33.4901 65.0978C31.5219 64.9378 30.4844 64.1835 28.7069 64.0159C28.783 64.2625 28.8191 64.5198 28.8137 64.7778C27.471 65.0597 25.8385 64.0616 24.2364 64.0159C24.4729 64.2369 25.0756 64.1454 25.5486 64.2369C20.8385 64.7291 16.0801 64.4719 11.4507 63.475C11.1235 63.0698 10.8179 62.6477 10.5353 62.2103C10.0523 62.1855 9.57095 62.1347 9.09344 62.0579C6.69353 60.9495 4.68182 59.1475 3.3185 56.885C2.04613 54.7297 1.26475 52.3211 1.02988 49.8302C0.869682 48.2455 0.335678 48.9388 0.045784 48.1922C-0.015213 47.4316 -0.015213 46.6673 0.045784 45.9066C0.159737 45.3404 0.304901 44.7808 0.480614 44.2306C0.642342 43.6948 0.833344 43.1684 1.05277 42.6535C1.28926 42.0974 1.42658 41.4498 1.71648 40.7032C1.35793 41.0612 0.480614 41.6631 0.839165 40.2765C1.0678 40.182 1.26276 40.021 1.39877 39.8146C1.53478 39.6081 1.60559 39.3656 1.60204 39.1185L1.24348 39.4842C1.10617 38.57 1.74699 37.9605 2.2276 36.3149C3.39915 33.7327 5.41368 31.6242 7.9415 30.3343C9.67322 28.4297 7.17863 29.9229 7.3541 29.4658C6.26319 30.9895 6.37762 30.3343 5.88938 30.4715C6.65225 29.8163 7.65924 29.1001 7.62109 28.3002C8.05875 27.907 8.51987 27.5406 9.0019 27.2031C9.46534 26.8675 9.98077 26.6101 10.5276 26.4412C9.84869 26.6469 9.57404 27.2869 10.2301 27.0888C10.6268 26.7003 11.4355 26.1594 12.0839 25.6565C12.7323 25.1537 13.274 24.7728 13.0375 24.4985C16.0234 22.9311 19.2007 21.7582 22.4895 21.0092C25.7452 20.2727 29.0689 19.8769 32.4068 19.8284C33.5053 20.1788 31.5829 19.9807 32.1856 20.2321C33.7723 20.6892 33.4443 19.9426 34.703 20.3464L34.1843 19.9502C36.0762 19.9502 37.9986 20.7121 39.7838 21.1997C39.5168 20.7426 41.3095 20.9483 39.7838 20.575C40.6458 20.7045 41.8969 18.8608 42.5454 19.3255L41.3782 21.0473C41.3782 21.2378 42.6369 21.2454 42.5072 21.3521C43.2332 21.0438 44.0079 20.8658 44.7958 20.8264C45.1162 20.3997 43.7736 20.3388 43.0489 20.2626C43.0489 19.5007 45.5587 20.0645 44.5746 19.2417C46.1003 19.5541 44.3 19.6074 45.2001 20.0036H46.5962L45.4977 20.1178C46.6115 20.4988 46.909 21.1311 48.5492 20.9559L49.9986 21.992C50.2732 21.4206 51.1734 22.1063 52.0202 22.1596L51.593 21.6644C52.3352 21.8815 53.1099 21.9666 53.8816 21.9158C53.3934 21.2378 52.8517 21.7787 52.7068 21.2225L53.9808 21.3673C53.8816 21.6949 54.5758 22.1749 53.6528 22.1291C54.5987 23.0967 55.0412 23.6529 57.7418 24.7271C59.1988 24.7271 56.628 23.6833 57.3451 23.371C58.4643 23.6776 59.4328 24.382 60.0685 25.3518C60.4324 26.0813 60.9535 26.7213 61.5943 27.226C63.6006 28.3611 63.181 28.7497 64.7678 30.3648C64.661 29.9534 65.0119 30.1743 65.4696 30.5248C65.9274 30.8752 66.4385 31.4542 66.7436 31.5152L66.469 30.441C66.8504 31.1571 67.4226 31.6904 67.5294 31.34C67.2853 31.4238 67.6057 32.2237 68.0405 33.2065C68.2084 33.7093 68.3914 34.2655 68.5745 34.7988C68.7576 35.3321 68.811 35.873 68.8721 36.3225L68.338 36.1625C68.5211 37.4577 68.5059 39.2099 68.5593 40.5432C68.557 41.1338 68.3762 41.7101 68.0405 42.1964C67.7166 42.5621 67.4208 42.9518 67.1556 43.362C67.4073 44.2382 67.8345 44.3144 68.4372 44.162C68.3152 43.5601 68.689 42.6916 68.5974 41.785C68.947 40.6007 69.2021 39.3907 69.3603 38.1662C69.4172 37.5555 69.4172 36.9408 69.3603 36.3301C69.2622 35.6852 69.0747 35.057 68.8034 34.4636C69.078 33.7017 69.284 34.136 69.3984 34.9435C69.4595 35.3397 69.5281 35.8121 69.5968 36.2692C69.6217 36.6819 69.7198 37.0869 69.8867 37.4653C69.9477 37.4196 69.9477 37.3205 69.9401 37.2139C69.9579 37.3262 69.9886 37.4362 70.0316 37.5415C70.0316 36.5358 69.7265 34.9054 70.1689 34.4407C70.5809 36.1854 69.4976 35.9644 70.3444 37.8919C70.2223 39.4156 71.1073 40.6803 71.1073 41.7012C70.558 42.7449 69.8028 42.6459 69.2764 45.1295C69.6023 44.8409 69.9082 44.5303 70.1918 44.2001C69.818 45.6628 69.4289 45.9143 69.1162 46.1352C68.8034 46.3561 68.4906 46.5314 67.8345 47.7275C68.2465 46.8742 66.8733 48.1922 67.6896 46.6532C67.2541 47.1013 66.8513 47.58 66.4843 48.0855C65.9808 48.6493 65.5078 49.3197 64.9585 49.8302C64.6076 49.9978 64.7602 49.7159 64.5695 49.6016C65.401 48.337 66.5529 48.0779 66.675 46.7294C67.0335 46.5466 67.3692 46.3256 67.7277 46.1047C68.0634 44.7029 67.4836 44.4362 67.0106 45.0914C67.1843 44.8217 67.2867 44.5124 67.3082 44.1925C66.8504 43.9487 66.8276 44.322 66.7894 44.7943C66.7513 45.2667 66.5987 45.8228 66.1333 45.8304L66.5682 45.0686C66.3393 44.7791 65.996 45.1829 65.6604 45.7619C65.3214 46.3521 64.9443 46.9196 64.5313 47.4608C64.0049 48.6264 63.0056 49.3654 63.2115 49.8073C63.7734 49.542 64.3053 49.2177 64.7983 48.8398C64.3253 49.7997 62.7843 50.1959 61.8155 50.5159C61.761 50.6171 61.6824 50.7035 61.5866 50.7673C61.5982 50.7422 61.6043 50.7149 61.6043 50.6873C61.6043 50.6596 61.5982 50.6323 61.5866 50.6073C61.39 50.7049 61.2159 50.8424 61.0755 51.0111C60.5464 51.1148 60.0114 51.1861 59.4735 51.2244C58.9494 51.2048 58.4245 51.2175 57.902 51.2625L58.024 50.8282L58.1308 51.072C58.5427 51.0809 58.9524 51.0084 59.3362 50.8587C59.626 50.6911 59.7176 50.5235 59.4048 50.4244C58.7938 50.3212 58.1659 50.4063 57.6044 50.6682C57.2892 50.8293 56.9858 51.0126 56.6966 51.2168C57.0399 51.9786 58.6496 51.4453 59.626 51.5215C59.3819 51.9329 58.8632 51.9329 58.1003 51.9253C57.3374 51.9177 56.4983 51.7043 55.3845 51.6358C55.6744 52.1386 56.361 52.23 56.956 52.3443C57.551 52.4586 58.1156 52.3824 58.3673 52.7405C57.6468 52.8108 56.9205 52.6899 56.2618 52.39C55.9719 52.2834 55.682 52.1996 55.3616 52.07C54.99 51.9028 54.6077 51.7603 54.2173 51.6434C54.2631 51.8415 54.7284 52.131 55.1632 52.4053C55.5981 52.6795 56.0634 52.8395 55.9261 53.0452C55.4699 53.0369 55.0165 52.9729 54.5758 52.8547C55.0115 53.0016 55.4349 53.1825 55.8422 53.3957C55.9719 53.5099 55.8422 53.6014 55.6973 53.6928C55.3997 53.868 54.9344 54.0509 56.3686 54.4165C55.7866 54.4212 55.2171 54.2484 54.736 53.9213C54.1648 53.5239 53.5096 53.2632 52.8212 53.1595C53.4697 53.1138 54.942 53.1062 53.5383 52.2148C52.9732 51.9908 52.4206 51.7365 51.8829 51.4529C51.0056 51.3082 53.134 53.1366 51.9363 52.7252C51.3821 52.3301 50.8707 51.8781 50.4106 51.3767C50.6013 51.2625 51.3489 51.7501 51.0971 51.1558C50.1207 50.6377 50.2809 49.4188 49.8155 48.375C49.1747 47.7351 48.7856 47.1713 48.3889 47.0723C47.6261 44.9086 46.4741 42.5011 46.4284 40.5051C46.497 41.8536 45.6655 40.7184 45.1849 40.0327C45.5358 41.5564 44.9942 41.7545 44.5288 41.8002C44.2313 40.8632 44.7653 40.048 45.101 40.4441C44.3991 39.0118 45.2001 39.2937 44.4678 38.0672C44.0406 37.2444 43.9185 38.6538 43.6057 38.41C43.2167 36.711 44.2466 37.7929 43.8041 35.9873C43.7354 36.1016 43.7278 36.2768 43.5829 36.1473C43.2701 35.1721 43.4989 34.0369 43.8194 33.8008C42.8124 32.7951 43.8575 30.7533 42.9878 30.9743C43.3464 28.6201 43.4227 31.34 43.7507 30.8829C44.1779 29.9534 43.9872 28.1935 43.9414 27.6297C43.7572 28.1561 43.6643 28.7101 43.6668 29.2677L43.1175 28.7268C43.0183 25.748 44.6432 27.0431 44.5593 24.2242C44.0177 25.588 44.0406 24.6128 43.5142 25.2604C43.7049 24.8413 43.9872 22.6396 44.1626 24.0414C44.3457 22.99 44.3686 22.2434 44.4602 21.5044C44.7992 20.6872 45.2882 19.9405 45.902 19.3027C46.1863 18.2016 46.345 17.072 46.375 15.9353C48.0075 13.2155 48.9077 10.1909 51.6312 7.82151L51.4862 8.04246C53.3018 6.02354 51.2116 9.39856 53.1569 7.42536C52.7755 7.29584 52.9891 6.91491 53.3552 6.44256C53.8057 6.02327 54.2144 5.56147 54.5758 5.0636C55.2057 4.494 55.9025 4.00282 56.6508 3.60084C57.3514 3.25735 58.0724 2.95711 58.8098 2.70185L63.2649 1.39908C63.2192 1.24671 62.9751 1.10957 62.3342 1.21623C64.5175 0.657171 66.7832 0.492049 69.0246 0.728647L68.9407 0.629602C72.5033 0.309623 75.2878 1.67335 78.4461 2.64091C78.202 2.48854 78.202 2.20664 78.0265 2.06189C79.6972 2.3133 82.3596 2.97612 83.2674 4.00462C85.4111 4.00462 84.4499 4.62934 87.1276 4.91885C87.3107 4.8579 86.9292 4.71315 86.7766 4.62172C87.9221 4.90491 89.0382 5.29518 90.1104 5.78736C92.5516 7.46344 92.727 8.56813 95.7099 10.0842C96.3812 9.32237 94.085 8.78145 94.3977 8.09578C94.8829 8.66748 95.5086 9.10331 96.2134 9.36046C95.9387 8.74336 96.2134 9.09381 96.0989 8.59861C96.8618 8.75098 97.9756 11.0594 97.9985 10.9756C97.9222 11.1508 97.6628 11.0899 97.1288 10.6861C97.434 11.6156 99.8141 12.6441 100.89 13.9392C100.485 13.5811 99.0589 12.705 99.2572 13.4516C101.073 14.6706 100.974 15.8667 101.744 17.1771C103.468 18.2361 101.294 15.5848 102.019 15.3334C102.431 15.3867 103.407 15.5696 102.972 14.7772C104.422 15.9657 104.91 17.3676 105.826 18.7389L105.948 18.5789C106.677 19.5258 107.298 20.5504 107.801 21.6339C108.193 22.6395 108.705 23.5937 109.327 24.4757C109.12 24.1936 108.893 23.9263 108.648 23.6757C108.976 24.3405 109.173 25.0622 109.228 25.8013C109.503 25.588 110.38 26.8374 110.372 26.1746C110.075 26.8679 110.487 28.0945 110.716 29.3972C110.944 30.7 111.15 31.9875 110.799 32.6275C111.189 33.1532 111.486 32.6275 111.669 32.3761C111.265 30.9895 110.906 30.5934 111.089 29.7553C111.463 30.8905 111.852 31.698 112.073 31.4542C111.784 32.7875 112.005 35.6216 111.356 36.2692C111.745 37.092 111.997 37.9072 112.508 37.5796C112.379 39.4385 111.944 38.9661 111.578 38.5928C111.211 38.2195 110.876 37.9148 110.891 39.8804C111.326 41.7317 111.654 38.1052 111.73 40.6422L111.845 40.1699C113.058 42.1278 110.845 41.4269 110.563 43.4154C111.257 43.8191 111.326 42.0593 111.623 43.5754C111.396 44.368 110.998 45.1014 110.456 45.7238C109.968 46.3403 109.612 47.051 109.411 47.8113L109.815 47.6437C109.296 49.1622 108.605 50.6166 107.756 51.9786C107.855 52.1081 107.931 51.9786 108.084 51.7653C107.634 52.8243 107.382 52.9538 107.214 53.0604C107.046 53.1671 106.947 53.2509 106.581 54.1575L105.978 54.3556C106.208 53.7737 106.484 53.2108 106.802 52.6719C107.11 52.07 107.518 51.524 108.007 51.0568C107.527 51.4453 107.557 50.9273 107.588 50.3711C107.618 49.8149 107.588 49.1521 107.168 49.2588L107.489 49.175C107.717 46.1809 108.465 42.8059 108.03 39.3699C108.206 38.8808 108.299 38.3658 108.305 37.8462C108.268 37.3723 108.199 36.9015 108.099 36.4368C107.818 35.4441 107.662 34.4205 107.634 33.3894C108.396 32.8484 107.763 32.9094 107.344 30.9362C107.565 31.9876 106.741 31.2409 106.428 30.6543C106.51 30.1945 106.482 29.7218 106.344 29.2753C105.94 28.9706 104.307 27.0431 104.361 25.9994C103.514 25.1156 104.262 26.3803 104.216 26.685C103.598 26.487 104.048 25.687 103.59 25.4965C103.566 25.5228 103.549 25.5545 103.539 25.589C103.53 25.6235 103.529 25.6598 103.537 25.6946C102.709 24.3494 101.706 23.1197 100.554 22.0377C101.088 21.3749 99.5776 20.415 99.1657 19.6303C99.1657 20.0264 98.1816 19.097 97.6399 18.8684L97.289 17.7104C96.8542 16.6133 95.9311 17.1085 95.0691 16.0724L95.42 16.1334C94.8698 15.6106 94.2252 15.1969 93.5204 14.9144C92.8078 14.601 92.0558 14.3858 91.2852 14.2744C88.2832 11.7553 84.6619 10.0825 80.7957 9.42903C79.0259 9.06334 77.2255 8.78907 75.2802 8.50719L69.0704 7.53202C68.5135 7.22727 69.5434 7.13585 69.1162 6.71683C68.4677 6.59273 67.8081 6.53656 67.148 6.54922C67.9108 6.32828 67.7659 6.61779 67.682 6.37399C68.1092 6.47303 68.5364 6.57208 68.956 6.68636C69.0246 6.62541 68.8873 6.59493 69.017 6.48065C69.5099 6.66202 70.0217 6.78726 70.5427 6.85397C69.7799 6.52637 69.5891 5.86354 68.4448 6.02353C68.5288 6.11496 68.6737 6.15305 68.956 6.22924C68.0405 6.22924 68.0024 5.90927 67.3158 6.06926C66.4843 6.20639 66.6902 6.02353 66.5529 6.2978C65.7252 6.42255 64.9088 6.61363 64.1117 6.86919C62.7462 6.30542 61.5027 7.5701 61.1976 7.73771C61.6477 8.1872 62.7233 7.37202 63.4252 7.79104C63.1899 7.98401 62.9705 8.19547 62.7691 8.42338L62.586 7.99675L61.5332 8.48433L61.6248 8.53766C61.4341 8.42338 61.2357 8.33196 61.0297 8.59861C61.0297 8.68241 60.9687 8.8424 61.0908 8.81193L60.2363 8.93383C60.5644 9.04049 60.4118 9.14714 60.2363 9.28427C60.0609 9.42141 59.8702 9.63473 60.0609 9.83281C59.5498 10.2366 59.092 10.488 58.7106 10.7775C58.3292 11.067 57.9477 11.2041 57.5968 11.4784C57.2508 11.7244 56.9267 11.9997 56.628 12.3012C56.319 12.734 56.0629 13.202 55.8651 13.6954C55.8651 13.2002 54.7208 13.8402 54.3393 14.5563C54.202 15.0134 54.2631 15.1887 54.5758 15.0439L53.813 15.8058C53.9121 17.3295 52.8823 18.2437 52.4627 20.1864H52.7221C52.1126 20.8405 51.7025 21.6544 51.5396 22.5329L52.0584 22.472C52.0584 23.8357 50.7996 23.2338 50.7767 24.7576C50.2732 24.6433 50.2198 23.6452 49.7774 23.3786C50.2122 23.8662 49.9376 25.4813 49.6553 25.0394C49.1823 26.5631 49.4875 26.0984 49.5867 26.2508L49.1289 27.1041C49.0374 28.1935 49.7621 27.5307 50.0978 27.1802C49.4341 28.1021 49.6858 29.2449 49.724 30.3724L49.9834 29.9305V31.3857C49.5731 32.4576 49.5731 33.643 49.9834 34.715C50.1741 34.4102 50.3343 34.1207 50.5479 33.8312C50.9903 34.5931 50.3724 34.2731 50.2809 34.5017C50.1359 35.8425 50.6776 36.0254 51.1963 36.612C51.1731 37.6547 51.5466 38.6675 52.2415 39.4461C52.5085 39.8651 52.7983 40.208 53.0043 40.6194C53.2144 41.0107 53.3244 41.4477 53.3247 41.8917ZM50.3877 59.5134L50.1741 59.62C50.6776 59.7267 50.9751 59.8181 50.3877 59.5134ZM37.1366 60.2295C38.7463 60.4276 38.2275 60.1305 38.3343 59.9324C36.8086 60.1838 35.8855 60.0009 34.5199 60.2752C34.6707 60.1654 34.7829 60.0107 34.8404 59.8333C34.5979 59.8267 34.3571 59.8754 34.1363 59.9758C33.9156 60.0761 33.7206 60.2254 33.5664 60.4123C34.2606 61.0675 37.8156 59.8029 37.1366 60.2295ZM67.1251 62.4084C67.0663 62.3542 67.0024 62.3057 66.9344 62.2637L67.1251 62.4084ZM59.1988 62.1113C59.0602 62.2699 58.8721 62.3772 58.6648 62.416C58.8021 62.2256 58.9395 62.0732 59.1988 62.1113ZM43.4989 63.5359C42.9358 63.7834 42.3109 63.8551 41.7062 63.7417C42.2984 63.6322 42.8974 63.5635 43.4989 63.5359ZM41.3095 21.7101C40.8365 21.5425 39.9363 21.1921 40.7984 21.0549C41.1722 21.3368 41.9885 20.994 42.3241 21.3901H42.408C42.0534 21.5405 41.6857 21.6578 41.3095 21.7406V21.7101ZM60.4271 49.5712C60.572 49.8302 61.0068 50.0511 60.839 50.333L60.9687 50.2797C60.8772 50.4016 60.7932 50.493 60.9077 50.5311C60.5656 50.6831 60.1983 50.7709 59.8244 50.7901C59.5345 49.8911 58.8022 49.8911 60.4271 49.5712Z" fill="#2F2F2F"/>
</svg>
