<svg width="246" height="117" viewBox="0 0 246 117" fill="none" xmlns="http://www.w3.org/2000/svg">
<path d="M188.881 116.157C161.032 116.157 141.29 96.2134 123.026 74.4007C104.611 96.3472 84.9295 116.157 57.1725 116.157C26.0096 116.157 0.65918 90.2596 0.65918 58.4275C0.65918 26.5954 26.0096 0.697754 57.1725 0.697754C85.0309 0.697754 105.375 21.0503 123.026 42.0231C140.668 21.0718 161.032 0.697754 188.881 0.697754C220.046 0.697754 245.394 26.5954 245.394 58.4275C245.394 90.2596 220.033 116.157 188.881 116.157ZM136.395 58.217C152.925 78.1292 168.904 95.164 188.881 95.164C208.798 95.164 224.999 78.6963 224.999 58.4377C224.999 38.1904 208.798 21.7124 188.881 21.7124C168.609 21.7022 152.639 38.642 136.395 58.217ZM57.1725 21.7022C37.2572 21.7022 21.0537 38.1792 21.0537 58.4275C21.0537 78.686 37.2572 95.1528 57.1725 95.1528C77.2512 95.1528 93.2813 77.9688 109.658 58.1966C93.3937 38.642 77.4342 21.7022 57.1725 21.7022Z" fill="#7D3FFF"/>
</svg>
