<svg width="1412" height="591" viewBox="0 0 1412 591" fill="none" xmlns="http://www.w3.org/2000/svg">
<path d="M22.2948 554.859L6.30714 558.869C5.96981 558.959 5.66202 559.136 5.4144 559.382C5.16677 559.629 4.98794 559.936 4.89569 560.272C4.80344 560.609 4.80099 560.964 4.88858 561.302C4.97618 561.64 5.15076 561.95 5.39497 562.199L17.3734 574.178C17.623 574.422 17.9322 574.596 18.2703 574.684C18.6083 574.772 18.9634 574.769 19.3003 574.677C19.6371 574.585 19.9439 574.406 20.1901 574.158C20.4364 573.911 20.6135 573.603 20.7038 573.265L24.7131 557.278C24.7949 556.944 24.7892 556.595 24.6967 556.264C24.6041 555.933 24.4278 555.631 24.1847 555.388C23.9417 555.145 23.6401 554.968 23.309 554.876C22.978 554.783 22.6287 554.778 22.2948 554.859Z" fill="#FFCE52"/>
<path d="M31.5065 24.5014V10.4986C31.5058 9.88467 31.3438 9.28173 31.0366 8.75024C30.7293 8.21875 30.2878 7.77739 29.7561 7.47044L17.5036 0.469007C16.9714 0.161755 16.3677 0 15.7532 0C15.1387 0 14.535 0.161755 14.0029 0.469007L1.75036 7.47044C1.21871 7.77739 0.777125 8.21875 0.469904 8.75024C0.162683 9.28173 0.000629678 9.88467 0 10.4986V24.5014C0.000629678 25.1153 0.162683 25.7183 0.469904 26.2498C0.777125 26.7812 1.21871 27.2226 1.75036 27.5296L14.0029 34.531C14.535 34.8382 15.1387 35 15.7532 35C16.3677 35 16.9714 34.8382 17.5036 34.531L29.7561 27.5296C30.2878 27.2226 30.7293 26.7812 31.0366 26.2498C31.3438 25.7183 31.5058 25.1153 31.5065 24.5014Z" fill="#9441FF"/>
<path d="M1370.56 575.012C1369.78 575.793 1369.77 577.068 1370.63 577.768C1374.18 580.676 1378.65 582.284 1383.29 582.284C1388.59 582.284 1393.68 580.177 1397.43 576.426C1401.18 572.676 1403.29 567.589 1403.29 562.284C1403.29 557.65 1401.68 553.181 1398.77 549.625C1398.07 548.769 1396.8 548.775 1396.01 549.556L1383.29 562.284L1370.56 575.012Z" fill="#00D9B2"/>
<rect x="1362" y="11.6064" width="15" height="15" rx="3" transform="rotate(-45 1362 11.6064)" fill="#FF4BD8"/>
</svg>
