<svg width="288" height="155" viewBox="0 0 288 155" fill="none" xmlns="http://www.w3.org/2000/svg">
<path fill-rule="evenodd" clip-rule="evenodd" d="M269.888 100.18C269.857 100.095 269.827 100.01 269.797 99.9251C268.058 100.553 266.319 101.18 264.58 101.808C264.617 101.908 264.653 102.008 264.689 102.109C266.422 101.466 268.155 100.822 269.888 100.18ZM212.647 146.219C211.686 145.754 210.549 145.538 210.72 144.186C210.83 143.326 210.908 142.424 211.236 141.638C212.248 139.21 213.167 136.707 214.506 134.46C216.284 131.478 218.974 129.4 222.526 128.985C225.915 128.59 229.342 128.504 232.756 128.328C237.444 128.086 242.174 128.132 246.343 125.413C249.017 123.668 251.245 121.626 252.517 118.576C253.956 115.127 255.492 111.701 257.257 108.409C259.716 103.821 263.442 100.668 268.661 99.5161C269.19 99.3996 269.851 99.1216 270.244 99.3219C270.907 99.661 271.485 100.265 271.928 100.881C272.083 101.095 271.862 101.853 271.588 102.045C271.002 102.456 270.249 102.621 269.604 102.962C269.093 103.232 268.64 103.615 268.164 103.95C268.076 104.012 267.992 104.145 267.91 104.142C266.114 104.08 265.429 105.699 264.254 106.56C261.537 108.55 260.041 111.428 258.714 114.403C257.461 117.213 256.281 120.056 254.999 122.852C254.633 123.649 254.124 124.436 253.505 125.054C251.71 126.849 249.855 128.464 247.48 129.66C242.876 131.98 238.057 131.794 233.185 131.883C230.167 131.937 227.114 132.007 224.15 132.503C220.387 133.133 217.947 135.724 216.082 138.921C215.591 139.762 214.798 140.427 214.301 141.265C213.971 141.821 213.951 142.551 213.739 143.186C213.408 144.179 213.033 145.156 212.647 146.219Z" fill="black"/>
<path fill-rule="evenodd" clip-rule="evenodd" d="M209.95 121.959C210.01 122.05 210.071 122.142 210.131 122.233C210.993 121.668 211.856 121.102 212.719 120.536C212.65 120.433 212.582 120.329 212.514 120.225C211.659 120.803 210.804 121.381 209.95 121.959ZM236.375 119.904C236.405 119.99 236.436 120.076 236.466 120.162C237.54 119.781 238.614 119.4 239.689 119.018C239.659 118.933 239.629 118.849 239.599 118.764C238.524 119.144 237.45 119.524 236.375 119.904ZM258.226 95.3777C258.037 95.5641 257.848 95.751 257.556 96.0394L258.557 95.9622C259.37 97.2133 258.994 98.2034 258.083 99.1186C257.29 99.916 256.568 100.81 255.307 100.868C255.177 100.874 254.964 100.944 254.935 101.032C254.545 102.205 253.704 102.222 252.768 101.884C252.757 102.426 252.868 102.969 252.704 103.411C252.528 103.886 252.11 104.279 251.772 104.687C249.818 107.046 249.209 109.95 248.357 112.783C247.573 115.389 246.388 117.836 244.075 119.504C243.772 119.721 243.363 119.791 242.773 120.017C242.431 120.687 241.915 121.522 240.683 121.735C239.965 121.859 239.349 122.541 238.63 122.683C236.652 123.073 234.64 123.561 232.648 123.535C230.8 123.511 228.924 123.002 227.126 122.479C223.215 121.343 219.312 121.424 215.482 122.578C213.354 123.219 211.428 124.406 210.096 126.341C209.692 126.927 209.116 127.39 208.644 127.931C206.345 130.567 204.603 133.527 203.476 136.843C203.129 137.866 202.802 138.896 202.456 139.921C202.293 140.402 202.085 140.651 201.5 140.32C200.061 139.503 199.807 138.916 200.068 137.189C201.113 130.253 204.869 124.975 210.194 120.688C212.553 118.788 215.448 118.215 218.367 118.072C220.336 117.975 222.341 118.197 224.302 118.472C226.131 118.728 227.917 119.277 229.733 119.636C231.941 120.072 234.067 119.505 236.183 118.977C241.52 117.646 244.619 114.177 245.871 108.89C247.258 103.027 250.614 98.6044 255.868 95.6582C256.52 95.2935 257.321 95.1976 258.052 94.9774C258.111 95.1107 258.168 95.244 258.226 95.3777Z" fill="black"/>
<path fill-rule="evenodd" clip-rule="evenodd" d="M269.826 118.723C269.443 119.212 269.052 119.695 268.679 120.19C268.518 120.403 268.225 120.788 268.277 120.847C268.981 121.655 268.365 122.421 267.927 122.785C266.802 123.717 267.284 124.88 267.201 125.953C267.151 126.592 266.437 127.641 265.866 127.794C265.796 127.51 265.729 127.233 265.661 126.955C265.416 127.099 265.123 127.199 264.937 127.397C264.618 127.74 264.366 128.145 264.001 128.636C264.424 128.686 264.713 128.719 265.016 128.754C265.102 129.111 265.184 129.456 265.266 129.796C264.209 130.28 263.129 130.557 262.367 131.552C261.953 132.094 261.345 132.379 261.767 133.188C261.803 133.257 261.401 133.69 261.328 133.659C259.565 132.911 258.764 134.547 258.312 135.406C257.938 136.114 257.47 136.514 256.942 136.814C256.537 137.043 255.879 136.823 255.333 136.821C255.197 136.82 255.061 136.886 254.855 136.939C254.904 137.259 254.949 137.549 254.992 137.832C254.053 138.319 254.053 138.319 251.801 137.879C251.699 139.108 250.742 139.594 249.412 139.031C249.358 139.279 249.307 139.514 249.3 139.546C247.975 139.619 246.489 138.399 245.501 140.431C244.414 139.407 243.411 139.96 242.319 140.624C241.807 140.935 241.083 140.948 240.448 141.002C237.852 141.219 235.312 141.589 232.844 142.535C231.635 142.999 230.644 143.83 229.504 144.26C227.039 145.19 226.055 147.508 224.406 149.181C223.633 149.966 223.301 151.179 222.749 152.187C222.412 152.801 222.319 153.737 221.167 153.275C220.276 152.918 219.911 152.402 220.228 151.331C221.704 146.359 224.403 142.377 229.166 139.886C232.752 138.01 236.614 137.692 240.502 137.286C243.015 137.024 245.516 136.653 248.025 136.346C248.413 136.299 249.049 135.895 248.944 136.829L248.947 136.811L248.474 137.033C248.474 137.09 248.475 137.147 248.476 137.203C248.721 137.207 248.975 137.252 249.209 137.203C249.484 137.145 249.739 136.925 250.008 136.914C252.182 136.826 253.928 135.639 255.672 134.587C257.526 133.471 259.229 132.098 260.952 130.779C261.478 130.378 261.855 129.785 262.3 129.279L262.27 129.308C262.605 128.999 262.938 128.69 263.483 128.186C262.824 128.196 262.49 128.201 261.961 128.209C262.607 127.288 263.137 126.42 263.785 125.65C264.214 125.139 264.551 125.322 264.948 126.139C265.476 126.062 265.985 125.987 266.594 125.897C266.269 125.524 265.995 125.208 265.802 124.987C265.334 124.985 264.764 125.118 264.656 124.952C264.457 124.647 264.462 124.159 264.504 123.759C264.563 123.196 264.692 122.63 264.873 122.091C264.981 121.768 265.242 121.496 265.53 121.055C265.255 120.211 265.549 119.298 266.929 117.216C267.146 117.304 267.376 117.395 267.659 117.509C267.419 116.19 267.539 115.965 268.197 115.969L268.302 117.331L268.277 117.303C268.542 117.753 268.807 118.202 269.102 118.705C269.162 118.683 269.383 118.603 269.604 118.523C269.678 118.59 269.753 118.656 269.826 118.723Z" fill="black"/>
<path fill-rule="evenodd" clip-rule="evenodd" d="M270.162 117.875C270.089 117.809 270.016 117.743 269.943 117.677C269.969 116.153 269.901 116.09 268.636 116.47L268.66 116.499C269.092 116.019 269.524 115.539 270.01 114.999C269.664 114.813 269.332 114.635 268.826 114.363C269.219 114.092 269.5 113.889 269.792 113.703C269.889 113.642 270.065 113.661 270.119 113.584C272.199 110.574 275.117 108.627 278.399 107.206C279.918 106.549 281.542 106.137 283.122 105.627C283.348 105.554 283.599 105.558 283.838 105.526L283.965 105.857C281.991 106.606 280.017 107.355 278.044 108.103C278.078 108.2 278.111 108.296 278.145 108.393C280.196 107.652 282.247 106.911 284.279 106.178C285.133 107.731 285.035 107.938 283.585 108.698C281.682 109.696 279.817 110.765 277.927 111.787C277.551 111.99 277.202 112.293 276.699 111.85C276.494 111.671 275.952 111.876 275.461 111.914L275.405 111.187C274.962 111.518 274.581 111.802 273.972 112.257C274.544 112.281 274.824 112.293 275.093 112.304C275.102 112.411 275.135 112.492 275.108 112.534C274.801 112.989 274.31 113.237 274.415 114.032C274.487 114.577 273.762 114.615 273.4 114.124C273.134 114.47 272.866 114.817 272.466 115.336C272.621 116.33 271.944 116.972 270.567 116.678C270.642 117 270.785 117.292 270.74 117.551C270.716 117.689 270.366 117.769 270.162 117.875Z" fill="black"/>
<path fill-rule="evenodd" clip-rule="evenodd" d="M257.814 132.041C256.373 132.828 254.93 133.614 253.487 134.401C253.407 134.306 253.326 134.211 253.246 134.116C253.44 133.968 253.62 133.801 253.831 133.674C254.831 133.072 255.831 132.469 256.853 131.896C257.073 131.773 257.384 131.773 257.653 131.716C257.707 131.824 257.761 131.933 257.814 132.041Z" fill="black"/>
<path fill-rule="evenodd" clip-rule="evenodd" d="M248.691 136.347C249.3 134.888 250.635 135.048 251.704 134.539C251.71 135.301 250.807 135.81 248.697 136.32C248.694 136.327 248.691 136.347 248.691 136.347Z" fill="black"/>
<path fill-rule="evenodd" clip-rule="evenodd" d="M262.303 128.911C261.894 129.004 261.454 129.043 261.086 129.206C260.725 129.366 260.438 129.654 260.019 129.958C260.059 129.138 260.944 128.197 261.569 128.274C261.839 128.306 262.038 128.705 262.271 128.938C262.272 128.937 262.303 128.911 262.303 128.911Z" fill="black"/>
<path fill-rule="evenodd" clip-rule="evenodd" d="M23.8273 0C21.1753 11.49 11.7602 20.3928 0 22.2905C11.6359 24.1682 20.9759 32.9035 23.7409 44.2173C26.0666 33.4766 34.2862 24.9315 44.8445 22.1374V21.6936C34.4131 18.9331 26.2645 10.559 23.8273 0Z" fill="black"/>
</svg>
