<svg width="262" height="177" viewBox="0 0 262 177" fill="none" xmlns="http://www.w3.org/2000/svg">
<mask id="mask0_796_2573" style="mask-type:alpha" maskUnits="userSpaceOnUse" x="0" y="0" width="262" height="177">
<rect y="0.839355" width="261.511" height="175.656" fill="#D9D9D9"/>
</mask>
<g mask="url(#mask0_796_2573)">
<path d="M-40.7669 47.5288C-40.7669 44.4171 -43.2806 41.8942 -46.3811 41.8942V1.82666C-21.2318 1.82666 -0.844349 22.2882 -0.844349 47.5288V130.794C-0.844349 133.906 1.66916 136.429 4.76971 136.429C7.87037 136.429 10.3839 133.906 10.3839 130.794V47.5288C10.3839 22.2882 30.7714 1.82666 55.921 1.82666C81.0699 1.82666 101.457 22.2882 101.457 47.5288V130.794C101.457 133.906 103.971 136.429 107.071 136.429C110.172 136.429 112.686 133.906 112.686 130.794V47.5288C112.686 22.2882 133.073 1.82666 158.222 1.82666C183.372 1.82666 203.759 22.2882 203.759 47.5288V130.794C203.759 133.906 206.272 136.429 209.374 136.429C212.474 136.429 214.988 133.906 214.988 130.794V47.5288C214.988 22.2882 235.375 1.82666 260.524 1.82666V41.8942C257.424 41.8942 254.91 44.4171 254.91 47.5288V130.794C254.91 156.034 234.522 176.496 209.374 176.496C184.223 176.496 163.836 156.034 163.836 130.794V47.5288C163.836 44.4171 161.323 41.8942 158.222 41.8942C155.122 41.8942 152.608 44.4171 152.608 47.5288V130.794C152.608 156.034 132.22 176.496 107.071 176.496C81.9225 176.496 61.5353 156.034 61.5353 130.794V47.5288C61.5353 44.4171 59.0212 41.8942 55.921 41.8942C52.8196 41.8942 50.3067 44.4171 50.3067 47.5288V130.794C50.3067 156.034 29.919 176.496 4.76971 176.496C-20.3795 176.496 -40.7669 156.034 -40.7669 130.794V47.5288Z" fill="#EC2FA1"/>
</g>
</svg>
