<svg width="736" height="427" viewBox="0 0 736 427" fill="none" xmlns="http://www.w3.org/2000/svg">
<path d="M729.225 357.14C720.715 378.526 702.588 394.998 676.934 406.429C651.275 417.862 618.147 424.22 579.787 425.389C503.072 427.726 405.633 409.304 305.68 369.526C205.727 329.748 122.274 276.18 68.143 221.77C41.0762 194.563 21.3754 167.181 10.5887 141.244C-0.195585 115.312 -2.04715 90.8882 6.46357 69.5028C14.9743 48.1175 33.1014 31.6448 58.7548 20.2141C84.4141 8.78076 117.542 2.42304 155.902 1.25422C232.617 -1.08331 330.056 17.3388 430.009 57.1171C529.962 96.8953 613.415 150.463 667.546 204.873C694.613 232.08 714.314 259.462 725.1 285.399C735.885 311.331 737.736 335.755 729.225 357.14Z" stroke="black" stroke-width="2"/>
</svg>
