<svg width="1472" height="35" viewBox="0 0 1472 35" fill="none" xmlns="http://www.w3.org/2000/svg">
<path d="M16.0439 16.752C15.4022 16.752 14.8979 16.2478 14.8979 15.606V4.146C14.8979 3.50424 15.4022 3 16.0439 3C16.6857 3 17.1899 3.50424 17.1899 4.146V15.606C17.1899 16.2478 16.6857 16.752 16.0439 16.752Z" fill="white"/>
<path d="M16.0439 34.1712C15.4022 34.1712 14.8979 33.6669 14.8979 33.0252V21.5652C14.8979 20.9234 15.4022 20.4192 16.0439 20.4192C16.6857 20.4192 17.1899 20.9234 17.1899 21.5652V33.0252C17.1899 33.6669 16.6857 34.1712 16.0439 34.1712Z" fill="white"/>
<path d="M12.606 19.2732H1.146C0.50424 19.2732 0 18.769 0 18.1272C0 17.4854 0.50424 16.9812 1.146 16.9812H12.606C13.2478 16.9812 13.752 17.4854 13.752 18.1272C13.752 18.769 13.2478 19.2732 12.606 19.2732Z" fill="white"/>
<path d="M30.9419 19.2732H19.4819C18.8402 19.2732 18.3359 18.769 18.3359 18.1272C18.3359 17.4854 18.8402 16.9812 19.4819 16.9812H30.9419C31.5837 16.9812 32.0879 17.4854 32.0879 18.1272C32.0879 18.769 31.5837 19.2732 30.9419 19.2732Z" fill="white"/>
<path d="M1454.93 33.8455C1454.47 33.8455 1453.97 33.7538 1453.51 33.5705C1452.5 33.1579 1451.68 32.3786 1451.26 31.3243L1450.94 30.4992C1449.29 26.0986 1445.76 22.5689 1441.32 20.8728L1440.49 20.5519C1438.47 19.7726 1437.51 17.5265 1438.24 15.5095C1438.66 14.501 1439.44 13.6759 1440.49 13.2634L1441.32 12.9425C1445.76 11.2922 1449.29 7.76255 1450.99 3.31607L1451.31 2.49095C1452.09 0.473993 1454.33 -0.488647 1456.35 0.244793C1457.36 0.657353 1458.19 1.43663 1458.6 2.49095L1458.92 3.31607C1460.57 7.76255 1464.1 11.2922 1468.55 12.9883L1469.37 13.3092C1471.39 14.0885 1472.35 16.3346 1471.62 18.3516C1471.2 19.3601 1470.42 20.1852 1469.37 20.5978L1468.55 20.9186C1464.1 22.5689 1460.57 26.0986 1458.87 30.545L1458.55 31.3702C1457.96 32.8829 1456.49 33.8455 1454.93 33.8455ZM1454.93 2.30759C1454.29 2.30759 1453.69 2.72015 1453.42 3.31607L1453.1 4.14119C1451.17 9.18359 1447.14 13.1717 1442.14 15.097L1441.32 15.4178C1440.9 15.6012 1440.58 15.9221 1440.4 16.3346C1440.08 17.1598 1440.49 18.0766 1441.32 18.3974L1442.14 18.7183C1447.18 20.6436 1451.17 24.6775 1453.1 29.6741L1453.42 30.4992C1453.6 30.9118 1453.92 31.2326 1454.33 31.416C1455.16 31.7369 1456.08 31.3243 1456.4 30.4992L1456.72 29.6741C1458.64 24.6317 1462.68 20.6436 1467.67 18.7183L1468.5 18.3974C1468.91 18.2141 1469.23 17.8932 1469.42 17.4806C1469.74 16.6555 1469.32 15.7387 1468.5 15.4178L1467.67 15.097C1462.63 13.1717 1458.64 9.13775 1456.72 4.14119L1456.4 3.31607C1456.21 2.90351 1455.89 2.58263 1455.48 2.39927C1455.3 2.35343 1455.11 2.30759 1454.93 2.30759Z" fill="white"/>
</svg>
