<svg width="481" height="343" viewBox="0 0 481 343" fill="none" xmlns="http://www.w3.org/2000/svg">
<path d="M351.654 12.3134C354.963 12.1302 357.497 9.29944 357.313 5.99081C357.13 2.68218 354.299 0.148539 350.991 0.331782C347.682 0.515026 345.149 3.34576 345.332 6.65439C345.515 9.96303 348.346 12.4967 351.654 12.3134Z" fill="#020202"/>
<path fill-rule="evenodd" clip-rule="evenodd" d="M4.9299 95.0877L2.34154 94.0893C1.19527 93.6456 0.640626 92.3515 1.08434 91.2052C1.3062 90.6136 1.7869 90.1698 2.34154 89.948L4.9299 88.9496C9.99567 86.9899 13.9891 82.9964 15.9489 77.9306L16.9473 75.3423C17.391 74.196 18.6851 73.6414 19.8314 74.0851C20.423 74.3069 20.8668 74.7876 21.0886 75.3423L22.087 77.9306C24.0467 82.9964 28.0402 86.9899 33.106 88.9496L35.6943 89.948C36.8406 90.3917 37.3952 91.6859 36.9515 92.8321C36.7297 93.4238 36.249 93.8675 35.6943 94.0893L33.106 95.0877C28.0402 97.0475 24.0467 101.041 22.087 106.107L21.0886 108.695C20.6449 109.841 19.3507 110.396 18.2045 109.952C17.6128 109.73 17.1691 109.25 16.9473 108.695L15.9489 106.107C13.9891 101.041 9.99567 97.0475 4.9299 95.0877Z" fill="black"/>
<path d="M19.0185 111.024C18.6487 111.024 18.242 110.95 17.8722 110.803C17.0587 110.47 16.3932 109.841 16.0604 108.991L15.062 106.402C13.2132 101.595 9.4046 97.7868 4.59766 95.938L2.00931 94.9396C0.382343 94.311 -0.394163 92.4992 0.197461 90.8722C0.530249 90.0587 1.15885 89.3932 2.00931 89.0604L4.59766 88.062C9.4046 86.2132 13.2132 82.4046 15.062 77.5977L16.0604 75.0093C16.689 73.3823 18.5008 72.6058 20.1278 73.1975C20.9413 73.5302 21.6068 74.1588 21.9396 75.0093L22.938 77.5977C24.7868 82.4046 28.5954 86.2132 33.4023 88.062L35.9907 89.0604C37.6177 89.689 38.3942 91.5008 37.8025 93.1278C37.4697 93.9413 36.8411 94.6068 35.9907 94.9396L33.4023 95.938C28.5954 97.7868 24.7868 101.595 22.938 106.402L21.9396 108.991C21.4589 110.248 20.2757 111.024 19.0185 111.024ZM19.0185 74.8614C18.5008 74.8614 18.0201 75.1942 17.7983 75.6749L16.7999 78.2632C14.7662 83.5509 10.5509 87.7662 5.26324 89.7999L2.67488 90.7983C2.3421 90.9462 2.08326 91.205 1.93536 91.5378C1.67652 92.2034 2.00931 92.9429 2.67488 93.2017L5.26324 94.2001C10.5509 96.2708 14.7662 100.486 16.7999 105.774L17.7983 108.362C17.9462 108.695 18.205 108.954 18.5378 109.102C19.2034 109.36 19.9429 109.028 20.2017 108.362L21.2001 105.774C23.2708 100.486 27.4861 96.2708 32.7737 94.2371L35.3621 93.2387C35.6949 93.0908 35.9537 92.832 36.1016 92.4992C36.3605 91.8336 36.0277 91.0941 35.3621 90.8352L32.7737 89.8369C27.4861 87.7662 23.2708 83.5509 21.2371 78.2632L20.2387 75.6749C20.0908 75.3421 19.832 75.0833 19.4992 74.9354C19.3143 74.8984 19.1664 74.8614 19.0185 74.8614Z" fill="#00004B"/>
<path fill-rule="evenodd" clip-rule="evenodd" d="M6.17887 94.8137L3.82035 93.904C2.77587 93.4996 2.27047 92.3204 2.67479 91.2759C2.87695 90.7368 3.31496 90.3325 3.82035 90.1303L6.17887 89.2206C10.7948 87.4349 14.4337 83.796 16.2194 79.1801L17.1291 76.8216C17.5334 75.7771 18.7127 75.2717 19.7572 75.676C20.2963 75.8782 20.7006 76.3162 20.9027 76.8216L21.8125 79.1801C23.5982 83.796 27.237 87.4349 31.853 89.2206L34.2115 90.1303C35.256 90.5347 35.7614 91.7139 35.3571 92.7584C35.1549 93.2975 34.7169 93.7018 34.2115 93.904L31.853 94.8137C27.237 96.5994 23.5982 100.238 21.8125 104.854L20.9027 107.213C20.4984 108.257 19.3192 108.763 18.2747 108.358C17.7356 108.156 17.3313 107.718 17.1291 107.213L16.2194 104.854C14.4337 100.238 10.7948 96.5994 6.17887 94.8137Z" fill="#F5E900"/>
<path d="M464.044 324.752C463.402 324.752 462.898 324.248 462.898 323.606V312.146C462.898 311.504 463.402 311 464.044 311C464.686 311 465.19 311.504 465.19 312.146V323.606C465.19 324.248 464.686 324.752 464.044 324.752Z" fill="black"/>
<path d="M464.044 342.171C463.402 342.171 462.898 341.667 462.898 341.025V329.565C462.898 328.923 463.402 328.419 464.044 328.419C464.686 328.419 465.19 328.923 465.19 329.565V341.025C465.19 341.667 464.686 342.171 464.044 342.171Z" fill="black"/>
<path d="M460.606 327.273H449.146C448.504 327.273 448 326.769 448 326.127C448 325.485 448.504 324.981 449.146 324.981H460.606C461.248 324.981 461.752 325.485 461.752 326.127C461.752 326.769 461.248 327.273 460.606 327.273Z" fill="black"/>
<path d="M478.942 327.273H467.482C466.84 327.273 466.336 326.769 466.336 326.127C466.336 325.485 466.84 324.981 467.482 324.981H478.942C479.584 324.981 480.088 325.485 480.088 326.127C480.088 326.769 479.584 327.273 478.942 327.273Z" fill="black"/>
</svg>
