<svg width="375" height="232" viewBox="0 0 375 232" fill="none" xmlns="http://www.w3.org/2000/svg">
<path d="M184.488 3.47151C186.093 1.51539 189.089 1.52306 190.685 3.48738L216.367 35.1071C218.632 37.8947 222.476 38.8319 225.769 37.399L274.206 16.3224C276.942 15.1321 279.971 17.2469 279.796 20.2249L278.117 48.7796C277.83 53.6587 281.947 57.6522 286.815 57.2174L339.507 52.5109C343.195 52.1815 345.312 56.608 342.741 59.2725L323.586 79.1247C319.206 83.6643 321.558 91.2509 327.738 92.5168L369.09 100.987C373.018 101.792 373.451 107.234 369.698 108.649L335.976 121.365C329.788 123.699 328.943 132.106 334.543 135.625L360.723 152.075C364.036 154.156 362.699 159.264 358.793 159.457L310.539 161.84C304.844 162.121 301.263 168.101 303.703 173.254L315.094 197.31C316.54 200.362 313.786 203.721 310.509 202.902L257.506 189.655C253.522 188.659 249.432 190.841 248.04 194.705L236.623 226.393C235.723 228.891 232.683 229.835 230.526 228.286L191.732 200.42C188.955 198.426 185.218 198.416 182.431 200.396L143.495 228.063C141.331 229.601 138.296 228.642 137.408 226.139L126.154 194.392C124.782 190.522 120.702 188.319 116.714 189.294L63.643 202.27C60.3624 203.072 57.6257 199.699 59.0866 196.654L70.6008 172.657C73.0675 167.516 69.5173 161.519 63.8236 161.208L15.5829 158.578C11.6771 158.365 10.3673 153.25 13.69 151.186L39.9547 134.87C45.5724 131.38 44.7703 122.969 38.5943 120.604L4.9377 107.714C1.19265 106.28 1.65283 100.841 5.58562 100.056L46.9802 91.7977C53.1665 90.5634 55.5572 82.9889 51.2004 78.427L32.1473 58.4769C29.59 55.7993 31.73 51.3837 35.4162 51.732L88.0835 56.7084C92.9492 57.1681 97.0864 53.1957 96.8245 48.3153L95.2922 19.7523C95.1324 16.7735 98.1719 14.6742 100.901 15.8784L149.23 37.2029C152.516 38.6527 156.365 37.7352 158.643 34.9592L184.488 3.47151Z" fill="#FFCF25" stroke="black" stroke-width="4"/>
</svg>
