<svg width="155" height="155" viewBox="0 0 155 155" fill="none" xmlns="http://www.w3.org/2000/svg">
<path d="M77.6142 7.11831e-05C57.0903 6.84917e-05 37.4069 8.15317 22.8943 22.6658C8.38165 37.1784 0.22853 56.8618 0.228526 77.3858C0.228522 97.9097 8.38163 117.593 22.8943 132.106C37.4069 146.618 57.0902 154.771 77.6142 154.771L77.6142 77.3858L77.6142 7.11831e-05Z" fill="#F2E03D"/>
<path d="M154.883 0.000488281C134.338 0.000485587 114.635 8.133 100.107 22.609C85.5801 37.085 77.4187 56.7186 77.4187 77.1907C77.4187 97.6628 85.5801 117.296 100.107 131.772C114.635 146.248 134.338 154.381 154.883 154.381L154.883 0.000488281Z" fill="#FF7035"/>
</svg>
