<svg width="176" height="64" viewBox="0 0 176 64" fill="none" xmlns="http://www.w3.org/2000/svg">
<path d="M156 40C156 42.2091 154.209 44 152 44H22C9.84975 44 0 34.1503 0 22C0 9.84974 9.84975 0 22 0H116C138.091 0 156 17.9086 156 40Z" fill="#FF4BD8"/>
<path d="M176 63.4158L156 54.1931L165 52.7368L166.5 43.9995L176 63.4158Z" fill="#FF4BD8"/>
<path d="M119.248 28V22.049C119.248 21.4843 119.197 20.9417 119.094 20.421C118.999 19.9003 118.827 19.4347 118.577 19.024C118.335 18.606 118.005 18.276 117.587 18.034C117.177 17.792 116.656 17.671 116.025 17.671C115.534 17.671 115.087 17.7553 114.683 17.924C114.287 18.0853 113.946 18.3347 113.66 18.672C113.374 19.0093 113.151 19.4347 112.989 19.948C112.835 20.454 112.758 21.0517 112.758 21.741L111.471 21.345C111.471 20.1937 111.677 19.2073 112.087 18.386C112.505 17.5573 113.088 16.923 113.836 16.483C114.592 16.0357 115.479 15.812 116.498 15.812C117.268 15.812 117.925 15.933 118.467 16.175C119.01 16.417 119.461 16.7397 119.82 17.143C120.18 17.539 120.462 17.9863 120.667 18.485C120.873 18.9763 121.016 19.4787 121.096 19.992C121.184 20.498 121.228 20.9783 121.228 21.433V28H119.248ZM110.778 28V16.12H112.538V19.299H112.758V28H110.778Z" fill="white"/>
<path d="M102.012 28.33C101.124 28.33 100.38 28.1687 99.7786 27.846C99.1846 27.516 98.7336 27.0834 98.4256 26.548C98.1249 26.0127 97.9746 25.426 97.9746 24.788C97.9746 24.1647 98.0919 23.6257 98.3266 23.171C98.5686 22.709 98.9059 22.3277 99.3386 22.027C99.7713 21.719 100.288 21.477 100.89 21.301C101.454 21.147 102.085 21.015 102.782 20.905C103.486 20.7877 104.197 20.6814 104.916 20.586C105.634 20.4907 106.305 20.399 106.929 20.311L106.225 20.718C106.247 19.662 106.034 18.881 105.587 18.375C105.147 17.869 104.384 17.616 103.299 17.616C102.58 17.616 101.949 17.781 101.407 18.111C100.871 18.4337 100.494 18.9617 100.274 19.695L98.4146 19.134C98.7006 18.0927 99.2543 17.275 100.076 16.681C100.897 16.087 101.979 15.79 103.321 15.79C104.399 15.79 105.323 15.9844 106.093 16.373C106.87 16.7544 107.427 17.3337 107.765 18.111C107.933 18.4777 108.04 18.8774 108.084 19.31C108.128 19.7354 108.15 20.1827 108.15 20.652V28H106.412V25.151L106.819 25.415C106.371 26.3757 105.744 27.1017 104.938 27.593C104.138 28.0844 103.163 28.33 102.012 28.33ZM102.309 26.691C103.013 26.691 103.621 26.5664 104.135 26.317C104.655 26.0604 105.073 25.7267 105.389 25.316C105.704 24.898 105.909 24.4434 106.005 23.952C106.115 23.5854 106.173 23.1784 106.181 22.731C106.195 22.2764 106.203 21.928 106.203 21.686L106.885 21.983C106.247 22.071 105.62 22.1554 105.004 22.236C104.388 22.3167 103.805 22.4047 103.255 22.5C102.705 22.588 102.21 22.6944 101.77 22.819C101.447 22.9217 101.143 23.0537 100.857 23.215C100.578 23.3764 100.351 23.5854 100.175 23.842C100.006 24.0914 99.9216 24.403 99.9216 24.777C99.9216 25.0997 100.002 25.4077 100.164 25.701C100.332 25.9944 100.589 26.2327 100.934 26.416C101.286 26.5994 101.744 26.691 102.309 26.691Z" fill="white"/>
<path d="M93.5962 28.0001V11.8301H95.5542V28.0001H93.5962Z" fill="white"/>
<path d="M85.8606 28.33C84.7459 28.33 83.8072 28.055 83.0446 27.505C82.2819 26.9477 81.7026 26.196 81.3066 25.25C80.9179 24.2967 80.7236 23.2297 80.7236 22.049C80.7236 20.8537 80.9179 19.783 81.3066 18.837C81.7026 17.891 82.2819 17.1467 83.0446 16.604C83.8146 16.0614 84.7569 15.79 85.8716 15.79C86.9716 15.79 87.9176 16.065 88.7096 16.615C89.5089 17.1577 90.1212 17.902 90.5466 18.848C90.9719 19.794 91.1846 20.861 91.1846 22.049C91.1846 23.237 90.9719 24.304 90.5466 25.25C90.1212 26.196 89.5089 26.9477 88.7096 27.505C87.9176 28.055 86.9679 28.33 85.8606 28.33ZM80.3936 33.28V16.12H82.1426V24.865H82.3626V33.28H80.3936ZM85.6186 26.537C86.4032 26.537 87.0522 26.339 87.5656 25.943C88.0789 25.547 88.4639 25.0117 88.7206 24.337C88.9772 23.655 89.1056 22.8924 89.1056 22.049C89.1056 21.213 88.9772 20.4577 88.7206 19.783C88.4712 19.1084 88.0826 18.573 87.5546 18.177C87.0339 17.781 86.3702 17.583 85.5636 17.583C84.7936 17.583 84.1556 17.7737 83.6496 18.155C83.1436 18.529 82.7659 19.0534 82.5166 19.728C82.2672 20.3954 82.1426 21.169 82.1426 22.049C82.1426 22.9144 82.2636 23.688 82.5056 24.37C82.7549 25.0447 83.1362 25.5764 83.6496 25.965C84.1629 26.3464 84.8192 26.537 85.6186 26.537Z" fill="white"/>
<path d="M65.2144 28.0002L65.2254 12.1602H67.2054V21.8402L72.1884 16.1202H74.7294L69.4824 22.0602L75.3454 28.0002H72.6064L67.2054 22.2802V28.0002H65.2144Z" fill="white"/>
<path d="M58.1186 28.33C56.9159 28.33 55.8929 28.0624 55.0496 27.527C54.2136 26.9844 53.5756 26.24 53.1356 25.294C52.6956 24.348 52.4683 23.27 52.4536 22.06C52.4683 20.8207 52.6993 19.7317 53.1466 18.793C53.6013 17.847 54.2503 17.11 55.0936 16.582C55.9369 16.054 56.9526 15.79 58.1406 15.79C59.3946 15.79 60.4726 16.098 61.3746 16.714C62.2839 17.33 62.8926 18.1734 63.2006 19.244L61.2646 19.827C61.0153 19.1377 60.6083 18.6024 60.0436 18.221C59.4863 17.8397 58.8446 17.649 58.1186 17.649C57.3046 17.649 56.6336 17.8397 56.1056 18.221C55.5776 18.595 55.1853 19.1157 54.9286 19.783C54.6719 20.443 54.5399 21.202 54.5326 22.06C54.5473 23.38 54.8516 24.447 55.4456 25.261C56.0469 26.0677 56.9379 26.471 58.1186 26.471C58.8959 26.471 59.5413 26.295 60.0546 25.943C60.5679 25.5837 60.9566 25.0667 61.2206 24.392L63.2006 24.909C62.7899 26.0164 62.1483 26.8634 61.2756 27.45C60.4029 28.0367 59.3506 28.33 58.1186 28.33Z" fill="white"/>
<path d="M48.0747 14.0191V11.9951H50.0327V14.0191H48.0747ZM48.0747 28.0001V16.1201H50.0327V28.0001H48.0747Z" fill="white"/>
<path d="M34.5396 28.0002V12.1602H40.7986C40.9526 12.1602 41.1359 12.1675 41.3486 12.1822C41.5612 12.1895 41.7666 12.2115 41.9646 12.2482C42.8226 12.3802 43.5412 12.6735 44.1206 13.1282C44.7072 13.5828 45.1472 14.1585 45.4406 14.8552C45.7339 15.5445 45.8806 16.3108 45.8806 17.1542C45.8806 17.9902 45.7302 18.7565 45.4296 19.4532C45.1362 20.1425 44.6962 20.7182 44.1096 21.1802C43.5302 21.6348 42.8152 21.9282 41.9646 22.0602C41.7666 22.0895 41.5612 22.1115 41.3486 22.1262C41.1359 22.1408 40.9526 22.1482 40.7986 22.1482H36.4976V28.0002H34.5396ZM36.4976 20.2892H40.7326C40.8719 20.2892 41.0296 20.2818 41.2056 20.2672C41.3889 20.2525 41.5612 20.2268 41.7226 20.1902C42.2286 20.0728 42.6392 19.8602 42.9546 19.5522C43.2772 19.2368 43.5119 18.8702 43.6586 18.4522C43.8052 18.0268 43.8786 17.5942 43.8786 17.1542C43.8786 16.7142 43.8052 16.2852 43.6586 15.8672C43.5119 15.4418 43.2772 15.0715 42.9546 14.7562C42.6392 14.4408 42.2286 14.2282 41.7226 14.1182C41.5612 14.0742 41.3889 14.0485 41.2056 14.0412C41.0296 14.0265 40.8719 14.0192 40.7326 14.0192H36.4976V20.2892Z" fill="white"/>
</svg>
