<svg width="100" height="59" viewBox="0 0 100 59" fill="none" xmlns="http://www.w3.org/2000/svg">
<path d="M47.3962 37.7196H47.7963C47.9969 38.6481 48.5156 39.4752 49.2609 40.0552C49.5864 40.2743 49.8644 40.5894 50.1153 40.7401C50.2359 40.8575 50.3428 40.9885 50.4339 41.1305C50.5433 41.2586 50.6304 41.4045 50.6916 41.562C51.6138 41.2058 51.6544 41.4524 51.9325 41.7401C52.0321 41.9085 52.1886 42.035 52.3732 42.0962C52.5299 42.0748 52.6809 42.022 52.8171 41.9408C52.9533 41.8597 53.0721 41.7518 53.1665 41.6236V41.8154C53.7317 41.5929 54.2412 41.2467 54.6582 40.8017C55.0927 40.2542 55.4216 39.6293 55.6279 38.9593C56.0785 37.3703 56.0785 35.6854 55.6279 34.0964C55.4002 33.3482 55.0789 32.6324 54.6718 31.9664C54.2087 31.3079 53.6767 30.7017 53.0852 30.1582C51.743 28.9635 50.2382 27.9694 48.6167 27.2062L48.5422 27.4528C45.5595 26.4734 42.4817 25.819 39.3613 25.5008C36.1465 25.0684 32.9081 24.8396 29.665 24.8159C23.3523 24.7748 17.1142 26.0898 12.6458 29.6993C11.7439 30.165 11.8456 29.3295 10.971 29.6993C10.7065 30.0144 10.0488 30.6582 10.2929 30.8637C10.971 30.4253 10.8489 30.9253 11.1201 30.8226C10.1912 31.6719 9.60128 33.2335 8.71302 34.0211C8.74693 33.6718 8.82151 33.3362 8.87576 32.9937C8.67059 33.1725 8.5004 33.3886 8.37399 33.6307C8.24516 33.891 8.15702 34.1649 8.06887 34.3156C8.32653 34.2608 8.45536 35.0005 8.69946 34.7129C7.68237 35.5416 7.69594 36.0827 7.68238 36.5416C7.7959 37.1505 7.69515 37.7804 7.39758 38.3223C6.94328 38.4182 6.42797 39.0552 5.93977 39.9387C5.72957 40.3771 5.5126 40.8771 5.31596 41.377C5.11932 41.877 5.01083 42.4044 4.882 42.8633C4.96336 43.1715 5.10576 43.4729 5.21425 43.7674C5.1261 43.1578 5.28205 43.151 5.42445 43.0825C5.56684 43.014 5.68888 42.966 5.66176 42.2195C5.91264 43.4386 5.7906 44.5961 6.23134 45.6441C5.98045 45.4934 5.70245 45.644 5.76347 46.1098C6.16353 46.7331 6.53645 46.644 6.91617 47.3084C6.86949 47.0439 6.84679 46.7757 6.84836 46.507C7.29588 46.8563 7.15349 47.3769 7.35013 47.8152C7.55354 47.781 7.77052 48.0207 8.02818 48.1577C8.28584 48.2947 8.50961 48.3837 8.60454 48.1577C8.80118 49.2261 9.2826 49.2124 9.88607 50.1439C8.7944 49.7261 9.81825 50.7124 9.58093 50.8631C9.24752 50.5629 8.937 50.2378 8.652 49.8905C10.1844 50.9453 8.23838 49.4316 8.78083 49.1234C8.42824 48.8974 8.39434 49.3015 8.42146 49.5891C8.44859 49.8768 8.42146 50.1302 7.96037 49.5412C9.05883 51.0138 9.47245 51.0959 10.9845 52.4247C9.94709 51.7946 10.9845 52.8767 10.3471 52.7603C11.7643 53.4452 10.7879 52.7603 11.3778 52.5891C12.1508 52.9315 12.5373 52.6986 13.1475 53.3562C14.5036 53.5342 13.0729 52.863 13.8256 52.8014C13.6357 52.5411 12.7136 52.4247 11.9813 52.1165C11.249 51.8083 10.6997 51.4316 11.1608 50.911C10.629 50.3978 10.135 49.8462 9.68265 49.2604C10.2793 49.6439 11.371 49.7809 12.0287 50.4384L11.7575 51.1233C12.4356 51.4316 12.3881 51.9863 12.9509 52.0959C12.7475 51.7877 13.3306 51.685 13.9205 51.8904C13.7171 51.9521 13.4798 51.8904 13.5137 52.0069C14.6325 52.3562 14.6799 52.911 16.1513 53.2808C14.8969 53.2808 14.6054 53.4657 13.3848 53.4794C13.5611 54.0753 14.1782 53.774 14.8494 53.9657C14.7613 53.8767 14.6189 53.8288 14.8494 53.7671C15.0732 53.9109 15.3105 54.0205 15.5275 54.1438C17.1413 54.1438 15.4394 53.3767 16.7548 53.2808C17.677 52.9384 17.955 53.6438 18.6737 53.4315C18.6297 53.4765 18.582 53.5177 18.5313 53.5548C18.6487 53.564 18.7665 53.564 18.8839 53.5548C18.8801 53.5682 18.8801 53.5824 18.8839 53.5959C19.7315 53.7055 20.6604 53.6644 20.9181 54.0616C21.0062 53.8835 21.6843 54.1096 21.9758 54.226C22.4641 54.3767 23.671 54.8013 24.3897 54.137H24.3355C25.4543 54.0205 26.3222 53.7877 26.0713 53.5822L27.8682 53.3493L27.658 52.8493C29.3056 52.9178 29.1565 53.226 30.3092 53.7123C31.6397 53.4554 33.0063 53.4554 34.3368 53.7123C34.5621 53.6853 34.7897 53.6853 35.0149 53.7123L34.3368 53.9383C35.6252 53.863 35.476 54.1438 36.3236 54.1096C36.1473 54.1644 36.1269 54.1986 36.5948 54.1096L37.083 54.0548C37.0355 54 36.8457 54.0137 36.6558 54.0548L36.805 53.8835C37.8153 53.2945 38.3984 54.1301 39.4833 53.8835C39.3534 53.8614 39.2218 53.8499 39.09 53.8493C39.7003 53.6918 40.5614 52.9247 40.8326 53.363C41.0324 53.3265 41.2385 53.3682 41.409 53.4794L41.8633 53.3836L41.4158 53.4794C41.7073 53.6164 41.9786 53.7877 42.0125 53.6781L43.5856 53.5274C43.9274 53.4523 44.2812 53.4523 44.623 53.5274L44.8874 53.3014C45.4638 53.3014 45.457 53.1849 45.3892 53.1301C47.3556 52.3082 48.4947 53.3835 50.6238 52.6575C51.051 53 50.1627 53.1918 50.1017 53.3904C50.8172 53.6757 51.5604 53.8846 52.3189 54.0137C53.2614 53.4794 56.1907 52.9315 55.7092 52.2397C57.4858 52.1165 55.1736 52.6986 56.0754 52.9247H56.2788C55.7566 53.0071 55.2666 53.2321 54.8617 53.5753C54.7396 53.9657 56.3127 54.0137 56.7941 53.8835L56.4348 53.3562C58.0824 53.4794 57.7909 54.3082 58.8147 54.815C60.1098 54.5479 59.3368 54.0822 59.5945 53.589L60.9506 53.6644V53.2603C61.8457 53.3288 62.0694 53.7055 63.2967 53.4931C62.3881 53.1438 65.1275 53.0411 63.8798 52.5685C64.5579 52.411 64.7884 53.1918 65.1139 52.6302C65.6089 53.0479 64.5104 52.8767 64.1646 53.0274C63.9137 53.6644 65.6835 53.2671 66.5107 53.3973C66.5717 53.0685 65.9479 53.0342 66.9108 52.7808C67.1004 52.935 67.3329 53.0257 67.5758 53.0404C67.8188 53.0551 68.0603 52.9931 68.2669 52.863C68.2669 53.274 69.3653 52.9041 69.9146 52.863C69.2975 52.9658 68.416 53.3014 68.8364 53.637C69.485 53.8194 70.1648 53.8591 70.8299 53.7534L70.0841 53.9726C71.0673 54.5342 71.6504 53.4726 72.959 53.6164C72.4957 53.4858 72.0424 53.321 71.6029 53.1233C72.22 53.2877 73.3998 53.5411 74.3694 53.6986L75.4407 53.0548C75.5899 53.3493 76.6748 52.9795 76.6951 53.3904C78.0513 53.0616 75.5763 52.9384 75.4272 52.6439C77.1291 52.3082 76.824 53.274 78.4445 52.5822L77.8885 52.2261C78.431 52.1713 79.5362 52.3493 79.5972 52.1576C79.5972 52.2945 79.326 52.2466 78.987 52.2603C79.3531 53.0685 81.5365 52.7329 81.367 53.589L80.6143 53.6712C81.7738 53.7877 82.6485 54.3561 83.5028 53.9931C84.1809 53.6986 83.0011 53.4452 82.5875 53.2397C83.6791 53.1438 83.5096 54.1301 84.8115 54C84.1334 54.1644 84.269 54.4589 84.6894 54.6849C83.9368 54.7671 82.3705 54.9931 82.6553 54.6301L82.9265 54.5342C82.8451 54.3219 82.4315 54.2534 82.2484 54.1507C81.2178 54.1917 81.7806 54.5547 81.5704 54.726C79.8617 54.9314 81.4009 53.8904 79.8345 53.9794L79.6311 54.1507C78.8717 53.9589 77.7054 53.9794 77.4749 53.4657C76.7968 54.0411 75.6916 53.3219 74.9525 53.6781C74.8576 54.8767 77.6173 53.4863 78.5327 54.1096C77.719 54.3835 79.0277 54.6643 79.3803 54.9178L76.7629 54.5068C76.5595 54.678 75.8272 55.3082 75.339 54.8904L75.5357 54.8493C74.505 54.7602 74.7627 54.2534 73.8744 54.452C73.7456 54.5685 74.0236 54.7465 74.0982 54.8287C73.2777 54.9726 73.4201 54.5822 72.8438 54.4931C72.0301 54.6369 73.2777 54.9725 72.5929 55.1301C71.6233 54.7054 71.0944 55.3013 70.2671 55.3013C70.5926 54.6164 66.9447 54.5068 68.7076 53.8356L66.6734 53.452C66.07 53.8287 68.0702 54.3493 67.5481 54.9452L69.1212 54.8561C68.8975 55.7123 65.7987 54.4383 64.7884 55.4246C64.0292 55.4214 63.2765 55.5655 62.5712 55.8492L62.7068 55.1232C61.8863 55.3287 61.6287 55.7533 61.6016 55.8903C61.1486 55.8701 60.6948 55.8908 60.2454 55.952C60.4136 56.0882 60.6201 56.1673 60.8354 56.178C60.2319 56.6232 60.042 56.4725 59.8183 56.2602C59.3802 56.1202 58.916 56.085 58.4622 56.1574L58.9436 56.4177C58.6249 56.3698 58.2316 56.3013 58.1909 56.1643C57.9844 56.1752 57.7773 56.1614 57.5739 56.1232C57.8837 55.7389 58.2988 55.4554 58.7673 55.3082C56.8619 55.678 55.377 55.5753 53.7293 56.267C53.7971 56.4794 54.4955 56.7259 54.2921 56.7602C53.4716 56.904 52.563 56.5615 52.6309 56.2259H52.1698C52.0909 56.3506 51.9854 56.4559 51.861 56.5341C51.7367 56.6123 51.5966 56.6615 51.451 56.678C51.2989 56.7834 51.1201 56.8428 50.9357 56.8492C50.6374 56.2602 49.071 56.6232 48.7185 56.3698C49.1434 56.2927 49.5754 56.2629 50.0068 56.2807C49.3287 55.904 48.7185 55.4725 48.2235 55.815C49.4643 56.1437 46.9352 56.4999 48.793 56.5821C47.5251 57.3971 48.115 56.0616 46.7589 56.3903L45.8842 56.7259C46.0333 57.1574 47.3284 56.8835 47.1318 57.0547H46.508C47.1386 57.356 49.4643 57.0547 50.9154 57.4793L48.0472 57.8423C44.3992 57.4656 39.9105 58.2396 36.7779 57.404H36.805C36.7507 57.3629 36.7236 57.2876 36.6694 57.1232L36.5338 57.2396L35.9167 56.9314C35.2387 57.3697 33.9436 57.4999 32.8519 57.8697C33.53 57.5684 33.53 57.5684 33.591 57.2396C33.435 56.8081 33.3198 56.63 32.3027 56.8287C32.3027 57.1437 32.9333 57.1095 32.1874 57.3834C32.5739 57.2191 32.1874 57.0136 31.7602 56.993C31.1907 57.2122 30.2278 57.2944 30.2278 57.6095C30.4582 57.6518 30.6959 57.6182 30.9059 57.5136C31.1771 57.5821 29.8278 57.8355 30.6346 58.0615L29.5837 58.0136C28.9802 58.2944 30.0041 58.404 29.7667 58.582C28.0173 58.4382 27.0952 57.7601 25.5153 57.6095C25.583 57.8312 25.615 58.0624 25.6102 58.2944C24.4169 58.5478 22.9658 57.6506 21.5419 57.6095C21.7521 57.8081 22.2878 57.7259 22.7081 57.8081C18.5217 58.2506 14.2923 58.0194 10.1776 57.1232C9.8868 56.7589 9.6152 56.3794 9.36396 55.9862C8.93465 55.9639 8.50684 55.9182 8.08243 55.8492C5.94933 54.8528 4.16128 53.2327 2.94952 51.1987C1.81861 49.2611 1.1241 47.0957 0.915352 44.8564C0.772957 43.4318 0.298317 44.0551 0.040657 43.3838C-0.0135574 42.7 -0.0135574 42.0129 0.040657 41.3291C0.141937 40.82 0.270966 40.317 0.427147 39.8223C0.570892 39.3407 0.740662 38.8674 0.935692 38.4045C1.14589 37.9045 1.26795 37.3224 1.52561 36.6512C1.20692 36.9731 0.427147 37.5141 0.745834 36.2676C0.949051 36.1826 1.12234 36.0379 1.24323 35.8523C1.36411 35.6667 1.42706 35.4487 1.4239 35.2265L1.10521 35.5553C0.983162 34.7334 1.55273 34.1855 1.9799 32.7061C3.02121 30.3847 4.81178 28.4891 7.05856 27.3295C8.59775 25.6172 6.38051 26.9597 6.53646 26.5487C5.56684 27.9185 5.66855 27.3295 5.23459 27.4528C5.91264 26.8638 6.80768 26.22 6.77377 25.5008C7.16277 25.1473 7.57262 24.8179 8.00107 24.5145C8.41298 24.2128 8.8711 23.9815 9.35719 23.8296C8.75372 24.0145 8.5096 24.5899 9.09273 24.4118C9.44532 24.0625 10.1641 23.5762 10.7404 23.1242C11.3168 22.6721 11.7982 22.3297 11.588 22.0831C14.2419 20.674 17.066 19.6195 19.9891 18.9462C22.8829 18.2841 25.8371 17.9283 28.8039 17.8846C29.7803 18.1996 28.0716 18.0216 28.6073 18.2476C30.0176 18.6585 29.7261 17.9873 30.8448 18.3503L30.3838 17.9942C32.0654 17.9942 33.7741 18.6791 35.3607 19.1174C35.1234 18.7065 36.7168 18.8914 35.3607 18.5558C36.1269 18.6722 37.2389 17.0147 37.8153 17.4325L36.7779 18.9804C36.7779 19.1517 37.8966 19.1585 37.7814 19.2544C38.4266 18.9772 39.1153 18.8173 39.8156 18.7818C40.1003 18.3983 38.907 18.3435 38.2628 18.275C38.2628 17.5901 40.4936 18.0969 39.6189 17.3572C40.975 17.638 39.3748 17.686 40.1749 18.0421H41.4158L40.4394 18.1448C41.4293 18.4873 41.6938 19.0558 43.1516 18.8982L44.4399 19.8297C44.684 19.316 45.4841 19.9325 46.2368 19.9804L45.8571 19.5352C46.5168 19.7304 47.2053 19.8069 47.8912 19.7612C47.4573 19.1517 46.9758 19.638 46.847 19.138L47.9794 19.2681C47.8912 19.5626 48.5083 19.9941 47.6878 19.953C48.5286 20.8228 48.9219 21.3228 51.3222 22.2886C52.6173 22.2886 50.3322 21.3502 50.9696 21.0694C51.9644 21.3451 52.8253 21.9784 53.3903 22.8502C53.7137 23.506 54.1768 24.0814 54.7464 24.5351C56.5297 25.5556 56.1568 25.9049 57.5671 27.3569C57.4722 26.9871 57.7841 27.1857 58.1909 27.5007C58.5978 27.8158 59.0521 28.3363 59.3233 28.3911L59.0792 27.4254C59.4182 28.0692 59.9268 28.5487 60.0217 28.2336C59.8047 28.3089 60.0895 29.0281 60.476 29.9116C60.6252 30.3637 60.7879 30.8637 60.9506 31.3431C61.1134 31.8225 61.1608 32.3088 61.2151 32.7129L60.7404 32.5691C60.9032 33.7334 60.8896 35.3087 60.9371 36.5073C60.935 37.0383 60.7743 37.5564 60.476 37.9936C60.1881 38.3224 59.9251 38.6727 59.6894 39.0415C59.9132 39.8292 60.2929 39.8976 60.8286 39.7607C60.7201 39.2196 61.0523 38.4388 60.971 37.6237C61.2817 36.5591 61.5084 35.4712 61.649 34.3704C61.6996 33.8214 61.6996 33.2688 61.649 32.7198C61.5618 32.14 61.3952 31.5752 61.154 31.0417C61.3981 30.3568 61.5812 30.7472 61.6829 31.4732C61.7372 31.8294 61.7982 32.254 61.8592 32.665C61.8814 33.036 61.9686 33.4001 62.1169 33.7403C62.1711 33.6992 62.1711 33.6101 62.1644 33.5143C62.1802 33.6153 62.2075 33.7141 62.2457 33.8088C62.2457 32.9047 61.9745 31.439 62.3678 31.0212C62.7339 32.5896 61.7711 32.391 62.5237 34.1238C62.4152 35.4937 63.2018 36.6306 63.2018 37.5484C62.7136 38.4867 62.0423 38.3977 61.5744 40.6305C61.8642 40.371 62.136 40.0918 62.3881 39.7949C62.0559 41.1099 61.7101 41.336 61.432 41.5346C61.154 41.7332 60.876 41.8907 60.2929 42.966C60.6591 42.1989 59.4386 43.3838 60.1641 42.0003C59.777 42.4032 59.419 42.8335 59.0927 43.288C58.6452 43.7948 58.2248 44.3975 57.7366 44.8564C57.4247 45.0071 57.5603 44.7537 57.3908 44.6509C58.1299 43.514 59.1538 43.2811 59.2623 42.0688C59.5809 41.9044 59.8793 41.7058 60.198 41.5072C60.4963 40.2469 59.981 40.0072 59.5606 40.5962C59.715 40.3538 59.8059 40.0757 59.8251 39.7881C59.4182 39.5689 59.3979 39.9045 59.364 40.3291C59.3301 40.7538 59.1945 41.2538 58.7808 41.2606L59.1673 40.5757C58.9639 40.3154 58.6588 40.6784 58.3604 41.199C58.0592 41.7296 57.724 42.2398 57.3569 42.7263C56.8891 43.7742 56.0008 44.4386 56.1839 44.8358C56.6832 44.5973 57.156 44.3057 57.5942 43.966C57.1738 44.829 55.8042 45.1852 54.943 45.4728C54.8946 45.5639 54.8247 45.6415 54.7396 45.6988C54.7499 45.6763 54.7553 45.6518 54.7553 45.6269C54.7553 45.6021 54.7499 45.5776 54.7396 45.555C54.5648 45.6428 54.4101 45.7664 54.2853 45.918C53.815 46.0113 53.3395 46.0754 52.8614 46.1098C52.3955 46.0922 51.9291 46.1036 51.4646 46.144L51.5731 45.7536L51.668 45.9728C52.0341 45.9808 52.3982 45.9156 52.7393 45.781C52.997 45.6304 53.0784 45.4797 52.8004 45.3906C52.2573 45.2979 51.6992 45.3743 51.2001 45.6098C50.9199 45.7546 50.6503 45.9194 50.3933 46.1029C50.6984 46.7879 52.1291 46.3084 52.997 46.3769C52.78 46.7468 52.3189 46.7468 51.6409 46.7399C50.9628 46.7331 50.217 46.5413 49.227 46.4796C49.4847 46.9317 50.0949 47.0139 50.6238 47.1166C51.1527 47.2193 51.6544 47.1509 51.8782 47.4728C51.2378 47.536 50.5922 47.4273 50.0068 47.1577C49.7491 47.0618 49.4914 46.9865 49.2067 46.87C48.8764 46.7197 48.5366 46.5916 48.1896 46.4865C48.2303 46.6646 48.6439 46.9248 49.0304 47.1714C49.4169 47.418 49.8305 47.5618 49.7084 47.7467C49.303 47.7393 48.8999 47.6818 48.5083 47.5755C48.8955 47.7075 49.2719 47.8701 49.6338 48.0618C49.7491 48.1645 49.6338 48.2467 49.505 48.3289C49.2406 48.4864 48.827 48.6508 50.1017 48.9796C49.5844 48.9837 49.0782 48.8284 48.6507 48.5344C48.143 48.1771 47.5606 47.9427 46.9487 47.8495C47.5251 47.8084 48.8337 47.8015 47.5861 47.0002C47.0838 46.7988 46.5926 46.5702 46.1147 46.3153C45.3349 46.1851 47.2267 47.8289 46.1622 47.4591C45.6696 47.1038 45.215 46.6975 44.8061 46.2468C44.9756 46.144 45.6401 46.5824 45.4163 46.0481C44.5484 45.5824 44.6908 44.4866 44.2772 43.5482C43.7076 42.9729 43.3618 42.4661 43.0092 42.377C42.3311 40.4319 41.3073 38.2676 41.2666 36.4731C41.3276 37.6854 40.5885 36.6649 40.1614 36.0484C40.4733 37.4183 39.9918 37.5963 39.5782 37.6374C39.3138 36.795 39.7884 36.0621 40.0868 36.4183C39.463 35.1307 40.1749 35.3841 39.524 34.2814C39.1443 33.5417 39.0358 34.8088 38.7578 34.5896C38.412 33.0622 39.3274 34.0348 38.9341 32.4116C38.8731 32.5143 38.8663 32.6718 38.7374 32.5554C38.4594 31.6787 38.6629 30.6582 38.9476 30.4459C38.0526 29.5418 38.9815 27.7062 38.2086 27.9048C38.5272 25.7885 38.5951 28.2336 38.8866 27.8226C39.2663 26.9871 39.0968 25.4049 39.0561 24.8981C38.8924 25.3713 38.8098 25.8693 38.812 26.3706L38.3238 25.8843C38.2357 23.2063 39.6799 24.3707 39.6054 21.8365C39.1239 23.0625 39.1443 22.1858 38.6764 22.768C38.8459 22.3913 39.0968 20.4119 39.2528 21.6721C39.4155 20.727 39.4358 20.0557 39.5172 19.3914C39.8186 18.6567 40.2532 17.9854 40.7987 17.412C41.0514 16.4221 41.1925 15.4066 41.2191 14.3847C42.6702 11.9395 43.4703 9.22044 45.891 7.09037L45.7621 7.289C47.3759 5.47398 45.518 8.50814 47.2471 6.73422C46.908 6.61778 47.0979 6.27532 47.4234 5.85068C47.8237 5.47374 48.187 5.05858 48.5083 4.61099C49.0681 4.09891 49.6874 3.65734 50.3526 3.29596C50.9752 2.98716 51.6161 2.71724 52.2715 2.48776L56.2313 1.31657C56.1907 1.17958 55.9737 1.05629 55.4041 1.15218C57.3447 0.649582 59.3585 0.501137 61.3507 0.713839L61.2761 0.624797C64.4426 0.337135 66.9175 1.56314 69.7247 2.43297C69.5077 2.29599 69.5077 2.04257 69.3518 1.91243C70.8367 2.13846 73.2031 2.73433 74.01 3.65896C75.9154 3.65896 75.061 4.22059 77.441 4.48085C77.6037 4.42606 77.2647 4.29593 77.1291 4.21374C78.1472 4.46832 79.1393 4.81918 80.0922 5.26165C82.262 6.76846 82.4179 7.76158 85.0692 9.12455C85.6658 8.43964 83.6249 7.95336 83.9029 7.33694C84.3341 7.8509 84.8902 8.24271 85.5167 8.47389C85.2726 7.91911 85.5167 8.23417 85.415 7.78898C86.093 7.92596 87.083 10.0012 87.1033 9.9259C87.0355 10.0834 86.805 10.0286 86.3303 9.66564C86.6016 10.5012 88.7171 11.4259 89.6732 12.5902C89.3138 12.2683 88.0458 11.4806 88.2221 12.1519C89.8359 13.2477 89.7478 14.323 90.4326 15.5011C91.965 16.4531 90.0325 14.0696 90.6767 13.8436C91.0429 13.8915 91.9108 14.0559 91.5243 13.3436C92.8126 14.4121 93.2465 15.6723 94.0602 16.9052L94.1687 16.7613C94.8166 17.6126 95.3692 18.5337 95.8164 19.5078C96.1641 20.4118 96.6195 21.2697 97.1725 22.0625C96.9881 21.8089 96.7865 21.5686 96.569 21.3434C96.8606 21.941 97.0356 22.5898 97.0843 23.2543C97.3285 23.0625 98.1082 24.1858 98.1014 23.5899C97.837 24.2132 98.2031 25.3159 98.4066 26.4871C98.61 27.6583 98.7931 28.8158 98.4811 29.3911C98.827 29.8637 99.0914 29.3911 99.2541 29.1651C98.8948 27.9185 98.5761 27.5624 98.7388 26.809C99.0711 27.8295 99.4169 28.5555 99.6135 28.3363C99.3558 29.5349 99.5525 32.0828 98.9761 32.665C99.3219 33.4047 99.5457 34.1375 100 33.843C99.8847 35.5142 99.4982 35.0896 99.1728 34.7539C98.8473 34.4183 98.549 34.1444 98.5625 35.9115C98.949 37.5758 99.2406 34.3156 99.3084 36.5964L99.4101 36.1717C100.488 37.9319 98.5218 37.3018 98.271 39.0894C98.888 39.4524 98.949 37.8703 99.2135 39.2333C99.0114 39.9459 98.6573 40.6052 98.176 41.1647C97.7417 41.7189 97.4254 42.3579 97.2471 43.0414L97.6065 42.8907C97.1449 44.2559 96.5307 45.5634 95.7757 46.7879C95.8638 46.9043 95.9317 46.7879 96.0673 46.5961C95.6672 47.5481 95.4434 47.6645 95.2943 47.7604C95.1451 47.8563 95.057 47.9317 94.7315 48.7467L94.1958 48.9248C94.4004 48.4017 94.6453 47.8956 94.9281 47.4111C95.2023 46.87 95.5644 46.3791 95.9995 45.9591C95.5723 46.3084 95.5994 45.8427 95.6265 45.3427C95.6536 44.8427 95.6265 44.2468 95.2536 44.3427L95.5384 44.2674C95.7418 41.5757 96.4063 38.5415 96.0198 35.4526C96.176 35.0129 96.2585 34.5499 96.2639 34.0827C96.2309 33.6567 96.1697 33.2334 96.0808 32.8156C95.8315 31.9232 95.6925 31.003 95.6672 30.076C96.3453 29.5897 95.7825 29.6445 95.4095 27.8706C95.6062 28.8158 94.8739 28.1446 94.5959 27.6172C94.6688 27.2038 94.6433 26.7789 94.5213 26.3775C94.1619 26.1035 92.7109 24.3707 92.7583 23.4324C92.0057 22.6379 92.6702 23.7748 92.6295 24.0488C92.0803 23.8707 92.4803 23.1516 92.0735 22.9803C92.0519 23.0039 92.0363 23.0324 92.0281 23.0635C92.0198 23.0945 92.0191 23.1271 92.026 23.1584C91.29 21.949 90.3985 20.8435 89.3748 19.8708C89.8495 19.2749 88.5069 18.412 88.1408 17.7065C88.1408 18.0627 87.2661 17.2271 86.7846 17.0216L86.4727 15.9805C86.0862 14.9943 85.2658 15.4394 84.4996 14.508L84.8115 14.5628C84.3225 14.0928 83.7495 13.7209 83.1231 13.4669C82.4897 13.1852 81.8214 12.9917 81.1364 12.8916C78.4681 10.6268 75.2495 9.123 71.8131 8.53553C70.24 8.20677 68.6398 7.96021 66.9108 7.70679L61.3914 6.83011C60.8964 6.55614 61.8118 6.47395 61.432 6.09725C60.8557 5.98569 60.2694 5.93519 59.6827 5.94656C60.3607 5.74794 60.2319 6.00821 60.1573 5.78904C60.537 5.87808 60.9167 5.96712 61.2897 6.06985C61.3507 6.01506 61.2286 5.98766 61.3439 5.88492C61.782 6.04798 62.2369 6.16057 62.7 6.22054C62.022 5.92602 61.8524 5.33014 60.8354 5.47397C60.9099 5.55616 61.0388 5.59041 61.2897 5.6589C60.476 5.6589 60.4421 5.37125 59.8318 5.51508C59.0927 5.63836 59.2758 5.47397 59.1538 5.72054C58.418 5.83269 57.6924 6.00447 56.984 6.23423C55.7703 5.72739 54.665 6.86435 54.3938 7.01503C54.7939 7.41912 55.7499 6.68627 56.3737 7.06297C56.1647 7.23645 55.9697 7.42655 55.7906 7.63145L55.6279 7.2479L54.6922 7.68625L54.7735 7.73419C54.604 7.63145 54.4277 7.54926 54.2446 7.78898C54.2446 7.86432 54.1904 8.00815 54.2989 7.98075L53.5395 8.09034C53.831 8.18623 53.6954 8.28211 53.5395 8.4054C53.3835 8.52868 53.214 8.72046 53.3835 8.89853C52.9292 9.26154 52.5224 9.48756 52.1833 9.74783C51.8443 10.0081 51.5053 10.1314 51.1934 10.3779C50.8858 10.5991 50.5977 10.8466 50.3322 11.1177C50.0576 11.5067 49.83 11.9275 49.6542 12.371C49.6542 11.9258 48.6371 12.5012 48.2981 13.145C48.176 13.5559 48.2303 13.7135 48.5083 13.5833L47.8302 14.2682C47.9183 15.6381 47.003 16.46 46.63 18.2065H46.8606C46.3189 18.7945 45.9543 19.5262 45.8096 20.316L46.2707 20.2612C46.2707 21.4872 45.1519 20.9461 45.1315 22.316C44.684 22.2132 44.6365 21.316 44.2433 21.0763C44.6298 21.5146 44.3857 22.9666 44.1348 22.5694C43.7144 23.9392 43.9856 23.5214 44.0738 23.6584L43.6669 24.4255C43.5856 25.4049 44.2297 24.809 44.5281 24.494C43.9381 25.3227 44.1619 26.3501 44.1958 27.3638L44.4263 26.9665V28.2747C44.0617 29.2384 44.0617 30.3041 44.4263 31.2678C44.5959 30.9938 44.7383 30.7335 44.9281 30.4733C45.3214 31.1582 44.7722 30.8705 44.6908 31.076C44.562 32.2814 45.0434 32.4458 45.5045 32.9732C45.4838 33.9106 45.8158 34.8211 46.4334 35.5211C46.6707 35.8978 46.9284 36.206 47.1115 36.5758C47.2981 36.9276 47.396 37.3205 47.3962 37.7196ZM44.7857 53.5616L44.5959 53.6575C45.0434 53.7534 45.3078 53.8356 44.7857 53.5616ZM33.0079 54.2055C34.4386 54.3835 33.9775 54.1164 34.0724 53.9383C32.7163 54.1644 31.8958 54 30.6821 54.2465C30.8161 54.1478 30.9158 54.0087 30.9669 53.8493C30.7514 53.8433 30.5374 53.8871 30.3411 53.9773C30.1449 54.0675 29.9716 54.2018 29.8345 54.3698C30.4516 54.9588 33.6113 53.8219 33.0079 54.2055ZM59.6623 56.1643C59.6101 56.1155 59.5533 56.072 59.4928 56.0342L59.6623 56.1643ZM52.6173 55.8972C52.494 56.0398 52.3268 56.1363 52.1427 56.1711C52.2647 55.9999 52.3868 55.8629 52.6173 55.8972ZM38.6629 57.178C38.1623 57.4005 37.6069 57.4649 37.0694 57.3629C37.5958 57.2645 38.1282 57.2027 38.6629 57.178ZM36.7168 19.5763C36.2964 19.4256 35.4963 19.1106 36.2625 18.9873C36.5948 19.2407 37.3203 18.9325 37.6186 19.2886H37.6932C37.3781 19.4238 37.0512 19.5293 36.7168 19.6037V19.5763ZM53.709 44.6235C53.8378 44.8564 54.2243 45.055 54.0751 45.3084L54.1904 45.2605C54.109 45.3701 54.0344 45.4523 54.1361 45.4865C53.8321 45.6232 53.5057 45.7021 53.1733 45.7194C52.9156 44.9112 52.2647 44.9112 53.709 44.6235Z" fill="#2F2F2F"/>
</svg>
