<svg width="600" height="668" viewBox="0 0 600 668" fill="none" xmlns="http://www.w3.org/2000/svg">
<path fill-rule="evenodd" clip-rule="evenodd" d="M583.003 616.193C582.974 616.113 582.946 616.033 582.917 615.954C581.282 616.544 579.647 617.134 578.011 617.725C578.045 617.819 578.08 617.913 578.113 618.008C579.743 617.403 581.373 616.798 583.003 616.193M529.168 659.493C528.264 659.056 527.195 658.853 527.356 657.581C527.459 656.772 527.533 655.924 527.841 655.185C528.793 652.901 529.657 650.547 530.916 648.434C532.588 645.629 535.118 643.674 538.459 643.285C541.646 642.913 544.87 642.832 548.08 642.667C552.49 642.439 556.938 642.482 560.859 639.925C563.374 638.284 565.469 636.364 566.666 633.495C568.019 630.251 569.464 627.029 571.123 623.933C573.436 619.618 576.941 616.652 581.849 615.569C582.346 615.46 582.968 615.198 583.337 615.387C583.961 615.705 584.505 616.273 584.922 616.852C585.067 617.054 584.859 617.767 584.601 617.948C584.05 618.334 583.342 618.489 582.736 618.81C582.255 619.064 581.83 619.424 581.381 619.739C581.298 619.797 581.22 619.922 581.142 619.92C579.454 619.862 578.81 621.384 577.704 622.194C575.149 624.065 573.742 626.773 572.494 629.571C571.315 632.213 570.206 634.887 568.999 637.516C568.656 638.266 568.177 639.006 567.595 639.587C565.906 641.276 564.162 642.794 561.929 643.92C557.598 646.102 553.066 645.927 548.484 646.01C545.646 646.061 542.774 646.126 539.986 646.593C536.448 647.186 534.152 649.623 532.398 652.629C531.937 653.421 531.191 654.046 530.723 654.834C530.413 655.357 530.394 656.044 530.195 656.64C529.884 657.574 529.531 658.494 529.168 659.493" fill="black"/>
<path fill-rule="evenodd" clip-rule="evenodd" d="M526.628 636.676C526.685 636.762 526.742 636.849 526.799 636.934C527.61 636.402 528.421 635.87 529.232 635.338C529.168 635.241 529.104 635.143 529.04 635.046C528.236 635.59 527.432 636.133 526.628 636.676M551.476 634.744C551.504 634.825 551.533 634.906 551.561 634.987C552.572 634.628 553.582 634.269 554.592 633.91C554.564 633.831 554.536 633.751 554.508 633.671C553.497 634.029 552.486 634.387 551.476 634.744M572.028 611.677C571.85 611.852 571.673 612.028 571.398 612.299L572.34 612.227C573.104 613.403 572.75 614.334 571.894 615.195C571.148 615.945 570.468 616.786 569.283 616.84C569.16 616.846 568.961 616.912 568.933 616.995C568.566 618.098 567.775 618.114 566.895 617.796C566.884 618.306 566.989 618.817 566.835 619.232C566.67 619.679 566.276 620.049 565.958 620.432C564.121 622.651 563.548 625.382 562.746 628.047C562.009 630.497 560.895 632.799 558.719 634.367C558.434 634.572 558.049 634.638 557.495 634.85C557.173 635.48 556.688 636.266 555.529 636.466C554.854 636.582 554.274 637.224 553.598 637.357C551.738 637.724 549.846 638.183 547.972 638.159C546.234 638.136 544.469 637.657 542.778 637.166C539.1 636.097 535.43 636.174 531.827 637.259C529.827 637.862 528.015 638.978 526.762 640.798C526.383 641.349 525.84 641.784 525.396 642.293C523.234 644.772 521.596 647.556 520.536 650.675C520.209 651.637 519.902 652.606 519.577 653.569C519.423 654.022 519.227 654.257 518.677 653.945C517.324 653.177 517.086 652.625 517.331 651C518.314 644.477 521.846 639.513 526.854 635.481C529.073 633.695 531.795 633.155 534.541 633.02C536.393 632.93 538.278 633.138 540.123 633.397C541.843 633.638 543.522 634.154 545.231 634.491C547.307 634.902 549.307 634.368 551.297 633.872C556.316 632.62 559.231 629.358 560.408 624.385C561.713 618.871 564.869 614.712 569.811 611.941C570.423 611.598 571.177 611.508 571.865 611.3C571.92 611.426 571.974 611.551 572.028 611.677" fill="black"/>
<path fill-rule="evenodd" clip-rule="evenodd" d="M582.94 633.634C582.579 634.093 582.211 634.547 581.86 635.014C581.709 635.214 581.433 635.575 581.482 635.631C582.144 636.391 581.565 637.112 581.153 637.453C580.095 638.33 580.548 639.424 580.47 640.434C580.423 641.034 579.752 642.021 579.215 642.165C579.149 641.898 579.085 641.637 579.022 641.376C578.792 641.511 578.516 641.605 578.341 641.792C578.041 642.114 577.804 642.495 577.461 642.957C577.859 643.003 578.13 643.035 578.415 643.068C578.496 643.404 578.573 643.727 578.65 644.047C577.657 644.503 576.64 644.763 575.924 645.699C575.535 646.209 574.962 646.477 575.36 647.238C575.394 647.302 575.016 647.71 574.947 647.68C573.289 646.977 572.536 648.516 572.11 649.324C571.759 649.989 571.318 650.366 570.821 650.648C570.44 650.864 569.822 650.657 569.309 650.654C569.181 650.654 569.053 650.716 568.859 650.765C568.905 651.067 568.947 651.339 568.988 651.606C568.104 652.063 568.104 652.063 565.987 651.649C565.891 652.806 564.991 653.262 563.74 652.733C563.689 652.966 563.641 653.187 563.635 653.218C562.388 653.286 560.991 652.139 560.061 654.05C559.039 653.086 558.096 653.606 557.069 654.231C556.587 654.524 555.907 654.536 555.309 654.587C552.868 654.791 550.479 655.139 548.158 656.029C547.021 656.465 546.089 657.246 545.016 657.651C542.698 658.525 541.772 660.706 540.222 662.279C539.494 663.017 539.183 664.158 538.663 665.106C538.346 665.684 538.259 666.564 537.176 666.13C536.338 665.794 535.994 665.308 536.293 664.301C537.681 659.625 540.219 655.88 544.698 653.537C548.071 651.773 551.704 651.474 555.36 651.092C557.723 650.845 560.075 650.496 562.435 650.208C562.8 650.164 563.399 649.784 563.299 650.662L563.302 650.645L562.858 650.853C562.858 650.907 562.859 650.961 562.859 651.014C563.09 651.017 563.329 651.06 563.549 651.014C563.808 650.959 564.047 650.752 564.3 650.742C566.345 650.659 567.987 649.542 569.628 648.554C571.371 647.503 572.972 646.213 574.593 644.972C575.087 644.595 575.442 644.037 575.861 643.561L575.833 643.589C576.147 643.298 576.461 643.007 576.973 642.533C576.354 642.543 576.039 642.547 575.542 642.555C576.149 641.689 576.648 640.873 577.257 640.148C577.661 639.668 577.978 639.839 578.351 640.609C578.848 640.535 579.326 640.465 579.899 640.38C579.594 640.029 579.336 639.733 579.154 639.525C578.714 639.522 578.178 639.648 578.077 639.492C577.889 639.205 577.894 638.746 577.934 638.37C577.989 637.84 578.111 637.308 578.28 636.801C578.382 636.497 578.628 636.241 578.899 635.826C578.64 635.033 578.916 634.174 580.215 632.216C580.419 632.299 580.634 632.385 580.901 632.492C580.676 631.251 580.788 631.04 581.407 631.043L581.506 632.325L581.482 632.298C581.732 632.721 581.981 633.144 582.258 633.616C582.314 633.596 582.522 633.521 582.73 633.445C582.8 633.508 582.87 633.571 582.94 633.634" fill="black"/>
<path fill-rule="evenodd" clip-rule="evenodd" d="M583.249 632.836C583.181 632.774 583.112 632.711 583.043 632.649C583.068 631.216 583.004 631.157 581.814 631.515L581.836 631.541C582.243 631.09 582.65 630.639 583.106 630.131C582.781 629.956 582.469 629.789 581.993 629.533C582.363 629.278 582.627 629.087 582.901 628.912C582.992 628.854 583.158 628.873 583.208 628.8C585.165 625.969 587.909 624.138 590.997 622.802C592.425 622.184 593.952 621.796 595.438 621.317C595.651 621.248 595.886 621.251 596.111 621.222L596.231 621.533C594.375 622.237 592.518 622.942 590.662 623.646C590.694 623.736 590.726 623.827 590.757 623.918C592.687 623.221 594.616 622.525 596.527 621.835C597.329 623.296 597.238 623.49 595.874 624.205C594.084 625.143 592.33 626.149 590.552 627.11C590.198 627.301 589.871 627.586 589.397 627.17C589.204 627.001 588.694 627.194 588.233 627.229L588.18 626.546C587.763 626.857 587.406 627.124 586.832 627.552C587.371 627.575 587.634 627.586 587.887 627.597C587.895 627.697 587.926 627.774 587.901 627.812C587.613 628.24 587.15 628.474 587.249 629.222C587.317 629.734 586.635 629.77 586.295 629.308C586.044 629.633 585.793 629.96 585.416 630.448C585.562 631.383 584.925 631.986 583.63 631.71C583.701 632.013 583.835 632.288 583.793 632.531C583.771 632.661 583.441 632.736 583.249 632.836" fill="black"/>
<path fill-rule="evenodd" clip-rule="evenodd" d="M571.641 646.159C570.285 646.899 568.928 647.639 567.571 648.379C567.495 648.289 567.42 648.2 567.344 648.11C567.527 647.971 567.696 647.814 567.894 647.694C568.835 647.128 569.775 646.562 570.736 646.023C570.943 645.907 571.236 645.907 571.489 645.853C571.539 645.955 571.59 646.057 571.641 646.159" fill="black"/>
<path fill-rule="evenodd" clip-rule="evenodd" d="M563.059 650.209C563.632 648.836 564.887 648.987 565.893 648.508C565.899 649.225 565.049 649.703 563.064 650.183C563.062 650.19 563.059 650.209 563.059 650.209" fill="black"/>
<path fill-rule="evenodd" clip-rule="evenodd" d="M575.863 643.215C575.479 643.303 575.065 643.339 574.719 643.492C574.379 643.643 574.109 643.914 573.715 644.199C573.753 643.429 574.585 642.544 575.172 642.616C575.426 642.646 575.614 643.022 575.833 643.24C575.834 643.24 575.863 643.215 575.863 643.215" fill="black"/>
<path fill-rule="evenodd" clip-rule="evenodd" d="M22.4095 0C19.9152 10.8063 11.0604 19.1793 0 20.9641C10.9435 22.7301 19.7277 30.9456 22.3282 41.5862C24.5152 31.4858 32.2441 23.45 42.1724 20.8211V20.4018C32.3635 17.8045 24.7014 9.92947 22.4095 0Z" fill="black"/>
</svg>
